<?xml version="1.0" encoding="UTF-8" standalone="no"?>
<svg
   xmlns:dc="http://purl.org/dc/elements/1.1/"
   xmlns:cc="http://creativecommons.org/ns#"
   xmlns:rdf="http://www.w3.org/1999/02/22-rdf-syntax-ns#"
   xmlns:svg="http://www.w3.org/2000/svg"
   xmlns="http://www.w3.org/2000/svg"
   xmlns:sodipodi="http://sodipodi.sourceforge.net/DTD/sodipodi-0.dtd"
   xmlns:inkscape="http://www.inkscape.org/namespaces/inkscape"
   id="e8490e8d-5198-43d9-967b-1550870c008b"
   data-name="Layer 1"
   viewBox="0 0 831 257"
   version="1.1"
   sodipodi:docname="images_pull.svg"
   inkscape:version="0.92.2 (5c3e80d, 2017-08-06)">
  <metadata
     id="metadata116">
    <rdf:RDF>
      <cc:Work
         rdf:about="">
        <dc:format>image/svg+xml</dc:format>
        <dc:type
           rdf:resource="http://purl.org/dc/dcmitype/StillImage" />
      </cc:Work>
    </rdf:RDF>
  </metadata>
  <defs
     id="defs114" />
  <sodipodi:namedview
     pagecolor="#ffffff"
     bordercolor="#666666"
     borderopacity="1"
     objecttolerance="10"
     gridtolerance="10"
     guidetolerance="10"
     inkscape:pageopacity="0"
     inkscape:pageshadow="2"
     inkscape:window-width="1920"
     inkscape:window-height="1027"
     id="namedview112"
     showgrid="false"
     inkscape:zoom="2.4710446"
     inkscape:cx="594.25543"
     inkscape:cy="133.94436"
     inkscape:window-x="-8"
     inkscape:window-y="-8"
     inkscape:window-maximized="1"
     inkscape:current-layer="e8490e8d-5198-43d9-967b-1550870c008b" />
  <title
     id="title2">images_pull</title>
  <path
     id="8b69e98f-da03-42a8-bb5e-931546bb7bf3"
     data-name="&lt;Path&gt;"
     d="M257,0H574V23.3H257Z"
     fill="#6aa4d9" />
  <path
     id="a4f59d34-4662-45a9-bbaf-4d8c1aa01913"
     data-name="&lt;Path&gt;"
     d="M574,0H831V23.3H574Z"
     fill="#87c3eb" />
  <g
     id="fa65ea89-a329-46fb-b919-abccfdc2bd13"
     data-name="&lt;Group&gt;">
    <path
       id="5bcb0add-0494-4fdf-bb9d-5389099a83d9"
       data-name="&lt;Path&gt;"
       d="M406.88,105.7l-4.07,6.8-4.06-6.8Z"
       fill="#394b54" />
  </g>
  <path
     id="ed71e831-10c9-4ff9-8007-dd79df7df3be"
     data-name="&lt;Path&gt;"
     d="M0,0H258V23.3H0Z"
     fill="#4278bd" />
  <path
     id="8dfc0949-a118-4ad0-95e8-8ea302f480f8"
     data-name="&lt;Path&gt;"
     d="M402.81,81.5H135.31"
     fill="none"
     stroke="#394b54"
     stroke-miterlimit="10" />
  <text
     font-size="14"
     style="font-size:14px;font-family:IBMPlexSans, 'IBM Plex Sans';isolation:isolate"
     id="text36"
     x="550.96997"
     y="43.93">Ogni altro repository privato o pubblico</text>
  <text
     transform="translate(47.13,43.93)"
     font-size="14"
     style="font-size:14px;font-family:IBMPlexSans, 'IBM Plex Sans';isolation:isolate"
     id="text62">Registro IBM Cloud privato</text>
  <text
     transform="translate(352.56,43.93)"
     font-size="14"
     style="font-size:14px;font-family:IBMPlexSans, 'IBM Plex Sans';isolation:isolate"
     id="text76">Il tuo computer locale</text>
  <path
     id="7a9f1b09-23e5-4d1a-836c-681bfbee8a1b"
     data-name="&lt;Path&gt;"
     d="M701.75,82v23"
     fill="none"
     stroke="#394b54"
     stroke-miterlimit="10" />
  <path
     id="5c3d264d-481a-4257-b90b-f072cb96571c"
     data-name="&lt;Path&gt;"
     d="M402.81,81.75v23"
     fill="none"
     stroke="#394b54"
     stroke-miterlimit="10" />
  <g
     id="24929a33-c60f-4ac1-a4c9-dd2b013fcfec"
     data-name="&lt;Group&gt;">
    <path
       id="bbde98b1-ef22-499b-8dcd-6d67478ddd15"
       data-name="&lt;Path&gt;"
       d="M426.94,105.7l4.06,6.8,4.06-6.8Z"
       fill="#394b54" />
  </g>
  <path
     id="4b0231f8-6719-46ad-96fc-79eb7665732d"
     data-name="&lt;Path&gt;"
     d="M431,81.75v23"
     fill="none"
     stroke="#394b54"
     stroke-miterlimit="10" />
  <path
     id="87af3fe2-74cb-44aa-a5ab-e14b1aa58778"
     data-name="&lt;Path&gt;"
     d="M135.56,81v23"
     fill="none"
     stroke="#394b54"
     stroke-miterlimit="10" />
  <path
     id="d762aa00-b2f3-4f58-a310-3ac7282a91ac"
     data-name="&lt;Path&gt;"
     d="M431,82H702.25"
     fill="none"
     stroke="#394b54"
     stroke-miterlimit="10" />
  <rect
     x="119.81"
     y="71"
     width="15.5"
     height="19.5"
     transform="translate(255.13 161.5) rotate(-180)"
     fill="none"
     id="rect85" />
  <path
     id="3d77c569-fbe6-4582-92db-2654f1f7870c"
     data-name="&lt;Path&gt;"
     d="M181.82,145.08a36.89,36.89,0,0,0-7.09.68,50.09,50.09,0,0,0-82.8,6.12,37.83,37.83,0,0,0-7.34-.72c-21.52,0-38.95,17.93-38.95,40.05,0,21,15.77,38.28,35.83,39.91l100.13.13h.22c22,0,39.74-19.29,39.74-43.09S203.77,145.08,181.82,145.08Z"
     fill="#87c3eb"
     stroke="#152935"
     stroke-miterlimit="10"
     stroke-width="11" />
  <path
     id="d18ea59c-1c7a-460c-b05b-3543543347cb"
     data-name="&lt;Path&gt;"
     d="M750.47,145.08a36.89,36.89,0,0,0-7.09.68,50.09,50.09,0,0,0-82.8,6.12,37.83,37.83,0,0,0-7.34-.72c-21.52,0-39,17.93-39,40.05,0,21,15.77,38.28,35.83,39.91l100.13.13h.22c21.95,0,39.74-19.29,39.74-43.09S772.42,145.08,750.47,145.08Z"
     fill="none"
     stroke="#152935"
     stroke-miterlimit="10"
     stroke-width="11" />
  <rect
     id="6ea524ae-924b-4773-9340-ecf98f966d8c"
     data-name="&lt;Rectangle&gt;"
     x="352.77"
     y="126"
     width="124.47"
     height="90.67"
     fill="#060707" />
  <g
     id="63b3a8bd-56e1-4376-9d54-b8baf7f8c6ce"
     data-name="&lt;Group&gt;">
    <rect
       id="03c9ae76-0cca-4099-8c3c-9aa107e5e870"
       data-name="&lt;Rectangle&gt;"
       x="361.89"
       y="137.31"
       width="106.23"
       height="77.38"
       fill="#fff" />
    <path
       id="88e0b1d6-61e1-4b65-9310-5e09320993b5"
       data-name="&lt;Compound Path&gt;"
       d="M470.3,216.88H359.7V135.12H470.3ZM364.08,212.5H465.92v-73H364.08Z"
       fill="#fff" />
  </g>
  <rect
     id="384e6bc0-f0bb-4876-8b06-b83fc3075626"
     data-name="&lt;Rectangle&gt;"
     x="342.62"
     y="216.34"
     width="144.76"
     height="22.89"
     fill="#060707" />
  <rect
     id="fc8bfb25-d384-4773-bdf5-45a366edf0a1"
     data-name="&lt;Rectangle&gt;"
     x="385.72"
     y="221.01"
     width="58.56"
     height="9.66"
     rx="4.18"
     ry="4.18"
     fill="#8c9ba5" />
  <rect
     x="672.66"
     y="173.26"
     width="63.48"
     height="33.86"
     fill="none"
     stroke="#152935"
     stroke-miterlimit="10"
     stroke-width="3"
     id="rect95" />
  <line
     x1="676.32"
     y1="170.09"
     x2="732.49"
     y2="170.09"
     fill="none"
     stroke="#152935"
     stroke-miterlimit="10"
     stroke-width="6"
     id="line97" />
  <rect
     x="682.05"
     y="165.05"
     width="44.71"
     height="5.03"
     fill="none"
     stroke="#152935"
     stroke-miterlimit="10"
     stroke-width="2"
     id="rect99" />
  <path
     d="M711.7,190.19H699v-2.12h-2.12v4.24h16.93v-4.24H711.7Z"
     fill="#152935"
     id="path101" />
  <rect
     x="101.86"
     y="173.26"
     width="63.48"
     height="33.86"
     fill="none"
     stroke="#152935"
     stroke-miterlimit="10"
     stroke-width="3"
     id="rect103" />
  <line
     x1="105.51"
     y1="170.09"
     x2="161.69"
     y2="170.09"
     fill="none"
     stroke="#152935"
     stroke-miterlimit="10"
     stroke-width="6"
     id="line105" />
  <rect
     x="111.25"
     y="165.05"
     width="44.71"
     height="5.03"
     fill="none"
     stroke="#152935"
     stroke-miterlimit="10"
     stroke-width="2"
     id="rect107" />
  <path
     d="M140.89,190.19H128.2v-2.12h-2.12v4.24H143v-4.24h-2.12Z"
     fill="#152935"
     id="path109" />
  <text
     xml:space="preserve"
     style="font-style:normal;font-weight:normal;font-size:13.33333302px;line-height:125%;font-family:sans-serif;letter-spacing:0px;word-spacing:0px;fill:#000000;fill-opacity:1;stroke:none;stroke-width:1px;stroke-linecap:butt;stroke-linejoin:miter;stroke-opacity:1"
     x="179.7066"
     y="41.809917"
     id="text120"><tspan
       sodipodi:role="line"
       id="tspan118"
       x="179.7066"
       y="41.809917"> </tspan></text>
</svg>
