<?xml version="1.0" encoding="UTF-8" standalone="no"?>
<!-- Generator: Adobe Illustrator 22.0.0, SVG Export Plug-In . SVG Version: 6.00 Build 0)  -->

<svg
   xmlns:dc="http://purl.org/dc/elements/1.1/"
   xmlns:cc="http://creativecommons.org/ns#"
   xmlns:rdf="http://www.w3.org/1999/02/22-rdf-syntax-ns#"
   xmlns:svg="http://www.w3.org/2000/svg"
   xmlns="http://www.w3.org/2000/svg"
   xmlns:xlink="http://www.w3.org/1999/xlink"
   xmlns:sodipodi="http://sodipodi.sourceforge.net/DTD/sodipodi-0.dtd"
   xmlns:inkscape="http://www.inkscape.org/namespaces/inkscape"
   version="1.1"
   x="0px"
   y="0px"
   viewBox="0 0 831 257"
   style="enable-background:new 0 0 831 257;"
   xml:space="preserve"
   id="svg134"
   sodipodi:docname="images_copy.svg"
   inkscape:version="0.92.2 (5c3e80d, 2017-08-06)"><metadata
     id="metadata140"><rdf:RDF><cc:Work
         rdf:about=""><dc:format>image/svg+xml</dc:format><dc:type
           rdf:resource="http://purl.org/dc/dcmitype/StillImage" /></cc:Work></rdf:RDF></metadata><defs
     id="defs138" /><sodipodi:namedview
     pagecolor="#ffffff"
     bordercolor="#666666"
     borderopacity="1"
     objecttolerance="10"
     gridtolerance="10"
     guidetolerance="10"
     inkscape:pageopacity="0"
     inkscape:pageshadow="2"
     inkscape:window-width="1920"
     inkscape:window-height="1027"
     id="namedview136"
     showgrid="false"
     inkscape:zoom="1.7472924"
     inkscape:cx="480.63792"
     inkscape:cy="89.731135"
     inkscape:window-x="-8"
     inkscape:window-y="-8"
     inkscape:window-maximized="1"
     inkscape:current-layer="svg134" /><style
     type="text/css"
     id="style2">
	.st0{fill:#6AA4D9;}
	.st1{fill:#87C3EB;}
	.st2{fill:#394B54;}
	.st3{fill:#4278BD;}
	.st4{fill:none;stroke:#394B54;stroke-miterlimit:10;}
	.st5{fill:none;stroke:#152935;stroke-width:11;stroke-miterlimit:10;}
	.st6{fill:#060707;}
	.st7{fill:#FFFFFF;}
	.st8{fill:#8C9BA5;}
	.st9{fill:none;stroke:#152935;stroke-width:3;stroke-miterlimit:10;}
	.st10{fill:none;stroke:#152935;stroke-width:6;stroke-miterlimit:10;}
	.st11{fill:none;stroke:#152935;stroke-width:2;stroke-miterlimit:10;}
	.st12{fill:#152935;}
	.st13{font-family:'IBMPlexSans';}
	.st14{font-size:14px;}
	.st15{clip-path:url(#SVGID_2_);}
</style><g
     id="Layer_1"><title
       id="title4">images_copy</title><rect
       x="257"
       class="st0"
       width="317"
       height="23.3"
       id="rect6" /><rect
       x="574"
       class="st1"
       width="257"
       height="23.3"
       id="rect8" /><polygon
       class="st2"
       points="127.9,106.2 132,113 136.1,106.2  "
       id="polygon10" /><rect
       class="st3"
       width="258"
       height="23.3"
       id="rect12" /><line
       class="st4"
       x1="132"
       y1="82"
       x2="399.5"
       y2="82"
       id="line14" /><line
       class="st4"
       x1="701.8"
       y1="82"
       x2="701.8"
       y2="105"
       id="line16" /><line
       class="st4"
       x1="132"
       y1="82.2"
       x2="132"
       y2="105.2"
       id="line18" /><polygon
       class="st2"
       points="426.9,105.7 431,112.5 435.1,105.7  "
       id="polygon20" /><line
       class="st4"
       x1="431"
       y1="81.8"
       x2="431"
       y2="104.8"
       id="line22" /><line
       class="st4"
       x1="399.2"
       y1="81.5"
       x2="399.2"
       y2="104.5"
       id="line24" /><line
       class="st4"
       x1="431"
       y1="82"
       x2="702.2"
       y2="82"
       id="line26" /><path
       class="st1"
       d="M181.8,145.1c-2.4,0-4.8,0.2-7.1,0.7c-17.1-21.7-48.6-25.4-70.3-8.3c-5,4-9.3,8.9-12.5,14.4   c-2.4-0.5-4.9-0.7-7.3-0.7c-21.5,0-38.9,17.9-38.9,40c0,21,15.8,38.3,35.8,39.9l100.1,0.1h0.2c22,0,39.7-19.3,39.7-43.1   S203.8,145.1,181.8,145.1z"
       id="path28" /><path
       class="st5"
       d="M181.8,145.1c-2.4,0-4.8,0.2-7.1,0.7c-17.1-21.7-48.6-25.4-70.3-8.3c-5,4-9.3,8.9-12.5,14.4   c-2.4-0.5-4.9-0.7-7.3-0.7c-21.5,0-38.9,17.9-38.9,40c0,21,15.8,38.3,35.8,39.9l100.1,0.1h0.2c22,0,39.7-19.3,39.7-43.1   S203.8,145.1,181.8,145.1z"
       id="path30" /><path
       class="st5"
       d="M750.5,145.1c-2.4,0-4.8,0.2-7.1,0.7c-17.1-21.7-48.6-25.4-70.3-8.3c-5,4-9.3,8.9-12.5,14.4   c-2.4-0.5-4.9-0.7-7.3-0.7c-21.5,0-39,17.9-39,40c0,21,15.8,38.3,35.8,39.9l100.1,0.1h0.2c22,0,39.7-19.3,39.7-43.1   S772.4,145.1,750.5,145.1z"
       id="path32" /><rect
       x="352.8"
       y="126"
       class="st6"
       width="124.5"
       height="90.7"
       id="rect34" /><rect
       x="361.9"
       y="137.3"
       class="st7"
       width="106.2"
       height="77.4"
       id="rect36" /><path
       class="st7"
       d="M470.3,216.9H359.7v-81.8h110.6V216.9z M364.1,212.5h101.8v-73H364.1V212.5z"
       id="path38" /><rect
       x="342.6"
       y="216.3"
       class="st6"
       width="144.8"
       height="22.9"
       id="rect40" /><path
       class="st8"
       d="M389.9,221h50.2c2.3,0,4.2,1.9,4.2,4.2v1.3c0,2.3-1.9,4.2-4.2,4.2h-50.2c-2.3,0-4.2-1.9-4.2-4.2v-1.3   C385.7,222.9,387.6,221,389.9,221z"
       id="path42" /><rect
       x="672.7"
       y="173.3"
       class="st9"
       width="63.5"
       height="33.9"
       id="rect44" /><line
       class="st10"
       x1="676.3"
       y1="170.1"
       x2="732.5"
       y2="170.1"
       id="line46" /><rect
       x="682"
       y="165"
       class="st11"
       width="44.7"
       height="5"
       id="rect48" /><polygon
       class="st12"
       points="711.7,190.2 699,190.2 699,188.1 696.9,188.1 696.9,192.3 713.8,192.3 713.8,188.1 711.7,188.1  "
       id="polygon50" /><rect
       x="101.9"
       y="173.3"
       class="st9"
       width="63.5"
       height="33.9"
       id="rect52" /><line
       class="st10"
       x1="105.5"
       y1="170.1"
       x2="161.7"
       y2="170.1"
       id="line54" /><rect
       x="111.2"
       y="165"
       class="st11"
       width="44.7"
       height="5"
       id="rect56" /><polygon
       class="st12"
       points="140.9,190.4 128.2,190 128.3,187.9 126.1,187.8 126,192.1 142.9,192.5 143.1,188.3 140.9,188.2  "
       id="polygon58" /></g><g
     id="Layer_2"><text
       transform="translate(47.1299,43.9297)"
       class="st13 st14"
       id="text61"
       style="font-size:14px;font-family:IBMPlexSans" />
<text
       transform="translate(55.4702,43.9297)"
       class="st13 st14"
       id="text63"
       style="font-size:14px;font-family:IBMPlexSans" />
<text
       transform="translate(64.1099,43.9297)"
       class="st13 st14"
       id="text65"
       style="font-size:14px;font-family:IBMPlexSans" />
<text
       transform="translate(70.8701,43.9297)"
       class="st13 st14"
       id="text67"
       style="font-size:14px;font-family:IBMPlexSans" />
<text
       transform="translate(78.3501,43.9297)"
       class="st13 st14"
       id="text69"
       style="font-size:14px;font-family:IBMPlexSans" />
<text
       transform="translate(83.21,43.9297)"
       class="st13 st14"
       id="text71"
       style="font-size:14px;font-family:IBMPlexSans">Registro IBM Cloud privato </text>
<text
       transform="translate(163.3301,43.9297)"
       class="st13 st14"
       id="text73"
       style="font-size:14px;font-family:IBMPlexSans" />
<text
       transform="translate(168.3999,43.9297)"
       class="st13 st14"
       id="text75"
       style="font-size:14px;font-family:IBMPlexSans" />
<text
       transform="translate(186.9702,43.9297)"
       class="st13 st14"
       id="text77"
       style="font-size:14px;font-family:IBMPlexSans" />
<text
       transform="translate(193.6899,43.9297)"
       class="st13 st14"
       id="text79"
       style="font-size:14px;font-family:IBMPlexSans" />
<text
       transform="translate(198.6099,43.9297)"
       class="st13 st14"
       id="text81"
       style="font-size:14px;font-family:IBMPlexSans" />
<text
       transform="translate(203.8901,43.9297)"
       class="st13 st14"
       id="text83"
       style="font-size:14px;font-family:IBMPlexSans" />
<g
       id="g95"><defs
         id="defs86"><rect
           id="SVGID_1_"
           x="352.7"
           y="34.2"
           width="7.9"
           height="9.8" /></defs><clipPath
         id="SVGID_2_"><use
           xlink:href="#SVGID_1_"
           style="overflow:visible;"
           id="use88" /></clipPath><g
         class="st15"
         clip-path="url(#SVGID_2_)"
         id="g93"><text
           transform="translate(352.5601,43.9297)"
           class="st13 st14"
           id="text91"
           style="font-size:14px;font-family:IBMPlexSans" />
</g></g><text
       class="st13 st14"
       id="text97"
       style="font-size:14px;font-family:IBMPlexSans"
       x="348.16019"
       y="43.929699">Il tuo computer locale</text>
<text
       transform="translate(417.6699,43.9297)"
       class="st13 st14"
       id="text99"
       style="font-size:14px;font-family:IBMPlexSans" />
<text
       transform="translate(424.6299,43.9297)"
       class="st13 st14"
       id="text101"
       style="font-size:14px;font-family:IBMPlexSans" />
<text
       transform="translate(460.7598,43.9297)"
       class="st13 st14"
       id="text103"
       style="font-size:14px;font-family:IBMPlexSans" />
<text
       transform="translate(465.6201,43.9297)"
       class="st13 st14"
       id="text105"
       style="font-size:14px;font-family:IBMPlexSans" />
<text
       transform="translate(585.0601,43.9297)"
       class="st13 st14"
       id="text107"
       style="font-size:14px;font-family:IBMPlexSans" />
<text
       transform="translate(594.0298,43.9297)"
       class="st13 st14"
       id="text109"
       style="font-size:14px;font-family:IBMPlexSans" />
<text
       class="st13 st14"
       id="text111"
       style="font-size:14px;font-family:IBMPlexSans"
       x="549.87012"
       y="43.929699">Ogni altro repository privato o pubblico</text>
<text
       transform="translate(723.8799,43.9297)"
       class="st13 st14"
       id="text113"
       style="font-size:14px;font-family:IBMPlexSans" />
<text
       transform="translate(730.6401,43.9297)"
       class="st13 st14"
       id="text115"
       style="font-size:14px;font-family:IBMPlexSans" />
<text
       transform="translate(738.1201,43.9297)"
       class="st13 st14"
       id="text117"
       style="font-size:14px;font-family:IBMPlexSans" />
<text
       transform="translate(742.98,43.9297)"
       class="st13 st14"
       id="text119"
       style="font-size:14px;font-family:IBMPlexSans"> </text>
<text
       transform="translate(753.9697,43.9297)"
       class="st13 st14"
       id="text121"
       style="font-size:14px;font-family:IBMPlexSans" />
<text
       transform="translate(759.04,43.9297)"
       class="st13 st14"
       id="text123"
       style="font-size:14px;font-family:IBMPlexSans" />
<text
       transform="translate(793,43.9297)"
       class="st13 st14"
       id="text125"
       style="font-size:14px;font-family:IBMPlexSans" />
<text
       transform="translate(797.8599,43.9297)"
       class="st13 st14"
       id="text127"
       style="font-size:14px;font-family:IBMPlexSans" />
<text
       transform="translate(805.7002,43.9297)"
       class="st13 st14"
       id="text129"
       style="font-size:14px;font-family:IBMPlexSans" />
<text
       transform="translate(810.98,43.9297)"
       class="st13 st14"
       id="text131"
       style="font-size:14px;font-family:IBMPlexSans" />
</g></svg>
