<?xml version="1.0" encoding="utf-8"?>
<!-- Generator: Adobe Illustrator 22.1.0, SVG Export Plug-In . SVG Version: 6.00 Build 0)  -->
<svg version="1.1" id="Ebene_1" xmlns="http://www.w3.org/2000/svg" xmlns:xlink="http://www.w3.org/1999/xlink" x="0px" y="0px"
	 viewBox="0 0 831 257" style="enable-background:new 0 0 831 257;" xml:space="preserve">
<style type="text/css">
	.st0{fill:#6AA4D9;}
	.st1{fill:#87C3EB;}
	.st2{fill:#394B54;}
	.st3{fill:#4278BD;}
	.st4{fill:none;stroke:#394B54;stroke-miterlimit:10;}
	.st5{fill:none;stroke:#152935;stroke-width:11;stroke-miterlimit:10;}
	.st6{fill:#060707;}
	.st7{fill:#FFFFFF;}
	.st8{fill:#8C9BA5;}
	.st9{fill:none;stroke:#152935;stroke-width:3;stroke-miterlimit:10;}
	.st10{fill:none;stroke:#152935;stroke-width:6;stroke-miterlimit:10;}
	.st11{fill:none;stroke:#152935;stroke-width:2;stroke-miterlimit:10;}
	.st12{fill:#152935;}
	.st13{enable-background:new    ;}
	.st14{font-family:'IBMPlexSans';}
	.st15{font-size:14px;}
</style>
<g id="Layer_1">
	<title>images_copy</title>
	<rect x="257" class="st0" width="317" height="23.3"/>
	<rect x="574" class="st1" width="257" height="23.3"/>
	<polygon class="st2" points="127.9,106.2 132,113 136.1,106.2 	"/>
	<rect class="st3" width="258" height="23.3"/>
	<line class="st4" x1="132" y1="82" x2="399.5" y2="82"/>
	<line class="st4" x1="701.8" y1="82" x2="701.8" y2="105"/>
	<line class="st4" x1="132" y1="82.2" x2="132" y2="105.2"/>
	<polygon class="st2" points="426.9,105.7 431,112.5 435.1,105.7 	"/>
	<line class="st4" x1="431" y1="81.8" x2="431" y2="104.8"/>
	<line class="st4" x1="399.2" y1="81.5" x2="399.2" y2="104.5"/>
	<line class="st4" x1="431" y1="82" x2="702.2" y2="82"/>
	<path class="st1" d="M181.8,145.1c-2.4,0-4.8,0.2-7.1,0.7c-17.1-21.7-48.6-25.4-70.3-8.3c-5,4-9.3,8.9-12.5,14.4
		c-2.4-0.5-4.9-0.7-7.3-0.7c-21.5,0-38.9,17.9-38.9,40c0,21,15.8,38.3,35.8,39.9l100.1,0.1h0.2c22,0,39.7-19.3,39.7-43.1
		S203.8,145.1,181.8,145.1z"/>
	<path class="st5" d="M181.8,145.1c-2.4,0-4.8,0.2-7.1,0.7c-17.1-21.7-48.6-25.4-70.3-8.3c-5,4-9.3,8.9-12.5,14.4
		c-2.4-0.5-4.9-0.7-7.3-0.7c-21.5,0-38.9,17.9-38.9,40c0,21,15.8,38.3,35.8,39.9l100.1,0.1h0.2c22,0,39.7-19.3,39.7-43.1
		S203.8,145.1,181.8,145.1z"/>
	<path class="st5" d="M750.5,145.1c-2.4,0-4.8,0.2-7.1,0.7c-17.1-21.7-48.6-25.4-70.3-8.3c-5,4-9.3,8.9-12.5,14.4
		c-2.4-0.5-4.9-0.7-7.3-0.7c-21.5,0-39,17.9-39,40c0,21,15.8,38.3,35.8,39.9l100.1,0.1h0.2c22,0,39.7-19.3,39.7-43.1
		S772.4,145.1,750.5,145.1z"/>
	<rect x="352.8" y="126" class="st6" width="124.5" height="90.7"/>
	<rect x="361.9" y="137.3" class="st7" width="106.2" height="77.4"/>
	<path class="st7" d="M470.3,216.9H359.7v-81.8h110.6L470.3,216.9L470.3,216.9z M364.1,212.5h101.8v-73H364.1V212.5z"/>
	<rect x="342.6" y="216.3" class="st6" width="144.8" height="22.9"/>
	<path class="st8" d="M389.9,221h50.2c2.3,0,4.2,1.9,4.2,4.2v1.3c0,2.3-1.9,4.2-4.2,4.2h-50.2c-2.3,0-4.2-1.9-4.2-4.2v-1.3
		C385.7,222.9,387.6,221,389.9,221z"/>
	<rect x="672.7" y="173.3" class="st9" width="63.5" height="33.9"/>
	<line class="st10" x1="676.3" y1="170.1" x2="732.5" y2="170.1"/>
	<rect x="682" y="165" class="st11" width="44.7" height="5"/>
	<polygon class="st12" points="711.7,190.2 699,190.2 699,188.1 696.9,188.1 696.9,192.3 713.8,192.3 713.8,188.1 711.7,188.1 	"/>
	<rect x="101.9" y="173.3" class="st9" width="63.5" height="33.9"/>
	<line class="st10" x1="105.5" y1="170.1" x2="161.7" y2="170.1"/>
	<rect x="111.2" y="165" class="st11" width="44.7" height="5"/>
	<polygon class="st12" points="140.9,190.4 128.2,190 128.3,187.9 126.1,187.8 126,192.1 142.9,192.5 143.1,188.3 140.9,188.2 	"/>
</g>
<g id="Layer_2">
	<text id="XMLID_36_" transform="matrix(1 0 0 1 639.722 46.4102)" class="st13"><tspan x="0" y="0" class="st14 st15">Anderes öffentliches </tspan><tspan x="-10.2" y="16.8" class="st14 st15">oder privates Repository</tspan></text>
	<text id="XMLID_301_" transform="matrix(1 0 0 1 52.1291 44.9268)" class="st14 st15">Private IBM Cloud-Registry</text>
	<text id="XMLID_300_" transform="matrix(1 0 0 1 357.557 44.9265)" class="st14 st15">Ihr lokaler Computer</text>
</g>
</svg>
