<?xml version="1.0" encoding="UTF-8" standalone="no"?>
<svg
   xmlns:dc="http://purl.org/dc/elements/1.1/"
   xmlns:cc="http://creativecommons.org/ns#"
   xmlns:rdf="http://www.w3.org/1999/02/22-rdf-syntax-ns#"
   xmlns:svg="http://www.w3.org/2000/svg"
   xmlns="http://www.w3.org/2000/svg"
   xmlns:sodipodi="http://sodipodi.sourceforge.net/DTD/sodipodi-0.dtd"
   xmlns:inkscape="http://www.inkscape.org/namespaces/inkscape"
   id="8a2151fb-88ef-457d-b7ec-bfa7f1e3e656"
   data-name="Layer 1"
   viewBox="0 0 831 257"
   version="1.1"
   sodipodi:docname="images_copy.svg"
   inkscape:version="0.92.3 (2405546, 2018-03-11)">
  <metadata
     id="metadata114">
    <rdf:RDF>
      <cc:Work
         rdf:about="">
        <dc:format>image/svg+xml</dc:format>
        <dc:type
           rdf:resource="http://purl.org/dc/dcmitype/StillImage" />
      </cc:Work>
    </rdf:RDF>
  </metadata>
  <defs
     id="defs112" />
  <sodipodi:namedview
     pagecolor="#ffffff"
     bordercolor="#666666"
     borderopacity="1"
     objecttolerance="10"
     gridtolerance="10"
     guidetolerance="10"
     inkscape:pageopacity="0"
     inkscape:pageshadow="2"
     inkscape:window-width="1680"
     inkscape:window-height="971"
     id="namedview110"
     showgrid="false"
     inkscape:snap-midpoints="true"
     inkscape:zoom="1.3050131"
     inkscape:cx="527.50743"
     inkscape:cy="161.42041"
     inkscape:window-x="-9"
     inkscape:window-y="51"
     inkscape:window-maximized="1"
     inkscape:current-layer="8a2151fb-88ef-457d-b7ec-bfa7f1e3e656" />
  <title
     id="title2">images_copy</title>
  <path
     id="ce3f00cc-62b2-43ff-97de-39f90dd8ffae"
     data-name="&lt;Path&gt;"
     d="M257,0H574V23.3H257Z"
     fill="#6aa4d9" />
  <path
     id="148a5eb6-df88-4f33-b362-d3d8ce114c44"
     data-name="&lt;Path&gt;"
     d="M574,0H831V23.3H574Z"
     fill="#87c3eb" />
  <g
     id="10fb2a08-3ee6-4061-96fb-31503b7362b3"
     data-name="&lt;Group&gt;">
    <path
       id="d03ee414-6941-420c-8859-22e16f18125c"
       data-name="&lt;Path&gt;"
       d="M127.94,106.2,132,113l4.06-6.8Z"
       fill="#394b54" />
  </g>
  <path
     id="525b2ac2-ea9d-4fbc-81b4-7cdf198de918"
     data-name="&lt;Path&gt;"
     d="M0,0H258V23.3H0Z"
     fill="#4278bd" />
  <path
     id="fdf0b69f-7cd4-4857-b183-b2c9fd283bb3"
     data-name="&lt;Path&gt;"
     d="M132,82H399.5"
     fill="none"
     stroke="#394b54"
     stroke-miterlimit="10" />
  <path
     id="725f6b61-84ed-46aa-8879-94041a5dc3b2"
     data-name="&lt;Path&gt;"
     d="M701.75,82v23"
     fill="none"
     stroke="#394b54"
     stroke-miterlimit="10" />
  <path
     id="f14214fe-9ec7-4377-b205-8f4ce22a05f0"
     data-name="&lt;Path&gt;"
     d="M132,82.25v23"
     fill="none"
     stroke="#394b54"
     stroke-miterlimit="10" />
  <g
     id="0d3a2756-a2a9-4c79-85d8-608b49695707"
     data-name="&lt;Group&gt;">
    <path
       id="a1c9d864-a7e8-4305-96a8-5d2074e5e43d"
       data-name="&lt;Path&gt;"
       d="M426.94,105.7l4.06,6.8,4.06-6.8Z"
       fill="#394b54" />
  </g>
  <path
     id="cc7e49e3-3eba-454e-856d-6a9389a1ceba"
     data-name="&lt;Path&gt;"
     d="M431,81.75v23"
     fill="none"
     stroke="#394b54"
     stroke-miterlimit="10" />
  <path
     id="a572a3a7-b452-42dc-a0eb-e07307168d5e"
     data-name="&lt;Path&gt;"
     d="M399.25,81.5v23"
     fill="none"
     stroke="#394b54"
     stroke-miterlimit="10" />
  <path
     id="832a1625-3329-4785-8f1f-f75e9f3d0886"
     data-name="&lt;Path&gt;"
     d="M431,82H702.25"
     fill="none"
     stroke="#394b54"
     stroke-miterlimit="10" />
  <rect
     x="399.5"
     y="71.5"
     width="15.5"
     height="19.5"
     fill="none"
     id="rect57" />
  <path
     id="e99522dd-adef-4ce5-907d-8d91b47a08df"
     data-name="&lt;Path&gt;"
     d="M181.82,145.08a36.89,36.89,0,0,0-7.09.68,50.09,50.09,0,0,0-82.8,6.12,37.83,37.83,0,0,0-7.34-.72c-21.52,0-38.95,17.93-38.95,40.05,0,21,15.77,38.28,35.83,39.91l100.13.13h.22c22,0,39.74-19.29,39.74-43.09S203.77,145.08,181.82,145.08Z"
     fill="#87c3eb"
     stroke="#152935"
     stroke-miterlimit="10"
     stroke-width="11" />
  <path
     id="74fb0e0b-4e9a-4824-966c-126e2122dded"
     data-name="&lt;Path&gt;"
     d="M750.47,145.08a36.89,36.89,0,0,0-7.09.68,50.09,50.09,0,0,0-82.8,6.12,37.83,37.83,0,0,0-7.34-.72c-21.52,0-39,17.93-39,40.05,0,21,15.77,38.28,35.83,39.91l100.13.13h.22c21.95,0,39.74-19.29,39.74-43.09S772.42,145.08,750.47,145.08Z"
     fill="none"
     stroke="#152935"
     stroke-miterlimit="10"
     stroke-width="11" />
  <rect
     id="ddb78052-7939-4cde-86aa-aba469e38c3c"
     data-name="&lt;Rectangle&gt;"
     x="352.77"
     y="126"
     width="124.47"
     height="90.67"
     fill="#060707" />
  <g
     id="27dd9f5f-0f34-410a-9cf2-659aefd6a2b5"
     data-name="&lt;Group&gt;">
    <rect
       id="51b79e7b-4bcb-450f-984a-f5ca3bdec73d"
       data-name="&lt;Rectangle&gt;"
       x="361.89"
       y="137.31"
       width="106.23"
       height="77.38"
       fill="#fff" />
    <path
       id="c087a8f1-5c69-46b5-bd51-f99d212f1f93"
       data-name="&lt;Compound Path&gt;"
       d="M470.3,216.88H359.7V135.12H470.3ZM364.08,212.5H465.92v-73H364.08Z"
       fill="#fff" />
  </g>
  <rect
     id="b63eb18c-b563-4bb9-aa60-2655b87aa2d9"
     data-name="&lt;Rectangle&gt;"
     x="342.62"
     y="216.34"
     width="144.76"
     height="22.89"
     fill="#060707" />
  <rect
     id="f69ebd71-33c6-4c84-9b71-528ee9676ebb"
     data-name="&lt;Rectangle&gt;"
     x="385.72"
     y="221.01"
     width="58.56"
     height="9.66"
     rx="4.18"
     ry="4.18"
     fill="#8c9ba5" />
  <rect
     x="672.66"
     y="173.26"
     width="63.48"
     height="33.86"
     fill="none"
     stroke="#152935"
     stroke-miterlimit="10"
     stroke-width="3"
     id="rect67" />
  <line
     x1="676.32"
     y1="170.09"
     x2="732.49"
     y2="170.09"
     fill="none"
     stroke="#152935"
     stroke-miterlimit="10"
     stroke-width="6"
     id="line69" />
  <rect
     x="682.05"
     y="165.05"
     width="44.71"
     height="5.03"
     fill="none"
     stroke="#152935"
     stroke-miterlimit="10"
     stroke-width="2"
     id="rect71" />
  <path
     d="M711.7,190.19H699v-2.12h-2.12v4.24h16.93v-4.24H711.7Z"
     fill="#152935"
     id="path73" />
  <rect
     x="101.86"
     y="173.26"
     width="63.48"
     height="33.86"
     fill="none"
     stroke="#152935"
     stroke-miterlimit="10"
     stroke-width="3"
     id="rect75" />
  <line
     x1="105.51"
     y1="170.09"
     x2="161.69"
     y2="170.09"
     fill="none"
     stroke="#152935"
     stroke-miterlimit="10"
     stroke-width="6"
     id="line77" />
  <rect
     x="111.25"
     y="165.05"
     width="44.71"
     height="5.03"
     fill="none"
     stroke="#152935"
     stroke-miterlimit="10"
     stroke-width="2"
     id="rect79" />
  <path
     d="M140.89,190.19H128.2v-2.12h-2.12v4.24H143v-4.24h-2.12Z"
     fill="#152935"
     id="path81" />
  <text
     xml:space="preserve"
     style="font-style:normal;font-weight:normal;font-size:18.66666603px;line-height:1.25;font-family:sans-serif;letter-spacing:0px;word-spacing:0px;fill:#000000;fill-opacity:1;stroke:none"
     x="48.473938"
     y="44.235729"
     id="text118"><tspan
       sodipodi:role="line"
       id="tspan116"
       x="48.473938"
       y="44.235729"
       style="font-size:13.33333302px">Registre IBM Cloud privé</tspan></text>
  <text
     xml:space="preserve"
     style="font-style:normal;font-weight:normal;font-size:18.66666603px;line-height:1.25;font-family:sans-serif;letter-spacing:0px;word-spacing:0px;fill:#000000;fill-opacity:1;stroke:none"
     x="342.31827"
     y="42.534557"
     id="text122"><tspan
       sodipodi:role="line"
       id="tspan120"
       x="342.31827"
       y="42.534557"
       style="font-size:13.33333302px">Votre ordinateur local</tspan></text>
  <text
     xml:space="preserve"
     style="font-style:normal;font-weight:normal;font-size:18.66666603px;line-height:1.25;font-family:sans-serif;letter-spacing:0px;word-spacing:0px;fill:#000000;fill-opacity:1;stroke:none"
     x="578.25439"
     y="42.741589"
     id="text126"><tspan
       sodipodi:role="line"
       id="tspan124"
       x="578.25439"
       y="42.741589"
       style="font-size:13.33333302px">Tout autre référentiel privé ou public</tspan></text>
</svg>
