<?xml version="1.0" encoding="UTF-8" standalone="no"?>
<!-- Generator: Adobe Illustrator 22.0.0, SVG Export Plug-In . SVG Version: 6.00 Build 0)  -->

<svg
   xmlns:dc="http://purl.org/dc/elements/1.1/"
   xmlns:cc="http://creativecommons.org/ns#"
   xmlns:rdf="http://www.w3.org/1999/02/22-rdf-syntax-ns#"
   xmlns:svg="http://www.w3.org/2000/svg"
   xmlns="http://www.w3.org/2000/svg"
   xmlns:sodipodi="http://sodipodi.sourceforge.net/DTD/sodipodi-0.dtd"
   xmlns:inkscape="http://www.inkscape.org/namespaces/inkscape"
   version="1.1"
   x="0px"
   y="0px"
   viewBox="0 0 831 257"
   style="enable-background:new 0 0 831 257;"
   xml:space="preserve"
   id="svg2"
   inkscape:version="0.91 r13725"
   sodipodi:docname="images_copy.svg"><metadata
   id="metadata140"><rdf:RDF><cc:Work
       rdf:about=""><dc:format>image/svg+xml</dc:format><dc:type
         rdf:resource="http://purl.org/dc/dcmitype/StillImage" /></cc:Work></rdf:RDF></metadata><defs
   id="defs138">
	
	
	
	
	
	
	
	
	
	
	
	
	
	
	
	
	
	
	
	
	
	
	
	
	
	
	
	
	
	
	
</defs><sodipodi:namedview
   pagecolor="#ffffff"
   bordercolor="#666666"
   borderopacity="1"
   objecttolerance="10"
   gridtolerance="10"
   guidetolerance="10"
   inkscape:pageopacity="0"
   inkscape:pageshadow="2"
   inkscape:window-width="1920"
   inkscape:window-height="1020"
   id="namedview136"
   showgrid="false"
   inkscape:zoom="0.83754513"
   inkscape:cx="443.65355"
   inkscape:cy="139.71232"
   inkscape:window-x="-4"
   inkscape:window-y="-4"
   inkscape:window-maximized="1"
   inkscape:current-layer="svg2" />
<style
   type="text/css"
   id="style4">
	.st0{fill:#6AA4D9;}
	.st1{fill:#87C3EB;}
	.st2{fill:#394B54;}
	.st3{fill:#4278BD;}
	.st4{fill:none;stroke:#394B54;stroke-miterlimit:10;}
	.st5{fill:none;stroke:#152935;stroke-width:11;stroke-miterlimit:10;}
	.st6{fill:#060707;}
	.st7{fill:#FFFFFF;}
	.st8{fill:#8C9BA5;}
	.st9{fill:none;stroke:#152935;stroke-width:3;stroke-miterlimit:10;}
	.st10{fill:none;stroke:#152935;stroke-width:6;stroke-miterlimit:10;}
	.st11{fill:none;stroke:#152935;stroke-width:2;stroke-miterlimit:10;}
	.st12{fill:#152935;}
	.st13{font-family:'IBMPlexSans';}
	.st14{font-size:14px;}
	.st15{clip-path:url(#SVGID_2_);}
</style>
<g
   id="Layer_1">
	<title
   id="title7">images_copy</title>
	<rect
   x="257"
   class="st0"
   width="317"
   height="23.3"
   id="rect9" />
	<rect
   x="574"
   class="st1"
   width="257"
   height="23.3"
   id="rect11" />
	<polygon
   class="st2"
   points="127.9,106.2 132,113 136.1,106.2  "
   id="polygon13" />
	<rect
   class="st3"
   width="258"
   height="23.3"
   id="rect15" />
	<line
   class="st4"
   x1="132"
   y1="82"
   x2="399.5"
   y2="82"
   id="line17" />
	<line
   class="st4"
   x1="701.8"
   y1="82"
   x2="701.8"
   y2="105"
   id="line19" />
	<line
   class="st4"
   x1="132"
   y1="82.2"
   x2="132"
   y2="105.2"
   id="line21" />
	<polygon
   class="st2"
   points="426.9,105.7 431,112.5 435.1,105.7  "
   id="polygon23" />
	<line
   class="st4"
   x1="431"
   y1="81.8"
   x2="431"
   y2="104.8"
   id="line25" />
	<line
   class="st4"
   x1="399.2"
   y1="81.5"
   x2="399.2"
   y2="104.5"
   id="line27" />
	<line
   class="st4"
   x1="431"
   y1="82"
   x2="702.2"
   y2="82"
   id="line29" />
	<path
   class="st1"
   d="M181.8,145.1c-2.4,0-4.8,0.2-7.1,0.7c-17.1-21.7-48.6-25.4-70.3-8.3c-5,4-9.3,8.9-12.5,14.4   c-2.4-0.5-4.9-0.7-7.3-0.7c-21.5,0-38.9,17.9-38.9,40c0,21,15.8,38.3,35.8,39.9l100.1,0.1h0.2c22,0,39.7-19.3,39.7-43.1   S203.8,145.1,181.8,145.1z"
   id="path31" />
	<path
   class="st5"
   d="M181.8,145.1c-2.4,0-4.8,0.2-7.1,0.7c-17.1-21.7-48.6-25.4-70.3-8.3c-5,4-9.3,8.9-12.5,14.4   c-2.4-0.5-4.9-0.7-7.3-0.7c-21.5,0-38.9,17.9-38.9,40c0,21,15.8,38.3,35.8,39.9l100.1,0.1h0.2c22,0,39.7-19.3,39.7-43.1   S203.8,145.1,181.8,145.1z"
   id="path33" />
	<path
   class="st5"
   d="M750.5,145.1c-2.4,0-4.8,0.2-7.1,0.7c-17.1-21.7-48.6-25.4-70.3-8.3c-5,4-9.3,8.9-12.5,14.4   c-2.4-0.5-4.9-0.7-7.3-0.7c-21.5,0-39,17.9-39,40c0,21,15.8,38.3,35.8,39.9l100.1,0.1h0.2c22,0,39.7-19.3,39.7-43.1   S772.4,145.1,750.5,145.1z"
   id="path35" />
	<rect
   x="352.8"
   y="126"
   class="st6"
   width="124.5"
   height="90.7"
   id="rect37" />
	<rect
   x="361.9"
   y="137.3"
   class="st7"
   width="106.2"
   height="77.4"
   id="rect39" />
	<path
   class="st7"
   d="M470.3,216.9H359.7v-81.8h110.6V216.9z M364.1,212.5h101.8v-73H364.1V212.5z"
   id="path41" />
	<rect
   x="342.6"
   y="216.3"
   class="st6"
   width="144.8"
   height="22.9"
   id="rect43" />
	<path
   class="st8"
   d="M389.9,221h50.2c2.3,0,4.2,1.9,4.2,4.2v1.3c0,2.3-1.9,4.2-4.2,4.2h-50.2c-2.3,0-4.2-1.9-4.2-4.2v-1.3   C385.7,222.9,387.6,221,389.9,221z"
   id="path45" />
	<rect
   x="672.7"
   y="173.3"
   class="st9"
   width="63.5"
   height="33.9"
   id="rect47" />
	<line
   class="st10"
   x1="676.3"
   y1="170.1"
   x2="732.5"
   y2="170.1"
   id="line49" />
	<rect
   x="682"
   y="165"
   class="st11"
   width="44.7"
   height="5"
   id="rect51" />
	<polygon
   class="st12"
   points="711.7,190.2 699,190.2 699,188.1 696.9,188.1 696.9,192.3 713.8,192.3 713.8,188.1 711.7,188.1  "
   id="polygon53" />
	<rect
   x="101.9"
   y="173.3"
   class="st9"
   width="63.5"
   height="33.9"
   id="rect55" />
	<line
   class="st10"
   x1="105.5"
   y1="170.1"
   x2="161.7"
   y2="170.1"
   id="line57" />
	<rect
   x="111.2"
   y="165"
   class="st11"
   width="44.7"
   height="5"
   id="rect59" />
	<polygon
   class="st12"
   points="140.9,190.4 128.2,190 128.3,187.9 126.1,187.8 126,192.1 142.9,192.5 143.1,188.3 140.9,188.2  "
   id="polygon61" />
</g>
<text
   style="font-size:14px;font-family:IBMPlexSans"
   id="text64"
   class="st13 st14"
   x="47.129902"
   y="43.929699">Registre IBM Cloud privé </text>
<text
   style="font-size:14px;font-family:IBMPlexSans"
   id="text66"
   class="st13 st14"
   x="55.4702"
   y="43.929699" />
<text
   style="font-size:14px;font-family:IBMPlexSans"
   id="text68"
   class="st13 st14"
   x="64.109901"
   y="43.929699" />
<text
   style="font-size:14px;font-family:IBMPlexSans"
   id="text70"
   class="st13 st14"
   x="70.870102"
   y="43.929699" />
<text
   style="font-size:14px;font-family:IBMPlexSans"
   id="text72"
   class="st13 st14"
   x="78.350098"
   y="43.929699" />
<text
   style="font-size:14px;font-family:IBMPlexSans"
   id="text74"
   class="st13 st14"
   x="83.209999"
   y="43.929699"> </text>
<text
   style="font-size:14px;font-family:IBMPlexSans"
   id="text76"
   class="st13 st14"
   x="163.33009"
   y="43.929699"> </text>
<text
   style="font-size:14px;font-family:IBMPlexSans"
   id="text78"
   class="st13 st14"
   x="168.3999"
   y="43.929699" />
<text
   style="font-size:14px;font-family:IBMPlexSans"
   id="text80"
   class="st13 st14"
   x="186.9702"
   y="43.929699"> </text>
<text
   style="font-size:14px;font-family:IBMPlexSans"
   id="text82"
   class="st13 st14"
   x="193.6899"
   y="43.929699"> </text>
<text
   style="font-size:14px;font-family:IBMPlexSans"
   id="text84"
   class="st13 st14"
   x="198.60989"
   y="43.929699"> </text>
<text
   style="font-size:14px;font-family:IBMPlexSans"
   id="text86"
   class="st13 st14"
   x="203.89011"
   y="43.929699"> </text>
<text
   style="font-size:14px;font-family:IBMPlexSans"
   id="text100"
   class="st13 st14"
   x="360.16019"
   y="43.929699"> </text>
<text
   style="font-size:14px;font-family:IBMPlexSans"
   id="text102"
   class="st13 st14"
   x="417.66989"
   y="43.929699" />
<text
   style="font-size:14px;font-family:IBMPlexSans"
   id="text104"
   class="st13 st14"
   x="424.62991"
   y="43.929699"> </text>
<text
   style="font-size:14px;font-family:IBMPlexSans"
   id="text106"
   class="st13 st14"
   x="460.7598"
   y="43.929699"> </text>
<text
   style="font-size:14px;font-family:IBMPlexSans"
   id="text108"
   class="st13 st14"
   x="465.62009"
   y="43.929699"> </text>
<text
   style="font-size:14px;font-family:IBMPlexSans"
   id="text110"
   class="st13 st14"
   x="585.06012"
   y="43.929699">Tout autre référentiel public ou privé </text>
<text
   style="font-size:14px;font-family:IBMPlexSans"
   id="text112"
   class="st13 st14"
   x="594.02979"
   y="43.929699"> </text>
<text
   style="font-size:14px;font-family:IBMPlexSans"
   id="text114"
   class="st13 st14"
   x="601.87012"
   y="43.929699"> </text>
<text
   style="font-size:14px;font-family:IBMPlexSans"
   id="text116"
   class="st13 st14"
   x="723.87988"
   y="43.929699"> </text>
<text
   style="font-size:14px;font-family:IBMPlexSans"
   id="text118"
   class="st13 st14"
   x="730.64008"
   y="43.929699"> </text>
<text
   style="font-size:14px;font-family:IBMPlexSans"
   id="text120"
   class="st13 st14"
   x="738.12012"
   y="43.929699"> </text>
<text
   style="font-size:14px;font-family:IBMPlexSans"
   id="text122"
   class="st13 st14"
   x="742.97998"
   y="43.929699"> </text>
<text
   style="font-size:14px;font-family:IBMPlexSans"
   id="text124"
   class="st13 st14"
   x="753.96973"
   y="43.929699"> </text>
<text
   style="font-size:14px;font-family:IBMPlexSans"
   id="text126"
   class="st13 st14"
   x="759.03998"
   y="43.929699"> </text>
<text
   style="font-size:14px;font-family:IBMPlexSans"
   id="text128"
   class="st13 st14"
   x="793"
   y="43.929699"> </text>
<text
   style="font-size:14px;font-family:IBMPlexSans"
   id="text130"
   class="st13 st14"
   x="797.85992"
   y="43.929699"> </text>
<text
   style="font-size:14px;font-family:IBMPlexSans"
   id="text132"
   class="st13 st14"
   x="805.7002"
   y="43.929699"> </text>
<text
   style="font-size:14px;font-family:IBMPlexSans"
   id="text134"
   class="st13 st14"
   x="810.97998"
   y="43.929699"> </text>

<text
   style="font-size:14px;font-family:IBMPlexSans"
   id="text110-3"
   class="st13 st14"
   x="349.6535"
   y="46.16507">Votre ordinateur local</text>
</svg>
