<svg width="1080" height="720" viewBox="0 0 1080 720" fill="none" xmlns="http://www.w3.org/2000/svg"> 
<rect width="1080" height="720" fill="#C4C4C4"/>
<rect width="1080" height="720" fill="#F4F4F4"/>
<rect x="433.5" y="288.5" width="560" height="192" fill="white"/>
<rect x="434" y="289" width="559" height="191" fill="#F6F2FF"/>
<g clip-path="url(#clip0_621_37904)">
<line x1="435" y1="288" x2="435" y2="336" stroke="#8A3FFC" stroke-width="4"/>
<rect width="20" height="20" transform="translate(449 302)" fill="white" style="mix-blend-mode:multiply"/>
<path d="M459.625 310.125V305.75H454V315.75H464V310.125H459.625ZM455.25 307H458.375V310.125H455.25V307ZM455.25 311.375H458.375V314.5H455.25V311.375ZM462.75 314.5H459.625V311.375H462.75V314.5Z" fill="black"/>
<path d="M466.5 308.875H460.875V303.25H466.5V308.875ZM462.125 307.625H465.25V304.5H462.125V307.625Z" fill="black"/>
<path d="M466.5 314.5H465.25V315.75H466.5V319.5H451.5V315.75H452.75V314.5H451.5C451.169 314.5 450.851 314.632 450.617 314.867C450.382 315.101 450.25 315.419 450.25 315.75V319.5C450.25 319.831 450.382 320.149 450.617 320.383C450.851 320.618 451.169 320.75 451.5 320.75H466.5C466.831 320.75 467.149 320.618 467.383 320.383C467.618 320.149 467.75 319.831 467.75 319.5V315.75C467.75 315.419 467.618 315.101 467.383 314.867C467.149 314.632 466.831 314.5 466.5 314.5Z" fill="black"/>
<path d="M453.375 318.25C453.72 318.25 454 317.97 454 317.625C454 317.28 453.72 317 453.375 317C453.03 317 452.75 317.28 452.75 317.625C452.75 317.97 453.03 318.25 453.375 318.25Z" fill="black"/>
<text fill="black" xml:space="preserve" style="white-space: pre" font-family="IBM Plex Sans" font-size="14" font-weight="600" letter-spacing="0.16px"><tspan x="485" y="317.25">IBM Cloud Container Registry and Vulnerability Advisor</tspan></text>
</g>
<rect x="433.5" y="288.5" width="560" height="192" stroke="#8A3FFC"/>
<rect width="48" height="48" transform="translate(481 392)" fill="#8A3FFC"/>
<rect x="481.5" y="392.5" width="47" height="47" fill="white" style="mix-blend-mode:multiply"/>
<rect x="481.5" y="392.5" width="47" height="47" stroke="#8A3FFC"/>
<rect x="484.5" y="395.5" width="41" height="41" fill="#8A3FFC" stroke="#8A3FFC"/>
<rect width="20" height="20" transform="translate(495 406)" fill="white" style="mix-blend-mode:multiply"/>
<path d="M511.25 419.75C510.809 419.752 510.376 419.875 510 420.106L508.069 418.169C508.518 417.535 508.759 416.777 508.759 416C508.759 415.223 508.518 414.465 508.069 413.831L510 411.894C510.376 412.125 510.809 412.248 511.25 412.25C511.744 412.25 512.228 412.103 512.639 411.829C513.05 411.554 513.37 411.164 513.56 410.707C513.749 410.25 513.798 409.747 513.702 409.262C513.606 408.777 513.367 408.332 513.018 407.982C512.668 407.633 512.223 407.395 511.738 407.298C511.253 407.202 510.75 407.251 510.293 407.44C509.836 407.63 509.446 407.95 509.171 408.361C508.897 408.772 508.75 409.256 508.75 409.75C508.752 410.191 508.875 410.624 509.106 411L507.169 412.931C506.535 412.482 505.777 412.241 505 412.241C504.223 412.241 503.465 412.482 502.831 412.931L500.894 411C501.125 410.624 501.248 410.191 501.25 409.75C501.25 409.256 501.103 408.772 500.829 408.361C500.554 407.95 500.164 407.63 499.707 407.44C499.25 407.251 498.747 407.202 498.262 407.298C497.777 407.395 497.332 407.633 496.982 407.982C496.633 408.332 496.395 408.777 496.298 409.262C496.202 409.747 496.251 410.25 496.44 410.707C496.63 411.164 496.95 411.554 497.361 411.829C497.772 412.103 498.256 412.25 498.75 412.25C499.191 412.248 499.624 412.125 500 411.894L501.931 413.831C501.482 414.465 501.241 415.223 501.241 416C501.241 416.777 501.482 417.535 501.931 418.169L500 420.106C499.624 419.875 499.191 419.752 498.75 419.75C498.256 419.75 497.772 419.897 497.361 420.171C496.95 420.446 496.63 420.836 496.44 421.293C496.251 421.75 496.202 422.253 496.298 422.738C496.395 423.223 496.633 423.668 496.982 424.018C497.332 424.367 497.777 424.606 498.262 424.702C498.747 424.798 499.25 424.749 499.707 424.56C500.164 424.37 500.554 424.05 500.829 423.639C501.103 423.228 501.25 422.744 501.25 422.25C501.248 421.809 501.125 421.376 500.894 421L502.831 419.069C503.465 419.518 504.223 419.759 505 419.759C505.777 419.759 506.535 419.518 507.169 419.069L509.106 421C508.875 421.376 508.752 421.809 508.75 422.25C508.75 422.744 508.897 423.228 509.171 423.639C509.446 424.05 509.836 424.37 510.293 424.56C510.75 424.749 511.253 424.798 511.738 424.702C512.223 424.606 512.668 424.367 513.018 424.018C513.367 423.668 513.606 423.223 513.702 422.738C513.798 422.253 513.749 421.75 513.56 421.293C513.37 420.836 513.05 420.446 512.639 420.171C512.228 419.897 511.744 419.75 511.25 419.75ZM511.25 408.5C511.497 408.5 511.739 408.573 511.944 408.711C512.15 408.848 512.31 409.043 512.405 409.272C512.499 409.5 512.524 409.751 512.476 409.994C512.428 410.236 512.309 410.459 512.134 410.634C511.959 410.809 511.736 410.928 511.494 410.976C511.251 411.024 511 410.999 510.772 410.905C510.543 410.81 510.348 410.65 510.211 410.444C510.073 410.239 510 409.997 510 409.75C510 409.418 510.132 409.101 510.366 408.866C510.601 408.632 510.918 408.5 511.25 408.5ZM497.5 409.75C497.5 409.503 497.573 409.261 497.711 409.056C497.848 408.85 498.043 408.69 498.272 408.595C498.5 408.501 498.751 408.476 498.994 408.524C499.236 408.572 499.459 408.691 499.634 408.866C499.809 409.041 499.928 409.264 499.976 409.506C500.024 409.749 499.999 410 499.905 410.228C499.81 410.457 499.65 410.652 499.444 410.789C499.239 410.927 498.997 411 498.75 411C498.418 411 498.101 410.868 497.866 410.634C497.632 410.399 497.5 410.082 497.5 409.75ZM498.75 423.5C498.503 423.5 498.261 423.427 498.056 423.289C497.85 423.152 497.69 422.957 497.595 422.728C497.501 422.5 497.476 422.249 497.524 422.006C497.572 421.764 497.691 421.541 497.866 421.366C498.041 421.191 498.264 421.072 498.506 421.024C498.749 420.976 499 421.001 499.228 421.095C499.457 421.19 499.652 421.35 499.789 421.556C499.927 421.761 500 422.003 500 422.25C500 422.582 499.868 422.899 499.634 423.134C499.399 423.368 499.082 423.5 498.75 423.5ZM505 418.5C504.506 418.5 504.022 418.353 503.611 418.079C503.2 417.804 502.88 417.414 502.69 416.957C502.501 416.5 502.452 415.997 502.548 415.512C502.645 415.027 502.883 414.582 503.232 414.232C503.582 413.883 504.027 413.645 504.512 413.548C504.997 413.452 505.5 413.501 505.957 413.69C506.414 413.88 506.804 414.2 507.079 414.611C507.353 415.022 507.5 415.506 507.5 416C507.5 416.663 507.237 417.299 506.768 417.768C506.299 418.237 505.663 418.5 505 418.5ZM511.25 423.5C511.003 423.5 510.761 423.427 510.556 423.289C510.35 423.152 510.19 422.957 510.095 422.728C510.001 422.5 509.976 422.249 510.024 422.006C510.072 421.764 510.191 421.541 510.366 421.366C510.541 421.191 510.764 421.072 511.006 421.024C511.249 420.976 511.5 421.001 511.728 421.095C511.957 421.19 512.152 421.35 512.289 421.556C512.427 421.761 512.5 422.003 512.5 422.25C512.5 422.582 512.368 422.899 512.134 423.134C511.899 423.368 511.582 423.5 511.25 423.5Z" fill="white"/>
<text fill="black" xml:space="preserve" style="white-space: pre" font-family="IBM Plex Sans" font-size="14" font-weight="600" letter-spacing="0.16px"><tspan x="537" y="420.25">API</tspan></text>
<rect x="799.5" y="336.5" width="169" height="119" fill="white"/>
<g clip-path="url(#clip1_621_37904)">
<text fill="black" xml:space="preserve" style="white-space: pre" font-family="IBM Plex Sans" font-size="14" font-weight="600" letter-spacing="0.16px"><tspan x="815" y="365.25">Private namespace</tspan></text>
</g>
<rect x="799.5" y="336.5" width="169" height="119" stroke="#8A3FFC"/>
<rect width="56" height="56" transform="translate(814 384)" fill="white" style="mix-blend-mode:multiply"/>
<path d="M870 384H814V440H870V384Z" fill="white" style="mix-blend-mode:multiply"/>
<path d="M818 388.5H865.5V436" stroke="#736F6F"/>
<path d="M822 384.5H869.5V432" stroke="#736F6F"/>
<rect x="814.5" y="392.5" width="47" height="47" fill="#F4F4F4"/>
<rect width="20" height="20" transform="translate(828 406)" fill="white" style="mix-blend-mode:multiply"/>
<path d="M830.5 418.5V419.75H833.366L829.25 423.866L830.134 424.75L834.25 420.634V423.5H835.5V418.5H830.5Z" fill="black"/>
<path d="M839.875 414.75C840.246 414.75 840.608 414.64 840.917 414.434C841.225 414.228 841.465 413.935 841.607 413.593C841.749 413.25 841.786 412.873 841.714 412.509C841.642 412.145 841.463 411.811 841.201 411.549C840.939 411.287 840.605 411.108 840.241 411.036C839.877 410.964 839.5 411.001 839.157 411.143C838.815 411.285 838.522 411.525 838.316 411.833C838.11 412.142 838 412.504 838 412.875C838 413.372 838.198 413.849 838.549 414.201C838.901 414.552 839.378 414.75 839.875 414.75ZM839.875 412.25C839.999 412.25 840.119 412.287 840.222 412.355C840.325 412.424 840.405 412.522 840.452 412.636C840.5 412.75 840.512 412.876 840.488 412.997C840.464 413.118 840.404 413.23 840.317 413.317C840.23 413.404 840.118 413.464 839.997 413.488C839.876 413.512 839.75 413.5 839.636 413.452C839.522 413.405 839.424 413.325 839.355 413.222C839.287 413.119 839.25 412.999 839.25 412.875C839.25 412.709 839.316 412.55 839.433 412.433C839.55 412.316 839.709 412.25 839.875 412.25Z" fill="black"/>
<path d="M844.25 408.5H831.75C831.418 408.5 831.101 408.632 830.866 408.866C830.632 409.101 830.5 409.418 830.5 409.75V416H831.75V409.75H844.25V419.231L842.006 416.988C841.772 416.755 841.455 416.624 841.125 416.624C840.795 416.624 840.478 416.755 840.244 416.988L839.25 417.981L835.394 414.125L834.51 415.01L838.369 418.869C838.603 419.102 838.92 419.232 839.25 419.232C839.58 419.232 839.897 419.102 840.131 418.869L841.125 417.875L844.25 421V422.25H838V423.5H844.25C844.582 423.5 844.899 423.368 845.134 423.134C845.368 422.899 845.5 422.582 845.5 422.25V409.75C845.5 409.418 845.368 409.101 845.134 408.866C844.899 408.632 844.582 408.5 844.25 408.5Z" fill="black"/>
<rect x="814.5" y="392.5" width="47" height="47" stroke="#6F6F6F"/>
<text fill="black" xml:space="preserve" style="white-space: pre" font-family="IBM Plex Sans" font-size="14" font-weight="600" letter-spacing="0.16px"><tspan x="878" y="420.25">Images (n)</tspan></text>
<rect x="591.5" y="336.5" width="161" height="120" fill="white"/>
<g clip-path="url(#clip2_621_37904)">
<text fill="black" xml:space="preserve" style="white-space: pre" font-family="IBM Plex Sans" font-size="14" font-weight="600" letter-spacing="0.16px"><tspan x="607" y="365.25">Public namespace</tspan></text>
</g>
<rect x="591.5" y="336.5" width="161" height="120" stroke="#A56EFF"/>
<rect width="56" height="56" transform="translate(608 384)" fill="white" style="mix-blend-mode:multiply"/>
<path d="M664 384H608V440H664V384Z" fill="white" style="mix-blend-mode:multiply"/>
<path d="M612 388.5H659.5V436" stroke="#736F6F"/>
<path d="M616 384.5H663.5V432" stroke="#736F6F"/>
<rect x="608.5" y="392.5" width="47" height="47" fill="#F4F4F4"/>
<rect width="20" height="20" transform="translate(622 406)" fill="white" style="mix-blend-mode:multiply"/>
<path d="M624.5 418.5V419.75H627.366L623.25 423.866L624.134 424.75L628.25 420.634V423.5H629.5V418.5H624.5Z" fill="black"/>
<path d="M633.875 414.75C634.246 414.75 634.608 414.64 634.917 414.434C635.225 414.228 635.465 413.935 635.607 413.593C635.749 413.25 635.786 412.873 635.714 412.509C635.642 412.145 635.463 411.811 635.201 411.549C634.939 411.287 634.605 411.108 634.241 411.036C633.877 410.964 633.5 411.001 633.157 411.143C632.815 411.285 632.522 411.525 632.316 411.833C632.11 412.142 632 412.504 632 412.875C632 413.372 632.198 413.849 632.549 414.201C632.901 414.552 633.378 414.75 633.875 414.75ZM633.875 412.25C633.999 412.25 634.119 412.287 634.222 412.355C634.325 412.424 634.405 412.522 634.452 412.636C634.5 412.75 634.512 412.876 634.488 412.997C634.464 413.118 634.404 413.23 634.317 413.317C634.23 413.404 634.118 413.464 633.997 413.488C633.876 413.512 633.75 413.5 633.636 413.452C633.522 413.405 633.424 413.325 633.355 413.222C633.287 413.119 633.25 412.999 633.25 412.875C633.25 412.709 633.316 412.55 633.433 412.433C633.55 412.316 633.709 412.25 633.875 412.25Z" fill="black"/>
<path d="M638.25 408.5H625.75C625.418 408.5 625.101 408.632 624.866 408.866C624.632 409.101 624.5 409.418 624.5 409.75V416H625.75V409.75H638.25V419.231L636.006 416.988C635.772 416.755 635.455 416.624 635.125 416.624C634.795 416.624 634.478 416.755 634.244 416.988L633.25 417.981L629.394 414.125L628.51 415.01L632.369 418.869C632.603 419.102 632.92 419.232 633.25 419.232C633.58 419.232 633.897 419.102 634.131 418.869L635.125 417.875L638.25 421V422.25H632V423.5H638.25C638.582 423.5 638.899 423.368 639.134 423.134C639.368 422.899 639.5 422.582 639.5 422.25V409.75C639.5 409.418 639.368 409.101 639.134 408.866C638.899 408.632 638.582 408.5 638.25 408.5Z" fill="black"/>
<rect x="608.5" y="392.5" width="47" height="47" stroke="#6F6F6F"/>
<text fill="black" xml:space="preserve" style="white-space: pre" font-family="IBM Plex Sans" font-size="14" font-weight="600" letter-spacing="0.16px"><tspan x="672" y="412.25">IBM&#10;</tspan><tspan x="672" y="430.25">images (n)</tspan></text>
<path d="M786 136L781 133.113L781 138.887L786 136ZM585 136.5L781.5 136.5L781.5 135.5L585 135.5L585 136.5Z" fill="#736F6F"/>
<rect x="785.5" y="48.5" width="207" height="143" fill="#EDF5FF"/>
<rect x="786" y="49" width="206" height="142" fill="#EDF5FF"/>
<g clip-path="url(#clip3_621_37904)">
<line x1="787" y1="48" x2="787" y2="96" stroke="#0F62FE" stroke-width="4"/>
<rect width="20" height="20" transform="translate(801 62)" fill="white" style="mix-blend-mode:multiply"/>
<path d="M811 76.375C810.875 76.375 810.75 76.375 810.688 76.3125L807.562 74.4375C807.375 74.3125 807.25 74.125 807.25 73.875V70.125C807.25 69.875 807.375 69.6875 807.562 69.5625L810.688 67.6875C810.75 67.625 810.875 67.625 811 67.625C811.125 67.625 811.25 67.625 811.312 67.6875L814.438 69.5625C814.625 69.6875 814.75 69.875 814.75 70.125V73.875C814.75 74.125 814.625 74.3125 814.438 74.4375L811.312 76.3125C811.25 76.375 811.125 76.375 811 76.375ZM808.5 73.5L811 75L813.5 73.5V70.4375L811 68.9375L808.5 70.4375V73.5Z" fill="black"/>
<path d="M811 81.375C810.875 81.375 810.812 81.375 810.688 81.3125L803.188 76.9375C803 76.8125 802.875 76.625 802.875 76.375V67.625C802.875 67.375 803 67.1875 803.188 67.0625L810.688 62.6875C810.812 62.625 810.875 62.625 811 62.625C811.125 62.625 811.188 62.625 811.312 62.6875L818.812 67.0625L818.188 68.125L811 64L804.125 68V76.0625L811 80.0625L817.875 76.0625V71.375H819.125V76.375C819.125 76.625 819 76.8125 818.812 76.9375L811.312 81.3125C811.188 81.375 811.125 81.375 811 81.375Z" fill="black"/>
<text fill="black" xml:space="preserve" style="white-space: pre" font-family="IBM Plex Sans" font-size="14" font-weight="600" letter-spacing="0.16px"><tspan x="837" y="77.25">Kubernetes cluster</tspan></text>
</g>
<rect x="785.5" y="48.5" width="207" height="143" stroke="#0F62FE"/>
<rect width="48" height="48" transform="translate(833 112)" fill="#0F62FE"/>
<rect width="20" height="20" transform="translate(847 126)" fill="white" style="mix-blend-mode:multiply"/>
<path d="M862 127.875H852C851.668 127.875 851.351 128.007 851.116 128.241C850.882 128.476 850.75 128.793 850.75 129.125V142.875C850.75 143.207 850.882 143.524 851.116 143.759C851.351 143.993 851.668 144.125 852 144.125H862C862.332 144.125 862.649 143.993 862.884 143.759C863.118 143.524 863.25 143.207 863.25 142.875V129.125C863.25 128.793 863.118 128.476 862.884 128.241C862.649 128.007 862.332 127.875 862 127.875ZM862 129.125V132.875H852V129.125H862ZM852 137.875V134.125H862V137.875H852ZM852 142.875V139.125H862V142.875H852Z" fill="#EDF5FF"/>
<path d="M853.875 131.625C854.22 131.625 854.5 131.345 854.5 131C854.5 130.655 854.22 130.375 853.875 130.375C853.53 130.375 853.25 130.655 853.25 131C853.25 131.345 853.53 131.625 853.875 131.625Z" fill="#EDF5FF"/>
<path d="M853.875 136.625C854.22 136.625 854.5 136.345 854.5 136C854.5 135.655 854.22 135.375 853.875 135.375C853.53 135.375 853.25 135.655 853.25 136C853.25 136.345 853.53 136.625 853.875 136.625Z" fill="#EDF5FF"/>
<path d="M853.875 141.625C854.22 141.625 854.5 141.345 854.5 141C854.5 140.655 854.22 140.375 853.875 140.375C853.53 140.375 853.25 140.655 853.25 141C853.25 141.345 853.53 141.625 853.875 141.625Z" fill="#EDF5FF"/>
<text fill="black" xml:space="preserve" style="white-space: pre" font-family="IBM Plex Sans" font-size="14" font-weight="600" letter-spacing="0.16px"><tspan x="889" y="132.25">Worker&#10;</tspan><tspan x="889" y="150.25">node</tspan></text>
<rect x="96.5" y="192.5" width="239" height="143" fill="white"/>
<rect x="97" y="193" width="238" height="142" fill="white" style="mix-blend-mode:multiply"/>
<g clip-path="url(#clip4_621_37904)">
<line x1="98" y1="192" x2="98" y2="243" stroke="#6F6F6F" stroke-width="4"/>
<rect width="20" height="20" transform="translate(112 206)" fill="white" style="mix-blend-mode:multiply"/>
<path d="M122 211C121.382 211 120.778 211.183 120.264 211.527C119.75 211.87 119.349 212.358 119.113 212.929C118.876 213.5 118.814 214.128 118.935 214.735C119.056 215.341 119.353 215.898 119.79 216.335C120.227 216.772 120.784 217.069 121.39 217.19C121.997 217.311 122.625 217.249 123.196 217.012C123.767 216.776 124.255 216.375 124.598 215.861C124.942 215.347 125.125 214.743 125.125 214.125C125.125 213.296 124.796 212.501 124.21 211.915C123.624 211.329 122.829 211 122 211ZM122 216C121.629 216 121.267 215.89 120.958 215.684C120.65 215.478 120.41 215.185 120.268 214.843C120.126 214.5 120.089 214.123 120.161 213.759C120.233 213.395 120.412 213.061 120.674 212.799C120.936 212.537 121.27 212.358 121.634 212.286C121.998 212.214 122.375 212.251 122.718 212.393C123.06 212.535 123.353 212.775 123.559 213.083C123.765 213.392 123.875 213.754 123.875 214.125C123.874 214.622 123.677 215.099 123.325 215.45C122.974 215.802 122.497 215.999 122 216Z" fill="black"/>
<path d="M122 207.25C120.269 207.25 118.578 207.763 117.139 208.725C115.7 209.686 114.578 211.053 113.916 212.652C113.254 214.25 113.081 216.01 113.418 217.707C113.756 219.404 114.589 220.963 115.813 222.187C117.037 223.411 118.596 224.244 120.293 224.582C121.99 224.919 123.75 224.746 125.348 224.084C126.947 223.422 128.314 222.3 129.275 220.861C130.237 219.422 130.75 217.731 130.75 216C130.747 213.68 129.825 211.456 128.184 209.816C126.544 208.175 124.32 207.253 122 207.25ZM118.25 222.485V221.625C118.251 221.128 118.448 220.651 118.8 220.3C119.151 219.948 119.628 219.751 120.125 219.75H123.875C124.372 219.751 124.849 219.948 125.2 220.3C125.552 220.651 125.749 221.128 125.75 221.625V222.485C124.612 223.15 123.318 223.5 122 223.5C120.682 223.5 119.388 223.15 118.25 222.485ZM126.995 221.579C126.983 220.759 126.649 219.977 126.065 219.401C125.482 218.825 124.695 218.501 123.875 218.5H120.125C119.305 218.501 118.519 218.825 117.935 219.401C117.351 219.977 117.017 220.759 117.005 221.579C115.871 220.567 115.072 219.234 114.713 217.758C114.353 216.281 114.451 214.731 114.993 213.311C115.534 211.891 116.494 210.67 117.746 209.808C118.997 208.946 120.481 208.484 122 208.484C123.519 208.484 125.003 208.946 126.254 209.808C127.506 210.67 128.466 211.891 129.007 213.311C129.549 214.731 129.647 216.281 129.287 217.758C128.928 219.234 128.129 220.567 126.995 221.579Z" fill="black"/>
<text fill="black" xml:space="preserve" style="white-space: pre" font-family="IBM Plex Sans" font-size="14" font-weight="600" letter-spacing="0.16px"><tspan x="148" y="222.25">Local image store</tspan></text>
</g>
<rect x="96.5" y="192.5" width="239" height="143" stroke="#6F6F6F"/>
<rect x="144.5" y="256.5" width="47" height="47" fill="#F4F4F4"/>
<rect width="20" height="20" transform="translate(158 270)" fill="white" style="mix-blend-mode:multiply"/>
<path d="M160.5 283.75H159.25V272.5C159.25 272.169 159.382 271.851 159.617 271.617C159.851 271.382 160.169 271.25 160.5 271.25H171.75V272.5H160.5V283.75Z" fill="black"/>
<path d="M171.125 280.625C171.496 280.625 171.858 280.515 172.167 280.309C172.475 280.103 172.715 279.81 172.857 279.468C172.999 279.125 173.036 278.748 172.964 278.384C172.892 278.02 172.713 277.686 172.451 277.424C172.189 277.162 171.855 276.983 171.491 276.911C171.127 276.839 170.75 276.876 170.407 277.018C170.065 277.16 169.772 277.4 169.566 277.708C169.36 278.017 169.25 278.379 169.25 278.75C169.251 279.247 169.448 279.724 169.8 280.075C170.151 280.427 170.628 280.624 171.125 280.625ZM171.125 278.125C171.249 278.125 171.369 278.162 171.472 278.23C171.575 278.299 171.655 278.397 171.702 278.511C171.75 278.625 171.762 278.751 171.738 278.872C171.714 278.993 171.654 279.105 171.567 279.192C171.48 279.279 171.368 279.339 171.247 279.363C171.126 279.387 171 279.375 170.886 279.327C170.772 279.28 170.674 279.2 170.605 279.097C170.537 278.994 170.5 278.874 170.5 278.75C170.5 278.584 170.566 278.425 170.683 278.308C170.8 278.191 170.959 278.125 171.125 278.125Z" fill="black"/>
<path d="M175.5 274.375H163.625C163.294 274.375 162.976 274.507 162.742 274.742C162.507 274.976 162.375 275.294 162.375 275.625V287.5C162.375 287.831 162.507 288.149 162.742 288.383C162.976 288.618 163.294 288.75 163.625 288.75H175.5C175.831 288.75 176.149 288.618 176.383 288.383C176.618 288.149 176.75 287.831 176.75 287.5V275.625C176.75 275.294 176.618 274.976 176.383 274.742C176.149 274.507 175.831 274.375 175.5 274.375ZM175.5 287.5H163.625V283.75L166.125 281.252L169.616 284.743C169.851 284.977 170.169 285.109 170.5 285.109C170.831 285.109 171.149 284.977 171.384 284.743L172.375 283.752L175.5 286.875V287.5ZM175.5 285.107L173.259 282.866C173.024 282.632 172.706 282.5 172.375 282.5C172.044 282.5 171.726 282.632 171.491 282.866L170.5 283.857L167.009 280.366C166.774 280.132 166.456 280 166.125 280C165.794 280 165.476 280.132 165.241 280.366L163.625 281.982V275.625H175.5V285.107Z" fill="black"/>
<rect x="144.5" y="256.5" width="47" height="47" stroke="#6F6F6F"/>
<text fill="black" xml:space="preserve" style="white-space: pre" font-family="IBM Plex Sans" font-size="14" font-weight="600" letter-spacing="0.16px"><tspan x="200" y="284.25">Image</tspan></text>
<rect x="433.5" y="48.5" width="225" height="143" fill="white"/>
<rect x="434" y="49" width="158" height="142" fill="white"/>
<g clip-path="url(#clip5_621_37904)">
<line x1="435" y1="48" x2="435" y2="99" stroke="#6F6F6F" stroke-width="4"/>
<rect width="20" height="20" transform="translate(449 62)" fill="white" style="mix-blend-mode:multiply"/>
<path d="M466.5 69.5H461.5V64.5H466.5V69.5ZM462.75 68.25H465.25V65.75H462.75V68.25Z" fill="black"/>
<path d="M459.625 71.375V67.625H454.625V76.375H463.375V71.375H459.625ZM455.875 68.875H458.375V71.375H455.875V68.875ZM458.375 75.125H455.875V72.625H458.375V75.125ZM462.125 75.125H459.625V72.625H462.125V75.125Z" fill="black"/>
<path d="M465.25 79.5H452.75C452.419 79.4996 452.101 79.3678 451.867 79.1335C451.632 78.8991 451.5 78.5814 451.5 78.25V65.75C451.5 65.4186 451.632 65.1009 451.867 64.8665C452.101 64.6322 452.419 64.5004 452.75 64.5H459V65.75H452.75V78.25H465.25V72H466.5V78.25C466.5 78.5814 466.368 78.8991 466.133 79.1335C465.899 79.3678 465.581 79.4996 465.25 79.5Z" fill="black"/>
<text fill="black" xml:space="preserve" style="white-space: pre" font-family="IBM Plex Sans" font-size="14" font-weight="600" letter-spacing="0.16px"><tspan x="485" y="78.25">Other registries</tspan></text>
</g>
<rect x="433.5" y="48.5" width="225" height="143" stroke="#6F6F6F"/>
<rect width="56" height="56" transform="translate(481 104)" fill="white" style="mix-blend-mode:multiply"/>
<path d="M537 104H481V160H537V104Z" fill="white" style="mix-blend-mode:multiply"/>
<path d="M485 108.5H532.5V156" stroke="#6F6F6F"/>
<path d="M489 104.5H536.5V152" stroke="#6F6F6F"/>
<rect x="481.5" y="112.5" width="47" height="47" fill="#F4F4F4"/>
<rect width="20" height="20" transform="translate(495 126)" fill="white" style="mix-blend-mode:multiply"/>
<path d="M497.5 138.5V139.75H500.366L496.25 143.866L497.134 144.75L501.25 140.634V143.5H502.5V138.5H497.5Z" fill="black"/>
<path d="M506.875 134.75C507.246 134.75 507.608 134.64 507.917 134.434C508.225 134.228 508.465 133.935 508.607 133.593C508.749 133.25 508.786 132.873 508.714 132.509C508.642 132.145 508.463 131.811 508.201 131.549C507.939 131.287 507.605 131.108 507.241 131.036C506.877 130.964 506.5 131.001 506.157 131.143C505.815 131.285 505.522 131.525 505.316 131.833C505.11 132.142 505 132.504 505 132.875C505 133.372 505.198 133.849 505.549 134.201C505.901 134.552 506.378 134.75 506.875 134.75ZM506.875 132.25C506.999 132.25 507.119 132.287 507.222 132.355C507.325 132.424 507.405 132.522 507.452 132.636C507.5 132.75 507.512 132.876 507.488 132.997C507.464 133.118 507.404 133.23 507.317 133.317C507.23 133.404 507.118 133.464 506.997 133.488C506.876 133.512 506.75 133.5 506.636 133.452C506.522 133.405 506.424 133.325 506.355 133.222C506.287 133.119 506.25 132.999 506.25 132.875C506.25 132.709 506.316 132.55 506.433 132.433C506.55 132.316 506.709 132.25 506.875 132.25Z" fill="black"/>
<path d="M511.25 128.5H498.75C498.418 128.5 498.101 128.632 497.866 128.866C497.632 129.101 497.5 129.418 497.5 129.75V136H498.75V129.75H511.25V139.231L509.006 136.988C508.772 136.755 508.455 136.624 508.125 136.624C507.795 136.624 507.478 136.755 507.244 136.988L506.25 137.981L502.394 134.125L501.51 135.01L505.369 138.869C505.603 139.102 505.92 139.232 506.25 139.232C506.58 139.232 506.897 139.102 507.131 138.869L508.125 137.875L511.25 141V142.25H505V143.5H511.25C511.582 143.5 511.899 143.368 512.134 143.134C512.368 142.899 512.5 142.582 512.5 142.25V129.75C512.5 129.418 512.368 129.101 512.134 128.866C511.899 128.632 511.582 128.5 511.25 128.5Z" fill="black"/>
<rect x="481.5" y="112.5" width="47" height="47" stroke="#6F6F6F"/>
<text fill="black" xml:space="preserve" style="white-space: pre" font-family="IBM Plex Sans" font-size="14" font-weight="600" letter-spacing="0.16px"><tspan x="545" y="140.25">Images (n)</tspan></text>
<path d="M384.293 198.582L383.793 198.582L383.793 198.582L384.293 198.582ZM433 136L428 133.113L428 138.887L433 136ZM384.297 247.999L383.797 247.999L384.297 247.999ZM383.793 144L383.793 198.582L384.793 198.582L384.793 144L383.793 144ZM392.293 136.5L428.5 136.5L428.5 135.5L392.293 135.5L392.293 136.5ZM383.793 198.582L383.797 247.999L384.797 247.999L384.793 198.582L383.793 198.582ZM376.297 255.5L335.5 255.5L335.5 256.5L376.297 256.5L376.297 255.5ZM383.797 247.999C383.797 252.142 380.439 255.5 376.297 255.5L376.297 256.5C380.991 256.5 384.797 252.694 384.797 247.999L383.797 247.999ZM384.793 144C384.793 139.858 388.151 136.5 392.293 136.5L392.293 135.5C387.598 135.5 383.793 139.306 383.793 144L384.793 144Z" fill="#736F6F"/>
<path d="M384.293 333.591L383.793 333.591L383.793 333.59L384.293 333.591ZM433 392L428 394.887L428 389.113L433 392ZM384.296 288.001L384.796 288.001L384.296 288.001ZM383.793 384L383.793 333.591L384.793 333.591L384.793 384L383.793 384ZM392.293 391.5L428.5 391.5L428.5 392.5L392.293 392.5L392.293 391.5ZM383.793 333.59L383.796 288.001L384.796 288.001L384.793 333.591L383.793 333.59ZM376.296 280.5L335.5 280.5L335.5 279.5L376.296 279.5L376.296 280.5ZM383.796 288.001C383.797 283.858 380.439 280.5 376.296 280.5L376.296 279.5C380.991 279.5 384.797 283.306 384.796 288.001L383.796 288.001ZM384.793 384C384.793 388.142 388.151 391.5 392.293 391.5L392.293 392.5C387.598 392.5 383.793 388.694 383.793 384L384.793 384Z" fill="#736F6F"/>
<path d="M856 192L853.113 197L858.887 197L856 192ZM856.5 288L856.5 196.5L855.5 196.5L855.5 288L856.5 288Z" fill="#736F6F"/>
<path d="M334.154 552V552.5H334.154L334.154 552ZM488 440L490.887 445H485.113L488 440ZM480 552.5H334.154V551.5H480V552.5ZM487.5 544V444.5H488.5V544H487.5ZM334.154 552.5L193 552.486L193 551.486L334.154 551.5L334.154 552.5ZM480 551.5C484.142 551.5 487.5 548.142 487.5 544H488.5C488.5 548.694 484.694 552.5 480 552.5V551.5Z" fill="#736F6F"/>
<path d="M341.809 584V584.5H341.809L341.809 584ZM193 583.981L198 581.095L198 586.869L193 583.981ZM496 584.5H341.809V583.5H496V584.5ZM503.5 576V440H504.5V576H503.5ZM341.809 584.5L197.5 584.482L197.5 583.482L341.809 583.5L341.809 584.5ZM496 583.5C500.142 583.5 503.5 580.142 503.5 576H504.5C504.5 580.694 500.694 584.5 496 584.5V583.5Z" fill="#736F6F"/>
<path d="M570.065 569V569.5H570.065L570.065 569ZM616 568.983L610.999 566.098L611.001 571.872L616 568.983ZM528 569.5H570.065V568.5H528V569.5ZM520.5 561V440H519.5V561H520.5ZM570.065 569.5L611.5 569.485L611.5 568.485L570.065 568.5L570.065 569.5ZM528 568.5C523.858 568.5 520.5 565.142 520.5 561H519.5C519.5 565.694 523.306 569.5 528 569.5V568.5Z" fill="#736F6F"/>
<rect x="240.5" y="544.5" width="121" height="15" rx="7.5" fill="white"/>
<text fill="black" xml:space="preserve" style="white-space: pre" font-family="IBM Plex Sans" font-size="12" letter-spacing="0.32px"><tspan x="248" y="555.5">Create namespace</tspan></text>
<rect x="240.5" y="544.5" width="121" height="15" rx="7.5" stroke="black"/>
<rect x="536.5" y="560.5" width="35" height="15" rx="7.5" fill="white"/>
<text fill="black" xml:space="preserve" style="white-space: pre" font-family="IBM Plex Sans" font-size="12" letter-spacing="0.32px"><tspan x="544" y="571.5">List</tspan></text>
<rect x="536.5" y="560.5" width="35" height="15" rx="7.5" stroke="black"/>
<rect x="347.5" y="576.5" width="133" height="15" rx="7.5" fill="white"/>
<text fill="black" xml:space="preserve" style="white-space: pre" font-family="IBM Plex Sans" font-size="12" letter-spacing="0.32px"><tspan x="355" y="587.5">List, inspect, remove</tspan></text>
<rect x="347.5" y="576.5" width="133" height="15" rx="7.5" stroke="black"/>
<rect width="48" height="48" transform="translate(145 545)" fill="#6F6F6F"/>
<rect width="20" height="20" transform="translate(159 559)" fill="white" style="mix-blend-mode:multiply"/>
<path d="M178.375 569L174 573.375L173.119 572.494L176.606 569L173.119 565.506L174 564.625L178.375 569Z" fill="white"/>
<path d="M159.625 569L164 564.625L164.881 565.506L161.394 569L164.881 572.494L164 573.375L159.625 569Z" fill="white"/>
<path d="M170.024 562.751L166.762 574.927L167.969 575.251L171.232 563.074L170.024 562.751Z" fill="white"/>
<text fill="black" xml:space="preserve" style="white-space: pre" font-family="IBM Plex Sans" font-size="14" font-weight="600" letter-spacing="0.16px"><tspan x="157.738" y="615.25">CLI</tspan></text>
<rect width="48" height="48" transform="translate(616 544)" fill="#6F6F6F"/>
<rect width="20" height="20" transform="translate(630 558)" fill="white" style="mix-blend-mode:multiply"/>
<path d="M647.5 560.5H632.5C632.168 560.5 631.851 560.632 631.616 560.866C631.382 561.101 631.25 561.418 631.25 561.75V571.75C631.25 572.082 631.382 572.399 631.616 572.634C631.851 572.868 632.168 573 632.5 573H637.5V575.5H635V576.75H645V575.5H642.5V573H647.5C647.832 573 648.149 572.868 648.384 572.634C648.618 572.399 648.75 572.082 648.75 571.75V561.75C648.75 561.418 648.618 561.101 648.384 560.866C648.149 560.632 647.832 560.5 647.5 560.5ZM641.25 575.5H638.75V573H641.25V575.5ZM647.5 571.75H632.5V561.75H647.5V571.75Z" fill="white"/>
<text fill="black" xml:space="preserve" style="white-space: pre" font-family="IBM Plex Sans" font-size="14" font-weight="600" letter-spacing="0.16px"><tspan x="627.064" y="614.25">GUI</tspan></text>
<rect x="48.5" y="657.5" width="15" height="15" fill="#EDF5FF"/>
<rect x="48.5" y="657.5" width="15" height="15" stroke="#0072C3"/>
<text fill="#6F6F6F" xml:space="preserve" style="white-space: pre" font-family="IBM Plex Sans" font-size="14" letter-spacing="0.16px"><tspan x="72" y="670.25">IBM Cloud Kubernetes Service</tspan></text>
<rect x="284.5" y="657.5" width="15" height="15" fill="#E8DAFF"/>
<rect x="284.5" y="657.5" width="15" height="15" stroke="#8A3FFC"/>
<text fill="#6F6F6F" xml:space="preserve" style="white-space: pre" font-family="IBM Plex Sans" font-size="14" letter-spacing="0.16px"><tspan x="308" y="670.25">IBM Cloud Container Registry</tspan></text>
<defs>
<clipPath id="clip0_621_37904">
<rect width="435" height="48" fill="white" transform="translate(433 288)"/>
</clipPath>
<clipPath id="clip1_621_37904">
<rect width="159" height="48" fill="white" transform="translate(799 336)"/>
</clipPath>
<clipPath id="clip2_621_37904">
<rect width="153" height="48" fill="white" transform="translate(591 336)"/>
</clipPath>
<clipPath id="clip3_621_37904">
<rect width="195" height="48" fill="white" transform="translate(785 48)"/>
</clipPath>
<clipPath id="clip4_621_37904">
<rect width="227" height="51" fill="white" transform="translate(96 192)"/>
</clipPath>
<clipPath id="clip5_621_37904">
<rect width="227" height="51" fill="white" transform="translate(433 48)"/>
</clipPath>
</defs>
</svg>
