<svg width="1080" height="638" viewBox="0 0 1080 638" fill="none" xmlns="http://www.w3.org/2000/svg">
<rect width="1080" height="638" fill="#F4F4F4"/>
<rect x="48.5" y="574.5" width="15" height="15" rx="3.5" stroke="#6F6F6F"/>
<path d="M77.334 585.696V584.66H73.176V575.924H72V585.696H77.334Z" fill="#6F6F6F"/>
<path d="M81.655 585.864C83.587 585.864 84.917 584.38 84.917 582.084C84.917 579.788 83.587 578.304 81.655 578.304C79.723 578.304 78.393 579.788 78.393 582.084C78.393 584.38 79.723 585.864 81.655 585.864ZM81.655 584.87C80.451 584.87 79.597 584.128 79.597 582.602V581.566C79.597 580.04 80.451 579.298 81.655 579.298C82.859 579.298 83.713 580.04 83.713 581.566V582.602C83.713 584.128 82.859 584.87 81.655 584.87Z" fill="#6F6F6F"/>
<path d="M93.0089 586.494C93.0089 585.304 92.2389 584.576 90.4469 584.576H88.9069C88.2489 584.576 87.8009 584.464 87.8009 584.03C87.8009 583.582 88.2769 583.344 88.7529 583.218C88.9629 583.26 89.2149 583.288 89.4529 583.288C91.1049 583.288 92.1829 582.266 92.1829 580.796C92.1829 580.026 91.8749 579.382 91.3569 578.934V578.472H92.7289V577.492H91.6509C91.0489 577.492 90.8109 577.898 90.8109 578.458V578.584C90.4189 578.402 89.9569 578.304 89.4389 578.304C87.8009 578.304 86.7229 579.326 86.7229 580.796C86.7229 581.804 87.2269 582.602 88.0809 583.008V583.064C87.3529 583.246 86.8349 583.596 86.8349 584.324C86.8349 584.814 87.0729 585.136 87.4789 585.332V585.486C86.7649 585.682 86.3309 586.102 86.3309 586.886C86.3309 588.02 87.2549 588.664 89.5089 588.664C91.8329 588.664 93.0089 587.978 93.0089 586.494ZM91.9589 586.578C91.9589 587.362 91.2309 587.754 89.9849 587.754H88.9489C87.8149 587.754 87.3809 587.236 87.3809 586.606C87.3809 586.158 87.5909 585.836 88.0529 585.626H90.4609C91.5809 585.626 91.9589 586.004 91.9589 586.578ZM89.4529 582.392C88.5009 582.392 87.8989 581.944 87.8989 580.992V580.6C87.8989 579.648 88.5009 579.2 89.4529 579.2C90.4049 579.2 91.0069 579.648 91.0069 580.6V580.992C91.0069 581.944 90.4049 582.392 89.4529 582.392Z" fill="#6F6F6F"/>
<path d="M95.0354 576.778C95.5114 576.778 95.7214 576.526 95.7214 576.148V575.966C95.7214 575.588 95.5114 575.336 95.0354 575.336C94.5594 575.336 94.3494 575.588 94.3494 575.966V576.148C94.3494 576.526 94.5594 576.778 95.0354 576.778ZM94.4754 585.696H95.5954V578.472H94.4754V585.696Z" fill="#6F6F6F"/>
<path d="M100.823 585.864C102.195 585.864 103.133 585.192 103.595 584.156L102.783 583.61C102.391 584.436 101.733 584.87 100.823 584.87C99.4934 584.87 98.8074 583.96 98.8074 582.7V581.468C98.8074 580.208 99.4934 579.298 100.823 579.298C101.705 579.298 102.321 579.732 102.587 580.474L103.525 579.998C103.105 579.004 102.251 578.304 100.823 578.304C98.7934 578.304 97.6034 579.774 97.6034 582.084C97.6034 584.394 98.7934 585.864 100.823 585.864Z" fill="#6F6F6F"/>
<path d="M111.216 585.696V584.716H110.39V580.74C110.39 579.214 109.354 578.304 107.618 578.304C106.316 578.304 105.448 578.948 105.056 579.718L105.728 580.348C106.12 579.69 106.694 579.27 107.562 579.27C108.71 579.27 109.27 579.83 109.27 580.852V581.566H107.842C105.742 581.566 104.762 582.322 104.762 583.68C104.762 585.024 105.658 585.864 107.184 585.864C108.192 585.864 108.962 585.402 109.27 584.52H109.34C109.424 585.192 109.76 585.696 110.586 585.696H111.216ZM107.366 584.912C106.498 584.912 105.938 584.506 105.938 583.792V583.498C105.938 582.798 106.512 582.406 107.786 582.406H109.27V583.596C109.27 584.338 108.472 584.912 107.366 584.912Z" fill="#6F6F6F"/>
<path d="M115.159 585.696V584.716H114.095V575.336H112.975V584.534C112.975 585.206 113.395 585.696 114.165 585.696H115.159Z" fill="#6F6F6F"/>
<path d="M121.538 585.696V580.684C121.538 579.76 122.406 579.312 123.302 579.312C124.38 579.312 124.94 579.97 124.94 581.258V585.696H126.06V581.062C126.06 579.312 125.122 578.304 123.638 578.304C122.56 578.304 121.944 578.836 121.594 579.648H121.538V578.472H120.418V585.696H121.538Z" fill="#6F6F6F"/>
<path d="M131.265 585.864C133.197 585.864 134.527 584.38 134.527 582.084C134.527 579.788 133.197 578.304 131.265 578.304C129.333 578.304 128.003 579.788 128.003 582.084C128.003 584.38 129.333 585.864 131.265 585.864ZM131.265 584.87C130.061 584.87 129.207 584.128 129.207 582.602V581.566C129.207 580.04 130.061 579.298 131.265 579.298C132.469 579.298 133.323 580.04 133.323 581.566V582.602C133.323 584.128 132.469 584.87 131.265 584.87Z" fill="#6F6F6F"/>
<path d="M141.149 585.696H142.269V575.336H141.149V579.648H141.093C140.715 578.738 139.973 578.304 138.979 578.304C137.173 578.304 136.039 579.774 136.039 582.084C136.039 584.394 137.173 585.864 138.979 585.864C139.973 585.864 140.659 585.416 141.093 584.52H141.149V585.696ZM139.287 584.856C138.027 584.856 137.243 583.988 137.243 582.7V581.468C137.243 580.18 138.027 579.312 139.287 579.312C140.309 579.312 141.149 579.9 141.149 580.698V583.386C141.149 584.324 140.309 584.856 139.287 584.856Z" fill="#6F6F6F"/>
<path d="M147.526 585.864C148.884 585.864 149.92 585.192 150.382 584.212L149.584 583.638C149.206 584.436 148.506 584.884 147.596 584.884C146.252 584.884 145.454 583.946 145.454 582.7V582.364H150.648V581.832C150.648 579.788 149.458 578.304 147.526 578.304C145.566 578.304 144.278 579.788 144.278 582.084C144.278 584.38 145.566 585.864 147.526 585.864ZM147.526 579.242C148.674 579.242 149.444 580.096 149.444 581.37V581.524H145.454V581.426C145.454 580.166 146.308 579.242 147.526 579.242Z" fill="#6F6F6F"/>
<rect x="167.148" y="574.5" width="15" height="15" stroke="#6F6F6F"/>
<path d="M191.824 587.096V582.924H194.54C196.29 582.924 197.27 581.846 197.27 580.124C197.27 578.402 196.29 577.324 194.54 577.324H190.648V587.096H191.824ZM191.824 578.36H194.54C195.464 578.36 196.01 578.864 196.01 579.76V580.488C196.01 581.384 195.464 581.888 194.54 581.888H191.824V578.36Z" fill="#6F6F6F"/>
<path d="M200.17 587.096V582.196C200.17 581.51 200.898 580.992 202.102 580.992H202.76V579.872H202.326C201.15 579.872 200.492 580.516 200.24 581.202H200.17V579.872H199.05V587.096H200.17Z" fill="#6F6F6F"/>
<path d="M206.998 587.264C208.356 587.264 209.392 586.592 209.854 585.612L209.056 585.038C208.678 585.836 207.978 586.284 207.068 586.284C205.724 586.284 204.926 585.346 204.926 584.1V583.764H210.12V583.232C210.12 581.188 208.93 579.704 206.998 579.704C205.038 579.704 203.75 581.188 203.75 583.484C203.75 585.78 205.038 587.264 206.998 587.264ZM206.998 580.642C208.146 580.642 208.916 581.496 208.916 582.77V582.924H204.926V582.826C204.926 581.566 205.78 580.642 206.998 580.642Z" fill="#6F6F6F"/>
<path d="M214.295 587.264C215.947 587.264 216.969 586.41 216.969 585.01C216.969 583.918 216.353 583.218 214.757 582.98L214.197 582.896C213.301 582.756 212.811 582.476 212.811 581.776C212.811 581.09 213.301 580.656 214.225 580.656C215.149 580.656 215.765 581.09 216.087 581.538L216.829 580.866C216.241 580.138 215.471 579.704 214.309 579.704C212.839 579.704 211.733 580.404 211.733 581.832C211.733 583.176 212.727 583.722 214.057 583.918L214.631 584.002C215.583 584.142 215.891 584.576 215.891 585.136C215.891 585.878 215.331 586.312 214.379 586.312C213.469 586.312 212.797 585.906 212.237 585.206L211.439 585.85C212.083 586.704 212.965 587.264 214.295 587.264Z" fill="#6F6F6F"/>
<path d="M221.796 587.264C223.168 587.264 224.106 586.592 224.568 585.556L223.756 585.01C223.364 585.836 222.706 586.27 221.796 586.27C220.466 586.27 219.78 585.36 219.78 584.1V582.868C219.78 581.608 220.466 580.698 221.796 580.698C222.678 580.698 223.294 581.132 223.56 581.874L224.498 581.398C224.078 580.404 223.224 579.704 221.796 579.704C219.766 579.704 218.576 581.174 218.576 583.484C218.576 585.794 219.766 587.264 221.796 587.264Z" fill="#6F6F6F"/>
<path d="M227.429 587.096V582.196C227.429 581.51 228.157 580.992 229.361 580.992H230.019V579.872H229.585C228.409 579.872 227.751 580.516 227.499 581.202H227.429V579.872H226.309V587.096H227.429Z" fill="#6F6F6F"/>
<path d="M232.169 578.178C232.645 578.178 232.855 577.926 232.855 577.548V577.366C232.855 576.988 232.645 576.736 232.169 576.736C231.693 576.736 231.483 576.988 231.483 577.366V577.548C231.483 577.926 231.693 578.178 232.169 578.178ZM231.609 587.096H232.729V579.872H231.609V587.096Z" fill="#6F6F6F"/>
<path d="M235.269 587.096H236.389V585.92H236.445C236.879 586.816 237.565 587.264 238.559 587.264C240.365 587.264 241.499 585.794 241.499 583.484C241.499 581.174 240.365 579.704 238.559 579.704C237.565 579.704 236.823 580.138 236.445 581.048H236.389V576.736H235.269V587.096ZM238.251 586.256C237.229 586.256 236.389 585.724 236.389 584.786V582.098C236.389 581.3 237.229 580.712 238.251 580.712C239.511 580.712 240.295 581.58 240.295 582.868V584.1C240.295 585.388 239.511 586.256 238.251 586.256Z" fill="#6F6F6F"/>
<path d="M246.266 587.264C247.624 587.264 248.66 586.592 249.122 585.612L248.324 585.038C247.946 585.836 247.246 586.284 246.336 586.284C244.992 586.284 244.194 585.346 244.194 584.1V583.764H249.388V583.232C249.388 581.188 248.198 579.704 246.266 579.704C244.306 579.704 243.018 581.188 243.018 583.484C243.018 585.78 244.306 587.264 246.266 587.264ZM246.266 580.642C247.414 580.642 248.184 581.496 248.184 582.77V582.924H244.194V582.826C244.194 581.566 245.048 580.642 246.266 580.642Z" fill="#6F6F6F"/>
<path d="M256.014 587.096H257.134V576.736H256.014V581.048H255.958C255.58 580.138 254.838 579.704 253.844 579.704C252.038 579.704 250.904 581.174 250.904 583.484C250.904 585.794 252.038 587.264 253.844 587.264C254.838 587.264 255.524 586.816 255.958 585.92H256.014V587.096ZM254.152 586.256C252.892 586.256 252.108 585.388 252.108 584.1V582.868C252.108 581.58 252.892 580.712 254.152 580.712C255.174 580.712 256.014 581.3 256.014 582.098V584.786C256.014 585.724 255.174 586.256 254.152 586.256Z" fill="#6F6F6F"/>
<path d="M264.264 587.096V582.084C264.264 581.16 265.132 580.712 266.028 580.712C267.106 580.712 267.666 581.37 267.666 582.658V587.096H268.786V582.462C268.786 580.712 267.848 579.704 266.364 579.704C265.286 579.704 264.67 580.236 264.32 581.048H264.264V579.872H263.144V587.096H264.264Z" fill="#6F6F6F"/>
<path d="M273.991 587.264C275.923 587.264 277.253 585.78 277.253 583.484C277.253 581.188 275.923 579.704 273.991 579.704C272.059 579.704 270.729 581.188 270.729 583.484C270.729 585.78 272.059 587.264 273.991 587.264ZM273.991 586.27C272.787 586.27 271.933 585.528 271.933 584.002V582.966C271.933 581.44 272.787 580.698 273.991 580.698C275.195 580.698 276.049 581.44 276.049 582.966V584.002C276.049 585.528 275.195 586.27 273.991 586.27Z" fill="#6F6F6F"/>
<path d="M283.875 587.096H284.995V576.736H283.875V581.048H283.819C283.441 580.138 282.699 579.704 281.705 579.704C279.899 579.704 278.765 581.174 278.765 583.484C278.765 585.794 279.899 587.264 281.705 587.264C282.699 587.264 283.385 586.816 283.819 585.92H283.875V587.096ZM282.013 586.256C280.753 586.256 279.969 585.388 279.969 584.1V582.868C279.969 581.58 280.753 580.712 282.013 580.712C283.035 580.712 283.875 581.3 283.875 582.098V584.786C283.875 585.724 283.035 586.256 282.013 586.256Z" fill="#6F6F6F"/>
<path d="M290.252 587.264C291.61 587.264 292.646 586.592 293.108 585.612L292.31 585.038C291.932 585.836 291.232 586.284 290.322 586.284C288.978 586.284 288.18 585.346 288.18 584.1V583.764H293.374V583.232C293.374 581.188 292.184 579.704 290.252 579.704C288.292 579.704 287.004 581.188 287.004 583.484C287.004 585.78 288.292 587.264 290.252 587.264ZM290.252 580.642C291.4 580.642 292.17 581.496 292.17 582.77V582.924H288.18V582.826C288.18 581.566 289.034 580.642 290.252 580.642Z" fill="#6F6F6F"/>
<path d="M333.874 583L328.874 580.113V585.887L333.874 583ZM329.374 582.5H309.374V583.5H329.374V582.5Z" fill="#736F6F"/>
<text fill="#6F6F6F" xml:space="preserve" style="white-space: pre" font-family="IBM Plex Sans" font-size="14" letter-spacing="0.16px"><tspan x="341.874" y="588.25">Connection</tspan></text>
<path d="M455.374 583L450.374 580.113V585.887L455.374 583ZM452.311 582.5H450.27V583.5H452.311V582.5ZM448.228 582.5H446.186V583.5H448.228V582.5ZM444.145 582.5H442.103V583.5H444.145V582.5ZM440.061 582.5H438.02V583.5H440.061V582.5ZM435.978 582.5H433.936V583.5H435.978V582.5ZM431.895 582.5H430.874V583.5H431.895V582.5Z" fill="#736F6F"/>
<text fill="#6F6F6F" xml:space="preserve" style="white-space: pre" font-family="IBM Plex Sans" font-size="14" letter-spacing="0.16px"><tspan x="463.374" y="588.25">Dependency</tspan></text>
<rect x="656.5" y="48.5" width="351" height="494" fill="white"/>
<rect x="657" y="49" width="350" height="493" fill="#EDF5FF"/>
<g clip-path="url(#clip0_1484_62697)">
<text fill="black" xml:space="preserve" style="white-space: pre" font-family="IBM Plex Sans" font-size="14" font-weight="600" letter-spacing="0.16px"><tspan x="708" y="77.25">IBM Cloud</tspan></text>
<g clip-path="url(#clip1_1484_62697)">
<path d="M687.363 70.5313C686.742 69.3673 685.759 68.4369 684.563 67.8802C683.367 67.3235 682.022 67.1709 680.732 67.4452C679.441 67.7195 678.275 68.4059 677.408 69.401C676.542 70.396 676.023 71.6458 675.929 72.9617C674.856 73.0771 673.867 73.5995 673.168 74.4213C672.468 75.2431 672.11 76.3019 672.167 77.3797C672.224 78.4576 672.692 79.4725 673.475 80.2157C674.258 80.9589 675.296 81.3738 676.375 81.375H686.375C687.74 81.3759 689.055 80.8663 690.063 79.9466C691.071 79.0268 691.699 77.7633 691.822 76.4044C691.946 75.0455 691.557 73.6894 690.732 72.6026C689.907 71.5159 688.705 70.777 687.363 70.5313ZM686.375 80.4375H676.375C675.543 80.4394 674.742 80.1248 674.134 79.5576C673.526 78.9903 673.157 78.2129 673.102 77.3832C673.046 76.5536 673.308 75.7338 673.835 75.0904C674.362 74.4471 675.114 74.0283 675.938 73.9192C676.004 74.7463 676.239 75.5511 676.628 76.2841C676.656 76.34 676.695 76.3896 676.743 76.4302C676.79 76.4707 676.846 76.5013 676.905 76.5202C676.965 76.539 677.028 76.5457 677.09 76.5399C677.152 76.534 677.213 76.5158 677.268 76.4862C677.323 76.4566 677.372 76.4163 677.411 76.3676C677.45 76.3189 677.48 76.2628 677.497 76.2027C677.514 76.1426 677.519 76.0796 677.512 76.0175C677.504 75.9553 677.485 75.8953 677.454 75.841C676.834 74.6827 676.68 73.3317 677.023 72.0636C677.365 70.7955 678.179 69.7061 679.298 69.0176C680.416 68.3292 681.756 68.0936 683.042 68.359C684.329 68.6244 685.465 69.3708 686.22 70.4458C685.471 70.4665 684.734 70.6408 684.055 70.958C683.376 71.2751 682.77 71.7284 682.273 72.2896C682.231 72.3355 682.198 72.3894 682.177 72.4481C682.156 72.5068 682.147 72.5691 682.15 72.6314C682.153 72.6937 682.169 72.7548 682.196 72.811C682.223 72.8672 682.261 72.9174 682.308 72.9587C682.355 73 682.409 73.0315 682.468 73.0514C682.527 73.0714 682.59 73.0793 682.652 73.0747C682.714 73.0701 682.775 73.0532 682.831 73.0249C682.886 72.9965 682.936 72.9574 682.976 72.9097C683.477 72.3417 684.112 71.9083 684.823 71.649C685.535 71.3897 686.3 71.3128 687.049 71.4254C687.797 71.538 688.506 71.8364 689.11 72.2934C689.713 72.7504 690.193 73.3514 690.505 74.0416C690.816 74.7317 690.95 75.4889 690.894 76.244C690.837 76.9991 690.592 77.728 690.182 78.3641C689.771 79.0003 689.207 79.5233 688.542 79.8855C687.877 80.2477 687.132 80.4375 686.375 80.4375Z" fill="black"/>
<path d="M691.936 68.4093C691.905 68.3553 691.864 68.308 691.815 68.2701C691.765 68.2322 691.709 68.2044 691.649 68.1883C691.588 68.1721 691.526 68.168 691.464 68.1762C691.402 68.1844 691.343 68.2046 691.289 68.2358L689.401 69.3257C689.346 69.356 689.297 69.3971 689.258 69.4465C689.218 69.496 689.189 69.5528 689.172 69.6136C689.155 69.6744 689.15 69.7381 689.158 69.8007C689.166 69.8634 689.186 69.9239 689.218 69.9786C689.25 70.0334 689.292 70.0812 689.342 70.1194C689.392 70.1576 689.45 70.1854 689.511 70.201C689.572 70.2167 689.636 70.22 689.699 70.2107C689.761 70.2014 689.821 70.1797 689.875 70.1469L691.763 69.057C691.871 68.9942 691.951 68.8906 691.984 68.7692C692.016 68.6477 691.999 68.5182 691.936 68.4093Z" fill="black"/>
<path d="M686.173 66.9188C686.227 66.95 686.286 66.9702 686.348 66.9783C686.41 66.9865 686.472 66.9824 686.533 66.9663C686.593 66.9502 686.649 66.9224 686.699 66.8844C686.748 66.8465 686.789 66.7992 686.821 66.7453L687.91 64.8578C687.972 64.7489 687.988 64.6201 687.956 64.4993C687.923 64.3786 687.843 64.2757 687.735 64.2131C687.627 64.1505 687.498 64.1333 687.377 64.1652C687.256 64.1972 687.153 64.2756 687.089 64.3835L685.999 66.271C685.936 66.3799 685.919 66.5094 685.952 66.6308C685.984 66.7523 686.064 66.8559 686.173 66.9188Z" fill="black"/>
<path d="M682 65.8007C682.126 65.8007 682.246 65.7507 682.335 65.6618C682.424 65.5728 682.474 65.4522 682.474 65.3265V63.1467C682.475 63.084 682.463 63.0217 682.44 62.9636C682.416 62.9054 682.381 62.8525 682.337 62.8079C682.293 62.7632 682.241 62.7278 682.183 62.7036C682.125 62.6795 682.063 62.667 682 62.667C681.937 62.667 681.875 62.6795 681.817 62.7036C681.759 62.7278 681.707 62.7632 681.663 62.8079C681.619 62.8525 681.584 62.9054 681.56 62.9636C681.537 63.0217 681.525 63.084 681.526 63.1467V65.3265C681.526 65.4522 681.576 65.5728 681.665 65.6618C681.754 65.7507 681.874 65.8007 682 65.8007Z" fill="black"/>
<path d="M677.18 66.7452C677.243 66.8531 677.346 66.9315 677.467 66.9635C677.588 66.9954 677.717 66.9782 677.826 66.9156C677.934 66.853 678.013 66.7501 678.046 66.6294C678.079 66.5086 678.063 66.3797 678.001 66.2709L676.911 64.3834C676.88 64.329 676.839 64.2812 676.789 64.2429C676.74 64.2045 676.683 64.1763 676.623 64.1599C676.563 64.1435 676.5 64.1392 676.437 64.1472C676.375 64.1553 676.316 64.1755 676.261 64.2068C676.207 64.2381 676.16 64.2798 676.122 64.3295C676.084 64.3792 676.056 64.436 676.04 64.4965C676.024 64.557 676.02 64.62 676.029 64.682C676.037 64.744 676.058 64.8037 676.09 64.8577L677.18 66.7452Z" fill="black"/>
<path d="M674.599 69.3257L672.712 68.2358C672.658 68.2041 672.598 68.1834 672.536 68.1749C672.474 68.1663 672.411 68.1702 672.35 68.1861C672.29 68.2021 672.233 68.2299 672.183 68.2679C672.134 68.3059 672.092 68.3533 672.061 68.4075C672.029 68.4617 672.009 68.5215 672.001 68.5836C671.993 68.6456 671.997 68.7087 672.014 68.769C672.03 68.8294 672.058 68.8859 672.097 68.9354C672.135 68.9848 672.183 69.0261 672.237 69.057L674.125 70.1469C674.179 70.1786 674.239 70.1993 674.301 70.2078C674.363 70.2164 674.426 70.2125 674.486 70.1966C674.547 70.1806 674.603 70.1528 674.653 70.1148C674.703 70.0768 674.745 70.0294 674.776 69.9752C674.807 69.921 674.827 69.8612 674.835 69.7991C674.844 69.7371 674.839 69.674 674.823 69.6137C674.806 69.5533 674.778 69.4967 674.74 69.4473C674.701 69.3979 674.653 69.3565 674.599 69.3257Z" fill="black"/>
</g>
<line x1="658" y1="48" x2="658" y2="96" stroke="#0F62FE" stroke-width="4"/>
</g>
<rect x="656.5" y="48.5" width="351" height="494" stroke="#0F62FE"/>
<rect x="672.5" y="112.5" width="168" height="415" fill="white"/>
<g clip-path="url(#clip2_1484_62697)">
<text fill="black" xml:space="preserve" style="white-space: pre" font-family="IBM Plex Sans" font-size="14" font-weight="600" letter-spacing="0.16px"><tspan x="688" y="141.25">IBM Cloud  </tspan><tspan x="688" y="159.25">Kubernetes Service</tspan></text>
<line x1="674" y1="112" x2="674" y2="178" stroke="#0F62FE" stroke-width="4"/>
</g>
<rect x="672.5" y="112.5" width="168" height="415" stroke="#0F62FE"/>
<rect width="98" height="92" transform="translate(879 176)" fill="white" style="mix-blend-mode:multiply"/>
<rect x="904.5" y="176.5" width="47" height="47" fill="#F4F4F4"/>
<rect width="20" height="20" transform="translate(918 190)" fill="white" style="mix-blend-mode:multiply"/>
<path d="M923.625 197.5V196.25H920.5C920.168 196.25 919.851 196.382 919.616 196.616C919.382 196.851 919.25 197.168 919.25 197.5V207.5C919.25 207.832 919.382 208.149 919.616 208.384C919.851 208.618 920.168 208.75 920.5 208.75H930.5C930.832 208.75 931.149 208.618 931.384 208.384C931.618 208.149 931.75 207.832 931.75 207.5V201.875H930.5V207.5H920.5V197.5" fill="black"/>
<path d="M931.75 197.5H926.75V192.5H931.75V197.5ZM925.5 192.5V197.5C925.5 197.832 925.632 198.149 925.866 198.384C926.101 198.618 926.418 198.75 926.75 198.75H931.75C932.082 198.75 932.399 198.618 932.634 198.384C932.868 198.149 933 197.832 933 197.5V192.5C933 192.168 932.868 191.851 932.634 191.616C932.399 191.382 932.082 191.25 931.75 191.25H926.75C926.418 191.25 926.101 191.382 925.866 191.616C925.632 191.851 925.5 192.168 925.5 192.5Z" fill="black"/>
<path d="M926.75 201.25V203.75H924.25V201.25H926.75ZM923 201.25V203.75C923 204.082 923.132 204.399 923.366 204.634C923.601 204.868 923.918 205 924.25 205H926.75C927.082 205 927.399 204.868 927.634 204.634C927.868 204.399 928 204.082 928 203.75V201.25C928 200.918 927.868 200.601 927.634 200.366C927.399 200.132 927.082 200 926.75 200H924.25C923.918 200 923.601 200.132 923.366 200.366C923.132 200.601 923 200.918 923 201.25Z" fill="black"/>
<path d="M935.5 200.625V201.875H934.25V200.625H935.5ZM933 200V202.5C933 202.666 933.066 202.825 933.183 202.942C933.3 203.059 933.459 203.125 933.625 203.125H936.125C936.291 203.125 936.45 203.059 936.567 202.942C936.684 202.825 936.75 202.666 936.75 202.5V200C936.75 199.834 936.684 199.675 936.567 199.558C936.45 199.441 936.291 199.375 936.125 199.375H933.625C933.459 199.375 933.3 199.441 933.183 199.558C933.066 199.675 933 199.834 933 200Z" fill="black"/>
<rect x="904.5" y="176.5" width="47" height="47" stroke="#8D8D8D"/>
<text fill="black" xml:space="preserve" style="white-space: pre" font-family="IBM Plex Sans" font-size="14" font-weight="600" letter-spacing="0.16px"><tspan x="891.849" y="246.25">IBM Cloud &#10;</tspan><tspan x="879.033" y="264.25">Object Storage</tspan></text>
<rect width="73" height="110" transform="translate(716 399)" fill="white" style="mix-blend-mode:multiply"/>
<rect x="729" y="399.5" width="47" height="47" fill="#F6F2FF"/>
<path d="M729.5 400H775.5V446H729.5V400Z" fill="white"/>
<path d="M729.5 400H775.5V446H729.5V400Z" fill="#F6F2FF"/>
<path d="M753.125 421.125V416.75H747.5V426.75H757.5V421.125H753.125ZM748.75 418H751.875V421.125H748.75V418ZM748.75 422.375H751.875V425.5H748.75V422.375ZM756.25 425.5H753.125V422.375H756.25V425.5Z" fill="#161616"/>
<path d="M760 419.875H754.375V414.25H760V419.875ZM755.625 418.625H758.75V415.5H755.625V418.625Z" fill="#161616"/>
<path d="M760 425.5H758.75V426.75H760V430.5H745V426.75H746.25V425.5H745C744.669 425.5 744.351 425.632 744.117 425.867C743.882 426.101 743.75 426.419 743.75 426.75V430.5C743.75 430.831 743.882 431.149 744.117 431.383C744.351 431.618 744.669 431.75 745 431.75H760C760.331 431.75 760.649 431.618 760.883 431.383C761.118 431.149 761.25 430.831 761.25 430.5V426.75C761.25 426.419 761.118 426.101 760.883 425.867C760.649 425.632 760.331 425.5 760 425.5Z" fill="#161616"/>
<path d="M746.875 429.25C747.22 429.25 747.5 428.97 747.5 428.625C747.5 428.28 747.22 428 746.875 428C746.53 428 746.25 428.28 746.25 428.625C746.25 428.97 746.53 429.25 746.875 429.25Z" fill="#161616"/>
<rect x="729" y="399.5" width="47" height="47" stroke="#A56EFF"/>
<text fill="black" xml:space="preserve" style="white-space: pre" font-family="IBM Plex Sans" font-size="14" font-weight="600" letter-spacing="0.16px" translate="no"><tspan x="716.349" y="469.25">IBM Cloud &#10;</tspan><tspan x="718.345" y="487.25">Container &#10;</tspan><tspan x="725.211" y="505.25">Registry</tspan></text>
<path d="M904 432L899 429.113L899 434.887L904 432ZM777 432L782 434.887L782 429.113L777 432ZM782.84 432.5L786.733 432.5L786.733 431.5L782.84 431.5L782.84 432.5ZM790.626 432.5L794.519 432.5L794.519 431.5L790.626 431.5L790.626 432.5ZM798.412 432.5L802.305 432.5L802.305 431.5L798.412 431.5L798.412 432.5ZM806.199 432.5L810.092 432.5L810.092 431.5L806.199 431.5L806.199 432.5ZM813.985 432.5L817.878 432.5L817.878 431.5L813.985 431.5L813.985 432.5ZM821.771 432.5L825.664 432.5L825.664 431.5L821.771 431.5L821.771 432.5ZM829.557 432.5L833.451 432.5L833.451 431.5L829.557 431.5L829.557 432.5ZM837.344 432.5L841.237 432.5L841.237 431.5L837.344 431.5L837.344 432.5ZM845.13 432.5L849.023 432.5L849.023 431.5L845.13 431.5L845.13 432.5ZM852.916 432.5L854.863 432.5L854.863 431.5L852.916 431.5L852.916 432.5ZM854.863 432.5L856.91 432.5L856.91 431.5L854.863 431.5L854.863 432.5ZM861.005 432.5L865.1 432.5L865.1 431.5L861.005 431.5L861.005 432.5ZM869.194 432.5L873.289 432.5L873.289 431.5L869.194 431.5L869.194 432.5ZM877.384 432.5L881.479 432.5L881.479 431.5L877.384 431.5L877.384 432.5ZM885.574 432.5L889.668 432.5L889.668 431.5L885.574 431.5L885.574 432.5ZM893.763 432.5L897.858 432.5L897.858 431.5L893.763 431.5L893.763 432.5Z" fill="#6F6F6F"/>
<rect width="136" height="128" transform="translate(860 400)" fill="white" style="mix-blend-mode:multiply"/>
<rect x="904.5" y="400.5" width="47" height="47" fill="#F4F4F4"/>
<rect width="20" height="20" transform="translate(918 414)" fill="white" style="mix-blend-mode:multiply"/>
<path d="M932.062 422.125C929.125 422.125 926.75 424.5 926.75 427.438C926.75 430.375 929.125 432.75 932.062 432.75C935 432.75 937.375 430.375 937.375 427.438C937.375 424.5 935 422.125 932.062 422.125ZM936.125 427.125H934.25C934.25 425.875 934.063 424.625 933.688 423.688C935 424.312 936 425.562 936.125 427.125ZM932.062 431.5C931.813 431.375 931.25 430.375 931.125 428.375H932.937C932.812 430.375 932.312 431.375 932.062 431.5ZM931.125 427.125C931.187 424.75 931.812 423.5 932 423.375C932.25 423.5 932.875 424.75 932.937 427.125H931.125ZM930.437 423.688C930.062 424.625 929.937 425.875 929.875 427.125H928C928.125 425.562 929.125 424.312 930.437 423.688ZM928.125 428.375H929.875C929.937 429.375 930.125 430.375 930.437 431.188C929.312 430.687 928.438 429.625 928.125 428.375ZM933.688 431.188C934 430.375 934.187 429.437 934.25 428.375H936.062C935.687 429.625 934.813 430.687 933.688 431.188Z" fill="black"/>
<path d="M934.125 420.25C933.562 417.375 931 415.25 928 415.25C925 415.25 922.437 417.375 921.875 420.313C919.687 420.75 918 422.625 918 424.938C918 427.5 920.125 429.625 922.688 429.625H924.875V428.375H922.688C920.812 428.375 919.25 426.812 919.25 424.938C919.25 423.125 920.625 421.625 922.437 421.5H923V420.938C923.312 418.438 925.437 416.5 928 416.5C930.313 416.5 932.25 418.125 932.813 420.25H934.125Z" fill="black"/>
<rect x="904.5" y="400.5" width="47" height="47" stroke="#8D8D8D"/>
<text fill="black" xml:space="preserve" style="white-space: pre" font-family="IBM Plex Sans" font-size="14" font-weight="600" letter-spacing="0.16px" translate="no"><tspan x="891.849" y="470.25">IBM Cloud &#10;</tspan><tspan x="885.525" y="488.25">Identity and &#10;</tspan><tspan x="860.234" y="506.25">Access Management</tspan></text>
<rect x="216.5" y="48.5" width="207" height="496" fill="white"/>
<g clip-path="url(#clip3_1484_62697)">
<text fill="black" xml:space="preserve" style="white-space: pre" font-family="IBM Plex Sans" font-size="14" font-weight="600" letter-spacing="0.16px"><tspan x="268" y="77.25">User managed</tspan></text>
<path d="M242 67C241.382 67 240.778 67.1833 240.264 67.5267C239.75 67.87 239.349 68.3581 239.113 68.9291C238.876 69.5001 238.814 70.1285 238.935 70.7347C239.056 71.3408 239.353 71.8977 239.79 72.3347C240.227 72.7717 240.784 73.0694 241.39 73.19C241.997 73.3105 242.625 73.2486 243.196 73.0121C243.767 72.7756 244.255 72.3751 244.598 71.8612C244.942 71.3473 245.125 70.7431 245.125 70.125C245.125 69.2962 244.796 68.5013 244.21 67.9153C243.624 67.3292 242.829 67 242 67ZM242 72C241.629 72 241.267 71.89 240.958 71.684C240.65 71.478 240.41 71.1851 240.268 70.8425C240.126 70.4999 240.089 70.1229 240.161 69.7592C240.233 69.3955 240.412 69.0614 240.674 68.7992C240.936 68.537 241.27 68.3584 241.634 68.286C241.998 68.2137 242.375 68.2508 242.718 68.3927C243.06 68.5346 243.353 68.775 243.559 69.0833C243.765 69.3916 243.875 69.7542 243.875 70.125C243.874 70.6221 243.677 71.0987 243.325 71.4502C242.974 71.8017 242.497 71.9994 242 72Z" fill="black"/>
<path d="M242 63.25C240.269 63.25 238.578 63.7632 237.139 64.7246C235.7 65.6861 234.578 67.0527 233.916 68.6515C233.254 70.2504 233.081 72.0097 233.418 73.707C233.756 75.4044 234.589 76.9635 235.813 78.1872C237.037 79.4109 238.596 80.2442 240.293 80.5819C241.99 80.9195 243.75 80.7462 245.348 80.0839C246.947 79.4217 248.314 78.3002 249.275 76.8612C250.237 75.4223 250.75 73.7306 250.75 72C250.747 69.6802 249.825 67.4561 248.184 65.8157C246.544 64.1753 244.32 63.2526 242 63.25ZM238.25 78.4853V77.625C238.251 77.1279 238.448 76.6513 238.8 76.2998C239.151 75.9483 239.628 75.7505 240.125 75.75H243.875C244.372 75.7505 244.849 75.9483 245.2 76.2998C245.552 76.6513 245.749 77.1279 245.75 77.625V78.4853C244.612 79.1498 243.318 79.5 242 79.5C240.682 79.5 239.388 79.1498 238.25 78.4853ZM246.995 77.5786C246.983 76.7588 246.649 75.9766 246.065 75.4008C245.482 74.8249 244.695 74.5014 243.875 74.5H240.125C239.305 74.5014 238.519 74.8249 237.935 75.4008C237.351 75.9766 237.017 76.7588 237.005 77.5786C235.871 76.5666 235.072 75.2342 234.713 73.7578C234.353 72.2814 234.451 70.7307 234.993 69.311C235.534 67.8914 236.494 66.6697 237.746 65.8077C238.997 64.9458 240.481 64.4843 242 64.4843C243.519 64.4843 245.003 64.9458 246.254 65.8077C247.506 66.6697 248.466 67.8914 249.007 69.311C249.549 70.7307 249.647 72.2814 249.287 73.7578C248.928 75.2342 248.129 76.5666 246.995 77.5786Z" fill="black"/>
<line x1="218" y1="48" x2="218" y2="96" stroke="#8D8D8D" stroke-width="4"/>
</g>
<rect x="216.5" y="48.5" width="207" height="496" stroke="#8D8D8D"/>
<path d="M232.5 112.5H400C404.142 112.5 407.5 115.858 407.5 120V304C407.5 308.142 404.142 311.5 400 311.5H240C235.858 311.5 232.5 308.142 232.5 304V112.5Z" fill="white"/>
<path d="M233 113H400C403.866 113 407 116.134 407 120V304C407 307.866 403.866 311 400 311H240C236.134 311 233 307.866 233 304V113Z" fill="#F4F4F4"/>
<g clip-path="url(#clip4_1484_62697)">
<text fill="black" xml:space="preserve" style="white-space: pre" font-family="IBM Plex Sans" font-size="14" font-weight="600" letter-spacing="0.16px"><tspan x="248" y="141.25">Private, VRF enabled </tspan><tspan x="248" y="159.25">environment</tspan></text>
<line x1="234" y1="112" x2="234" y2="178" stroke="#8D8D8D" stroke-width="4"/>
</g>
<path d="M232.5 112.5H400C404.142 112.5 407.5 115.858 407.5 120V304C407.5 308.142 404.142 311.5 400 311.5H240C235.858 311.5 232.5 308.142 232.5 304V112.5Z" stroke="#8D8D8D"/>
<rect width="77" height="110" transform="translate(281 184)" fill="white" style="mix-blend-mode:multiply"/>
<rect x="296" y="184.5" width="47" height="47" fill="#EDF5FF"/>
<rect width="20" height="20" transform="translate(309.5 198)" fill="white" style="mix-blend-mode:multiply"/>
<path d="M327.764 209.227L325.7 208.756C325.887 207.307 325.549 205.838 324.747 204.616L326.334 203.35L325.555 202.373L323.968 203.638C322.945 202.586 321.584 201.929 320.125 201.782V199.875H318.875V201.782C317.416 201.929 316.055 202.586 315.032 203.638L313.445 202.373L312.666 203.35L314.253 204.616C313.451 205.838 313.113 207.307 313.3 208.756L311.236 209.228L311.514 210.446L313.575 209.975C314.044 211.37 314.988 212.555 316.243 213.324L315.412 215.051L316.538 215.593L317.369 213.868C318.744 214.377 320.257 214.377 321.632 213.868L322.463 215.593L323.589 215.051L322.757 213.324C324.012 212.555 324.956 211.37 325.425 209.975L327.486 210.446L327.764 209.227ZM324.5 208C324.5 208.161 324.491 208.319 324.476 208.477L321.351 207.763C321.335 207.637 321.306 207.512 321.265 207.392L323.763 205.4C324.244 206.182 324.499 207.082 324.5 208V208ZM318.875 208C318.875 207.876 318.912 207.756 318.98 207.653C319.049 207.55 319.147 207.47 319.261 207.423C319.375 207.375 319.501 207.363 319.622 207.387C319.743 207.411 319.855 207.471 319.942 207.558C320.029 207.645 320.089 207.757 320.113 207.878C320.137 207.999 320.125 208.125 320.077 208.239C320.03 208.353 319.95 208.451 319.847 208.52C319.744 208.588 319.624 208.625 319.5 208.625C319.334 208.625 319.175 208.559 319.058 208.442C318.941 208.325 318.875 208.166 318.875 208V208ZM322.985 204.421L320.488 206.413C320.373 206.343 320.252 206.285 320.125 206.24V203.043C321.203 203.179 322.207 203.663 322.985 204.421V204.421ZM318.875 203.043V206.24C318.748 206.285 318.627 206.343 318.513 206.413L316.015 204.421C316.793 203.663 317.797 203.179 318.875 203.043V203.043ZM314.5 208C314.501 207.082 314.756 206.182 315.238 205.4L317.735 207.392C317.694 207.512 317.665 207.637 317.649 207.763L314.524 208.476C314.509 208.319 314.5 208.161 314.5 208ZM314.802 209.695L317.912 208.985C317.985 209.106 318.072 209.219 318.171 209.321L316.787 212.194C315.871 211.599 315.174 210.722 314.802 209.695V209.695ZM319.5 213C318.96 212.999 318.424 212.91 317.913 212.737L319.3 209.855C319.367 209.865 319.433 209.872 319.5 209.875C319.567 209.872 319.633 209.865 319.699 209.855L321.088 212.737C320.576 212.911 320.04 212.999 319.5 213V213ZM322.213 212.194L320.829 209.32C320.928 209.219 321.015 209.106 321.088 208.985L324.198 209.695C323.826 210.722 323.129 211.599 322.213 212.194V212.194Z" fill="black"/>
<rect x="296" y="184.5" width="47" height="47" stroke="#0F62FE"/>
<text fill="black" xml:space="preserve" style="white-space: pre" font-family="IBM Plex Sans" font-size="14" font-weight="600" letter-spacing="0.16px"><tspan x="283.349" y="254.25">IBM Cloud &#10;</tspan><tspan x="281.182" y="272.25">Kubernetes&#10;</tspan><tspan x="296.578" y="290.25">cluster</tspan></text>
<path d="M232.5 335.5H400C404.142 335.5 407.5 338.858 407.5 343V520C407.5 524.142 404.142 527.5 400 527.5H240C235.858 527.5 232.5 524.142 232.5 520V335.5Z" fill="white"/>
<path d="M233 336H400C403.866 336 407 339.134 407 343V520C407 523.866 403.866 527 400 527H240C236.134 527 233 523.866 233 520V336Z" fill="#F4F4F4"/>
<g clip-path="url(#clip5_1484_62697)">
<text fill="black" xml:space="preserve" style="white-space: pre" font-family="IBM Plex Sans" font-size="14" font-weight="600" letter-spacing="0.16px"><tspan x="248" y="364.25">Public networking</tspan></text>
<line x1="234" y1="335" x2="234" y2="383" stroke="#8D8D8D" stroke-width="4"/>
</g>
<path d="M232.5 335.5H400C404.142 335.5 407.5 338.858 407.5 343V520C407.5 524.142 404.142 527.5 400 527.5H240C235.858 527.5 232.5 524.142 232.5 520V335.5Z" stroke="#8D8D8D"/>
<rect width="77" height="110" transform="translate(282 400)" fill="white" style="mix-blend-mode:multiply"/>
<rect x="297" y="400.5" width="47" height="47" fill="#EDF5FF"/>
<rect width="20" height="20" transform="translate(310.5 414)" fill="white" style="mix-blend-mode:multiply"/>
<path d="M328.764 425.227L326.7 424.756C326.887 423.307 326.549 421.838 325.747 420.616L327.334 419.35L326.555 418.373L324.968 419.638C323.945 418.586 322.584 417.929 321.125 417.782V415.875H319.875V417.782C318.416 417.929 317.055 418.586 316.032 419.638L314.445 418.373L313.666 419.35L315.253 420.616C314.451 421.838 314.113 423.307 314.3 424.756L312.236 425.228L312.514 426.446L314.575 425.975C315.044 427.37 315.988 428.555 317.243 429.324L316.412 431.051L317.538 431.593L318.369 429.868C319.744 430.377 321.257 430.377 322.632 429.868L323.463 431.593L324.589 431.051L323.757 429.324C325.012 428.555 325.956 427.37 326.425 425.975L328.486 426.446L328.764 425.227ZM325.5 424C325.5 424.161 325.491 424.319 325.476 424.477L322.351 423.763C322.335 423.637 322.306 423.512 322.265 423.392L324.763 421.4C325.244 422.182 325.499 423.082 325.5 424V424ZM319.875 424C319.875 423.876 319.912 423.756 319.98 423.653C320.049 423.55 320.147 423.47 320.261 423.423C320.375 423.375 320.501 423.363 320.622 423.387C320.743 423.411 320.855 423.471 320.942 423.558C321.029 423.645 321.089 423.757 321.113 423.878C321.137 423.999 321.125 424.125 321.077 424.239C321.03 424.353 320.95 424.451 320.847 424.52C320.744 424.588 320.624 424.625 320.5 424.625C320.334 424.625 320.175 424.559 320.058 424.442C319.941 424.325 319.875 424.166 319.875 424V424ZM323.985 420.421L321.488 422.413C321.373 422.343 321.252 422.285 321.125 422.24V419.043C322.203 419.179 323.207 419.663 323.985 420.421V420.421ZM319.875 419.043V422.24C319.748 422.285 319.627 422.343 319.513 422.413L317.015 420.421C317.793 419.663 318.797 419.179 319.875 419.043V419.043ZM315.5 424C315.501 423.082 315.756 422.182 316.238 421.4L318.735 423.392C318.694 423.512 318.665 423.637 318.649 423.763L315.524 424.476C315.509 424.319 315.5 424.161 315.5 424ZM315.802 425.695L318.912 424.985C318.985 425.106 319.072 425.219 319.171 425.321L317.787 428.194C316.871 427.599 316.174 426.722 315.802 425.695V425.695ZM320.5 429C319.96 428.999 319.424 428.91 318.913 428.737L320.3 425.855C320.367 425.865 320.433 425.872 320.5 425.875C320.567 425.872 320.633 425.865 320.699 425.855L322.088 428.737C321.576 428.911 321.04 428.999 320.5 429V429ZM323.213 428.194L321.829 425.32C321.928 425.219 322.015 425.106 322.088 424.985L325.198 425.695C324.826 426.722 324.129 427.599 323.213 428.194V428.194Z" fill="black"/>
<rect x="297" y="400.5" width="47" height="47" stroke="#0F62FE"/>
<text fill="black" xml:space="preserve" style="white-space: pre" font-family="IBM Plex Sans" font-size="14" font-weight="600" letter-spacing="0.16px"><tspan x="284.349" y="470.25">IBM Cloud &#10;</tspan><tspan x="282.182" y="488.25">Kubernetes&#10;</tspan><tspan x="297.578" y="506.25">cluster</tspan></text>
<path d="M296 208L291 205.113L291 210.887L296 208ZM121 208L126 210.887L126 205.113L121 208ZM228.291 208.5L291.5 208.5L291.5 207.5L228.291 207.5L228.291 208.5ZM228.291 207.5L125.5 207.5L125.5 208.5L228.291 208.5L228.291 207.5Z" fill="#6F6F6F"/>
<path d="M728 209L723 206.113L723 211.887L728 209ZM345 209L350 211.887L350 206.113L345 209ZM579.815 209.5L723.5 209.5L723.5 208.5L579.815 208.5L579.815 209.5ZM579.815 208.5L349.5 208.5L349.5 209.5L579.815 209.5L579.815 208.5Z" fill="#6F6F6F"/>
<path d="M729 423L724 420.113L724 425.887L729 423ZM564 423L569 425.887L569 420.113L564 423ZM665.16 423.5L724.5 423.5L724.5 422.5L665.16 422.5L665.16 423.5ZM665.16 422.5L568.5 422.5L568.5 423.5L665.16 423.5L665.16 422.5Z" fill="#6F6F6F"/>
<path d="M904 201L899 198.113V203.887L904 201ZM777 416L782 418.887V413.113L777 416ZM782.932 416.5H786.887V415.5H782.932V416.5ZM790.841 416.5H794.796V415.5H790.841V416.5ZM798.75 416.5H802.705V415.5H798.75V416.5ZM806.66 416.5H810.614V415.5H806.66V416.5ZM814.569 416.5H818.523V415.5H814.569V416.5ZM822.478 416.5H826.433V415.5H822.478V416.5ZM830.387 416.5H834.342V415.5H830.387V416.5ZM838.296 416.5H842.251V415.5H838.296V416.5ZM846.206 416.5H848.183V415.5H846.206V416.5ZM848.183 416.5C848.75 416.5 849.304 416.444 849.841 416.338L849.647 415.357C849.174 415.451 848.684 415.5 848.183 415.5V416.5ZM852.906 415.068C853.833 414.448 854.631 413.65 855.251 412.723L854.42 412.167C853.872 412.985 853.168 413.689 852.35 414.237L852.906 415.068ZM856.521 409.658C856.627 409.122 856.683 408.567 856.683 408H855.683C855.683 408.502 855.634 408.991 855.54 409.464L856.521 409.658ZM856.683 408V406.01H855.683V408H856.683ZM856.683 402.03V398.05H855.683V402.03H856.683ZM856.683 394.07V390.09H855.683V394.07H856.683ZM856.683 386.11V382.13H855.683V386.11H856.683ZM856.683 378.15V374.17H855.683V378.15H856.683ZM856.683 370.19V366.21H855.683V370.19H856.683ZM856.683 362.23V358.25H855.683V362.23H856.683ZM856.683 354.27V350.29H855.683V354.27H856.683ZM856.683 346.31V342.33H855.683V346.31H856.683ZM856.683 338.35V334.37H855.683V338.35H856.683ZM856.683 330.39V326.41H855.683V330.39H856.683ZM856.683 322.43V318.45H855.683V322.43H856.683ZM856.683 314.47V310.49H855.683V314.47H856.683ZM856.683 306.51V302.53H855.683V306.51H856.683ZM856.683 298.55V294.57H855.683V298.55H856.683ZM856.683 290.59V286.61H855.683V290.59H856.683ZM856.683 282.63V278.65H855.683V282.63H856.683ZM856.683 274.67V270.69H855.683V274.67H856.683ZM856.683 266.71V262.73H855.683V266.71H856.683ZM856.683 258.75V254.77H855.683V258.75H856.683ZM856.683 250.79V246.81H855.683V250.79H856.683ZM856.683 242.83V238.85H855.683V242.83H856.683ZM856.683 234.87V230.89H855.683V234.87H856.683ZM856.683 226.91V222.93H855.683V226.91H856.683ZM856.683 218.95V214.97H855.683V218.95H856.683ZM856.683 210.99V209H855.683V210.99H856.683ZM856.683 209C856.683 208.498 856.732 208.009 856.826 207.536L855.845 207.342C855.739 207.878 855.683 208.433 855.683 209H856.683ZM857.946 204.833C858.494 204.015 859.198 203.311 860.016 202.763L859.46 201.932C858.533 202.552 857.735 203.35 857.115 204.277L857.946 204.833ZM862.719 201.643C863.192 201.549 863.681 201.5 864.183 201.5V200.5C863.616 200.5 863.061 200.556 862.525 200.662L862.719 201.643ZM864.183 201.5H866.174V200.5H864.183V201.5ZM870.155 201.5H874.137V200.5H870.155V201.5ZM878.119 201.5H882.101V200.5H878.119V201.5ZM886.082 201.5H890.064V200.5H886.082V201.5ZM894.046 201.5H898.027V200.5H894.046V201.5Z" fill="#6F6F6F"/>
<path d="M564 424L559 421.113V426.887L564 424ZM344 424L349 426.887V421.113L344 424ZM478.88 424.5H559.5V423.5H478.88V424.5ZM478.88 423.5H348.5V424.5H478.88V423.5Z" fill="#6F6F6F"/>
<rect x="469.5" y="416.5" width="50" height="15" rx="7.5" fill="white"/>
<text fill="black" xml:space="preserve" style="white-space: pre" font-family="IBM Plex Sans" font-size="12" letter-spacing="0.32px"><tspan x="477" y="427.5">Public</tspan></text>
<rect x="469.5" y="416.5" width="50" height="15" rx="7.5" stroke="black"/>
<rect width="48" height="48" transform="translate(564 400)" fill="black"/>
<rect width="20" height="20" transform="translate(578 414)" fill="white" style="mix-blend-mode:multiply"/>
<path d="M588 418.375C588.317 418.375 588.633 418.406 588.944 418.469C589.926 418.657 590.828 419.135 591.536 419.841C592.243 420.548 592.723 421.45 592.912 422.431L593.075 423.275L593.919 423.425C594.771 423.572 595.537 424.034 596.063 424.72C596.589 425.406 596.838 426.265 596.759 427.126C596.68 427.987 596.28 428.787 595.638 429.366C594.995 429.945 594.158 430.261 593.294 430.25H582.687C581.823 430.261 580.986 429.945 580.344 429.366C579.701 428.787 579.301 427.987 579.222 427.126C579.143 426.265 579.392 425.406 579.918 424.72C580.445 424.034 581.21 423.572 582.062 423.425L582.9 423.275L583.062 422.431C583.283 421.285 583.897 420.252 584.799 419.511C585.7 418.771 586.833 418.369 588 418.375ZM588 417.125C586.545 417.124 585.136 417.63 584.014 418.556C582.893 419.483 582.13 420.771 581.856 422.2C580.705 422.408 579.674 423.04 578.964 423.97C578.255 424.9 577.919 426.062 578.022 427.227C578.125 428.392 578.661 429.476 579.523 430.267C580.385 431.058 581.511 431.497 582.681 431.5H593.306C594.476 431.497 595.602 431.058 596.465 430.267C597.327 429.476 597.862 428.392 597.965 427.227C598.069 426.062 597.733 424.9 597.023 423.97C596.314 423.04 595.282 422.408 594.131 422.2C593.896 420.971 593.297 419.841 592.412 418.956C591.527 418.072 590.398 417.473 589.169 417.238C588.783 417.164 588.392 417.127 588 417.125Z" fill="white"/>
<text fill="black" xml:space="preserve" style="white-space: pre" font-family="IBM Plex Sans" font-size="14" font-weight="600" letter-spacing="0.16px"><tspan x="568.874" y="470.25">Cloud&#10;</tspan><tspan x="560.486" y="488.25">Internet&#10;</tspan><tspan x="560.204" y="506.25">gateway</tspan></text>
<rect x="513.5" y="200.5" width="55" height="15" rx="7.5" fill="white"/>
<text fill="black" xml:space="preserve" style="white-space: pre" font-family="IBM Plex Sans" font-size="12" letter-spacing="0.32px"><tspan x="521" y="211.5">Private</tspan></text>
<rect x="513.5" y="200.5" width="55" height="15" rx="7.5" stroke="black"/>
<rect width="48" height="48" transform="translate(73 185)" fill="white" style="mix-blend-mode:multiply"/>
<circle cx="97" cy="209" r="24" fill="black"/>
<rect width="20" height="20" transform="translate(87 199)" fill="white" style="mix-blend-mode:multiply"/>
<path d="M97 201.5C97.6181 201.5 98.2223 201.683 98.7362 202.027C99.2501 202.37 99.6506 202.858 99.8871 203.429C100.124 204 100.186 204.628 100.065 205.235C99.9444 205.841 99.6467 206.398 99.2097 206.835C98.7727 207.272 98.2158 207.569 97.6097 207.69C97.0035 207.811 96.3751 207.749 95.8041 207.512C95.2331 207.276 94.745 206.875 94.4017 206.361C94.0583 205.847 93.875 205.243 93.875 204.625C93.875 203.796 94.2042 203.001 94.7903 202.415C95.3763 201.829 96.1712 201.5 97 201.5ZM97 200.25C96.1347 200.25 95.2888 200.507 94.5694 200.987C93.8499 201.468 93.2892 202.151 92.958 202.951C92.6269 203.75 92.5403 204.63 92.7091 205.479C92.8779 206.327 93.2946 207.107 93.9064 207.719C94.5183 208.33 95.2978 208.747 96.1465 208.916C96.9951 209.085 97.8748 208.998 98.6742 208.667C99.4737 208.336 100.157 207.775 100.638 207.056C101.118 206.336 101.375 205.49 101.375 204.625C101.375 203.465 100.914 202.352 100.094 201.531C99.2731 200.711 98.1603 200.25 97 200.25Z" fill="white"/>
<path d="M103.25 217.75H102V214.625C102 214.215 101.919 213.808 101.762 213.429C101.605 213.05 101.375 212.705 101.085 212.415C100.795 212.125 100.45 211.895 100.071 211.738C99.6917 211.581 99.2854 211.5 98.875 211.5H95.125C94.2962 211.5 93.5013 211.829 92.9153 212.415C92.3292 213.001 92 213.796 92 214.625V217.75H90.75V214.625C90.75 213.465 91.2109 212.352 92.0314 211.531C92.8519 210.711 93.9647 210.25 95.125 210.25H98.875C100.035 210.25 101.148 210.711 101.969 211.531C102.789 212.352 103.25 213.465 103.25 214.625V217.75Z" fill="white"/>
<text fill="black" xml:space="preserve" style="white-space: pre" font-family="IBM Plex Sans" font-size="14" font-weight="600" letter-spacing="0.16px"><tspan x="81.7825" y="255.25">User</tspan></text>
<path d="M297.5 424L292.5 426.887V421.113L297.5 424ZM168.673 416V216H169.673V416H168.673ZM161.173 208.5H143V207.5H161.173V208.5ZM177.173 423.5H293V424.5H177.173V423.5ZM168.673 216C168.673 211.858 165.315 208.5 161.173 208.5V207.5C165.867 207.5 169.673 211.306 169.673 216H168.673ZM169.673 416C169.673 420.142 173.031 423.5 177.173 423.5V424.5C172.478 424.5 168.673 420.694 168.673 416H169.673Z" fill="#6F6F6F"/>
<rect width="60" height="92" transform="translate(722 184)" fill="white" style="mix-blend-mode:multiply"/>
<rect x="728.5" y="184.5" width="47" height="47" fill="#EDF5FF"/>
<path d="M752 202.375C752.317 202.375 752.633 202.406 752.944 202.469C753.926 202.657 754.828 203.135 755.536 203.841C756.243 204.548 756.723 205.45 756.912 206.431L757.075 207.275L757.919 207.425C758.771 207.572 759.537 208.034 760.063 208.72C760.589 209.406 760.838 210.265 760.759 211.126C760.68 211.987 760.28 212.787 759.638 213.366C758.995 213.945 758.158 214.261 757.294 214.25H746.687C745.823 214.261 744.986 213.945 744.344 213.366C743.701 212.787 743.301 211.987 743.222 211.126C743.143 210.265 743.392 209.406 743.918 208.72C744.445 208.034 745.21 207.572 746.062 207.425L746.9 207.275L747.062 206.431C747.283 205.285 747.897 204.252 748.799 203.511C749.7 202.771 750.833 202.369 752 202.375ZM752 201.125C750.545 201.124 749.136 201.63 748.014 202.556C746.893 203.483 746.13 204.771 745.856 206.2C744.705 206.408 743.674 207.04 742.964 207.97C742.255 208.9 741.919 210.062 742.022 211.227C742.125 212.392 742.661 213.476 743.523 214.267C744.385 215.058 745.511 215.497 746.681 215.5H757.306C758.476 215.497 759.602 215.058 760.465 214.267C761.327 213.476 761.862 212.392 761.965 211.227C762.069 210.062 761.733 208.9 761.023 207.97C760.314 207.04 759.282 206.408 758.131 206.2C757.896 204.971 757.297 203.841 756.412 202.956C755.527 202.072 754.398 201.473 753.169 201.237C752.783 201.164 752.392 201.127 752 201.125Z" fill="#161616"/>
<rect x="728.5" y="184.5" width="47" height="47" stroke="#0F62FE"/>
<text fill="black" xml:space="preserve" style="white-space: pre" font-family="IBM Plex Sans" font-size="14" font-weight="600" letter-spacing="0.16px"><tspan x="725.737" y="254.25">Service &#10;</tspan><tspan x="722.415" y="272.25">endpoint</tspan></text>
<path d="M760 280L757.113 285L762.887 285L760 280ZM760 400L762.887 395L757.113 395L760 400ZM760.5 393.869L760.5 389.782L759.5 389.782L759.5 393.869L760.5 393.869ZM760.5 385.695L760.5 381.607L759.5 381.607L759.5 385.695L760.5 385.695ZM760.5 377.52L760.5 373.433L759.5 373.433L759.5 377.52L760.5 377.52ZM760.5 369.345L760.5 365.258L759.5 365.258L759.5 369.345L760.5 369.345ZM760.5 361.171L760.5 357.084L759.5 357.084L759.5 361.171L760.5 361.171ZM760.5 352.996L760.5 348.909L759.5 348.909L759.5 352.996L760.5 352.996ZM760.5 344.822L760.5 340.734L759.5 340.734L759.5 344.822L760.5 344.822ZM760.5 336.647L760.5 332.56L759.5 332.56L759.5 336.647L760.5 336.647ZM760.5 328.473L760.5 326.429L759.5 326.429L759.5 328.473L760.5 328.473ZM760.5 326.429L760.5 324.494L759.5 324.494L759.5 326.429L760.5 326.429ZM760.5 320.625L760.5 316.756L759.5 316.756L759.5 320.625L760.5 320.625ZM760.5 312.887L760.5 309.018L759.5 309.018L759.5 312.887L760.5 312.887ZM760.5 305.149L760.5 301.28L759.5 301.28L759.5 305.149L760.5 305.149ZM760.5 297.411L760.5 293.542L759.5 293.542L759.5 297.411L760.5 297.411ZM760.5 289.673L760.5 285.804L759.5 285.804L759.5 289.673L760.5 289.673Z" fill="#6F6F6F"/>
<path d="M744 400L746.887 395L741.113 395L744 400ZM744 280L741.113 285L746.887 285L744 280ZM743.5 353.571L743.5 395.5L744.5 395.5L744.5 353.571L743.5 353.571ZM744.5 353.571L744.5 284.5L743.5 284.5L743.5 353.571L744.5 353.571Z" fill="#6F6F6F"/>
<defs>
<clipPath id="clip0_1484_62697">
<rect width="352" height="48" fill="white" transform="translate(656 48)"/>
</clipPath>
<clipPath id="clip1_1484_62697">
<rect width="20" height="20" fill="white" transform="translate(672 62)"/>
</clipPath>
<clipPath id="clip2_1484_62697">
<rect width="169" height="66" fill="white" transform="translate(672 112)"/>
</clipPath>
<clipPath id="clip3_1484_62697">
<rect width="208" height="48" fill="white" transform="translate(216 48)"/>
</clipPath>
<clipPath id="clip4_1484_62697">
<rect width="176" height="66" fill="white" transform="translate(232 112)"/>
</clipPath>
<clipPath id="clip5_1484_62697">
<rect width="176" height="48" fill="white" transform="translate(232 335)"/>
</clipPath>
</defs>
</svg>
