<svg width="1080" height="270" viewBox="0 0 1080 270" fill="none" xmlns="http://www.w3.org/2000/svg">
<rect width="1080" height="270" fill="#F4F4F4"/>
<path d="M56 207.5H72C76.1421 207.5 79.5 210.858 79.5 215C79.5 219.142 76.1421 222.5 72 222.5H56C51.8579 222.5 48.5 219.142 48.5 215C48.5 210.858 51.8579 207.5 56 207.5Z" fill="white" stroke="#697077"/>
<text fill="#697077" xml:space="preserve" style="white-space: pre" font-family="IBM Plex Sans" font-size="14" letter-spacing="0.0016em"><tspan x="88" y="220.25">Flow direction</tspan></text>
<rect width="124" height="92" transform="translate(234 88)" fill="white" style="mix-blend-mode:multiply"/>
<rect x="272.5" y="88.5" width="47" height="47" fill="#F6F2FF"/>
<path d="M273 89H319V135H273V89Z" fill="white"/>
<path d="M273 89H319V135H273V89Z" fill="#F6F2FF"/>
<rect width="20" height="20" transform="translate(286 102)" fill="white" style="mix-blend-mode:multiply"/>
<path d="M296.625 110.125V105.75H291V115.75H301V110.125H296.625ZM292.25 107H295.375V110.125H292.25V107ZM292.25 111.375H295.375V114.5H292.25V111.375ZM299.75 114.5H296.625V111.375H299.75V114.5Z" fill="black"/>
<path d="M303.5 108.875H297.875V103.25H303.5V108.875ZM299.125 107.625H302.25V104.5H299.125V107.625Z" fill="black"/>
<path d="M303.5 114.5H302.25V115.75H303.5V119.5H288.5V115.75H289.75V114.5H288.5C288.169 114.5 287.851 114.632 287.617 114.867C287.382 115.101 287.25 115.419 287.25 115.75V119.5C287.25 119.831 287.382 120.149 287.617 120.383C287.851 120.618 288.169 120.75 288.5 120.75H303.5C303.831 120.75 304.149 120.618 304.383 120.383C304.618 120.149 304.75 119.831 304.75 119.5V115.75C304.75 115.419 304.618 115.101 304.383 114.867C304.149 114.632 303.831 114.5 303.5 114.5Z" fill="black"/>
<path d="M290.375 118.25C290.72 118.25 291 117.97 291 117.625C291 117.28 290.72 117 290.375 117C290.03 117 289.75 117.28 289.75 117.625C289.75 117.97 290.03 118.25 290.375 118.25Z" fill="black"/>
<rect x="272.5" y="88.5" width="47" height="47" stroke="#A56EFF"/>
<text fill="black" xml:space="preserve" style="white-space: pre" font-family="IBM Plex Sans" font-size="14" font-weight="600" letter-spacing="0.16px"><tspan x="270.701" y="158.25">Private &#10;</tspan><tspan x="234.313" y="176.25">IBM Cloud registry</tspan></text>
<rect width="70" height="92" transform="translate(489 88)" fill="white" style="mix-blend-mode:multiply"/>
<rect width="48" height="48" transform="translate(500 88)" fill="black"/>
<rect width="20" height="20" transform="translate(514 102)" fill="white" style="mix-blend-mode:multiply"/>
<path d="M530.25 117.003H517.75C517.419 117.003 517.101 116.871 516.867 116.637C516.632 116.402 516.5 116.084 516.5 115.753V107.003C516.5 106.672 516.632 106.354 516.866 106.12C517.101 105.885 517.419 105.753 517.75 105.753H530.25C530.581 105.753 530.899 105.885 531.133 106.12C531.368 106.354 531.5 106.672 531.5 107.003V115.753C531.5 116.084 531.368 116.402 531.133 116.636C530.899 116.871 530.581 117.003 530.25 117.003ZM517.75 107.003V115.753H530.25V107.003H517.75Z" fill="white"/>
<path d="M532.75 118.253H515.25V119.503H532.75V118.253Z" fill="white"/>
<text fill="black" xml:space="preserve" style="white-space: pre" font-family="IBM Plex Sans" font-size="14" font-weight="600" letter-spacing="0.16px"><tspan x="489.499" y="158.25">Your local &#10;</tspan><tspan x="492.172" y="176.25">computer</tspan></text>
<rect width="130" height="92" transform="translate(687 88)" fill="white" style="mix-blend-mode:multiply"/>
<rect width="48" height="48" transform="translate(728 88)" fill="#8D8D8D"/>
<rect width="20" height="20" transform="translate(742 102)" fill="white" style="mix-blend-mode:multiply"/>
<path d="M757 103.875H747C746.668 103.875 746.351 104.007 746.116 104.241C745.882 104.476 745.75 104.793 745.75 105.125V118.875C745.75 119.207 745.882 119.524 746.116 119.759C746.351 119.993 746.668 120.125 747 120.125H757C757.332 120.125 757.649 119.993 757.884 119.759C758.118 119.524 758.25 119.207 758.25 118.875V105.125C758.25 104.793 758.118 104.476 757.884 104.241C757.649 104.007 757.332 103.875 757 103.875ZM757 105.125V108.875H747V105.125H757ZM747 113.875V110.125H757V113.875H747ZM747 118.875V115.125H757V118.875H747Z" fill="white"/>
<path d="M748.875 107.625C749.22 107.625 749.5 107.345 749.5 107C749.5 106.655 749.22 106.375 748.875 106.375C748.53 106.375 748.25 106.655 748.25 107C748.25 107.345 748.53 107.625 748.875 107.625Z" fill="white"/>
<path d="M748.875 112.625C749.22 112.625 749.5 112.345 749.5 112C749.5 111.655 749.22 111.375 748.875 111.375C748.53 111.375 748.25 111.655 748.25 112C748.25 112.345 748.53 112.625 748.875 112.625Z" fill="white"/>
<path d="M748.875 117.625C749.22 117.625 749.5 117.345 749.5 117C749.5 116.655 749.22 116.375 748.875 116.375C748.53 116.375 748.25 116.655 748.25 117C748.25 117.345 748.53 117.625 748.875 117.625Z" fill="white"/>
<text fill="black" xml:space="preserve" style="white-space: pre" font-family="IBM Plex Sans" font-size="14" font-weight="600" letter-spacing="0.16px"><tspan x="694.809" y="158.25">Any other private&#10;</tspan><tspan x="687.193" y="176.25">or public repository</tspan></text>
<path d="M320 112L325 114.887L325 109.113L320 112ZM389.643 111.5L324.5 111.5L324.5 112.5L389.643 112.5L389.643 111.5ZM389.643 112.5L500 112.5L500 111.5L389.643 111.5L389.643 112.5Z" fill="#6F6F6F"/>
<rect x="387.5" y="104.5" width="43" height="15" rx="7.5" fill="white"/>
<text fill="black" xml:space="preserve" style="white-space: pre" font-family="IBM Plex Sans" font-size="12" letter-spacing="0.32px"><tspan x="395" y="115.5">Push</tspan></text>
<rect x="387.5" y="104.5" width="43" height="15" rx="7.5" stroke="black"/>
<path d="M548 112L553 114.887L553 109.113L548 112ZM617.643 111.5L552.5 111.5L552.5 112.5L617.643 112.5L617.643 111.5ZM617.643 112.5L728 112.5L728 111.5L617.643 111.5L617.643 112.5Z" fill="#6F6F6F"/>
<rect x="591.5" y="104.5" width="104" height="15" rx="7.5" fill="white"/>
<text fill="black" xml:space="preserve" style="white-space: pre" font-family="IBM Plex Sans" font-size="12" letter-spacing="0.32px"><tspan x="599" y="115.5">Pull / download</tspan></text>
<rect x="591.5" y="104.5" width="104" height="15" rx="7.5" stroke="black"/>
</svg>
