<svg width="1080" height="270" viewBox="0 0 1080 270" fill="none" xmlns="http://www.w3.org/2000/svg">
<rect width="1080" height="270" fill="#F4F4F4"/>
<path d="M56 207.5H72C76.1421 207.5 79.5 210.858 79.5 215C79.5 219.142 76.1421 222.5 72 222.5H56C51.8579 222.5 48.5 219.142 48.5 215C48.5 210.858 51.8579 207.5 56 207.5Z" fill="white" stroke="#697077"/>
<path d="M90.478 220V215.576H94.72V214.54H90.478V211.264H95.126V210.228H89.302V220H90.478ZM99.2167 220V219.02H98.1527V209.64H97.0327V218.838C97.0327 219.51 97.4527 220 98.2227 220H99.2167ZM103.6 220.168C105.532 220.168 106.862 218.684 106.862 216.388C106.862 214.092 105.532 212.608 103.6 212.608C101.668 212.608 100.338 214.092 100.338 216.388C100.338 218.684 101.668 220.168 103.6 220.168ZM103.6 219.174C102.396 219.174 101.542 218.432 101.542 216.906V215.87C101.542 214.344 102.396 213.602 103.6 213.602C104.804 213.602 105.658 214.344 105.658 215.87V216.906C105.658 218.432 104.804 219.174 103.6 219.174ZM109.834 220H111.192L112.2 216.528L112.816 214.33H112.844L113.474 216.528L114.482 220H115.868L117.786 212.776H116.736L115.952 215.898L115.21 219.062H115.182L114.286 215.898L113.348 212.776H112.354L111.444 215.898L110.562 219.062H110.534L109.764 215.898L108.994 212.776H107.902L109.834 220ZM127.377 220H128.497V209.64H127.377V213.952H127.321C126.943 213.042 126.201 212.608 125.207 212.608C123.401 212.608 122.267 214.078 122.267 216.388C122.267 218.698 123.401 220.168 125.207 220.168C126.201 220.168 126.887 219.72 127.321 218.824H127.377V220ZM125.515 219.16C124.255 219.16 123.471 218.292 123.471 217.004V215.772C123.471 214.484 124.255 213.616 125.515 213.616C126.537 213.616 127.377 214.204 127.377 215.002V217.69C127.377 218.628 126.537 219.16 125.515 219.16ZM131.461 211.082C131.937 211.082 132.147 210.83 132.147 210.452V210.27C132.147 209.892 131.937 209.64 131.461 209.64C130.985 209.64 130.775 209.892 130.775 210.27V210.452C130.775 210.83 130.985 211.082 131.461 211.082ZM130.901 220H132.021V212.776H130.901V220ZM135.543 220V215.1C135.543 214.414 136.271 213.896 137.475 213.896H138.133V212.776H137.699C136.523 212.776 135.865 213.42 135.613 214.106H135.543V212.776H134.423V220H135.543ZM142.234 220.168C143.592 220.168 144.628 219.496 145.09 218.516L144.292 217.942C143.914 218.74 143.214 219.188 142.304 219.188C140.96 219.188 140.162 218.25 140.162 217.004V216.668H145.356V216.136C145.356 214.092 144.166 212.608 142.234 212.608C140.274 212.608 138.986 214.092 138.986 216.388C138.986 218.684 140.274 220.168 142.234 220.168ZM142.234 213.546C143.382 213.546 144.152 214.4 144.152 215.674V215.828H140.162V215.73C140.162 214.47 141.016 213.546 142.234 213.546ZM149.912 220.168C151.284 220.168 152.222 219.496 152.684 218.46L151.872 217.914C151.48 218.74 150.822 219.174 149.912 219.174C148.582 219.174 147.896 218.264 147.896 217.004V215.772C147.896 214.512 148.582 213.602 149.912 213.602C150.794 213.602 151.41 214.036 151.676 214.778L152.614 214.302C152.194 213.308 151.34 212.608 149.912 212.608C147.882 212.608 146.692 214.078 146.692 216.388C146.692 218.698 147.882 220.168 149.912 220.168ZM157.283 220V219.02H155.813V213.756H157.395V212.776H155.813V210.774H154.805V212.118C154.805 212.608 154.651 212.776 154.175 212.776H153.503V213.756H154.693V218.81C154.693 219.51 155.113 220 155.883 220H157.283ZM159.778 211.082C160.254 211.082 160.464 210.83 160.464 210.452V210.27C160.464 209.892 160.254 209.64 159.778 209.64C159.302 209.64 159.092 209.892 159.092 210.27V210.452C159.092 210.83 159.302 211.082 159.778 211.082ZM159.218 220H160.338V212.776H159.218V220ZM165.47 220.168C167.402 220.168 168.732 218.684 168.732 216.388C168.732 214.092 167.402 212.608 165.47 212.608C163.538 212.608 162.208 214.092 162.208 216.388C162.208 218.684 163.538 220.168 165.47 220.168ZM165.47 219.174C164.266 219.174 163.412 218.432 163.412 216.906V215.87C163.412 214.344 164.266 213.602 165.47 213.602C166.674 213.602 167.528 214.344 167.528 215.87V216.906C167.528 218.432 166.674 219.174 165.47 219.174ZM171.716 220V214.988C171.716 214.064 172.584 213.616 173.48 213.616C174.558 213.616 175.118 214.274 175.118 215.562V220H176.238V215.366C176.238 213.616 175.3 212.608 173.816 212.608C172.738 212.608 172.122 213.14 171.772 213.952H171.716V212.776H170.596V220H171.716Z" fill="#697077"/>
<rect width="124" height="92" transform="translate(234 88)" fill="white" style="mix-blend-mode:multiply"/>
<rect x="272.5" y="88.5" width="47" height="47" fill="#F6F2FF"/>
<path d="M273 89H319V135H273V89Z" fill="white"/>
<path d="M273 89H319V135H273V89Z" fill="#F6F2FF"/>
<rect width="20" height="20" transform="translate(286 102)" fill="white" style="mix-blend-mode:multiply"/>
<path d="M296.625 110.125V105.75H291V115.75H301V110.125H296.625ZM292.25 107H295.375V110.125H292.25V107ZM292.25 111.375H295.375V114.5H292.25V111.375ZM299.75 114.5H296.625V111.375H299.75V114.5Z" fill="black"/>
<path d="M303.5 108.875H297.875V103.25H303.5V108.875ZM299.125 107.625H302.25V104.5H299.125V107.625Z" fill="black"/>
<path d="M303.5 114.5H302.25V115.75H303.5V119.5H288.5V115.75H289.75V114.5H288.5C288.169 114.5 287.851 114.632 287.617 114.867C287.382 115.101 287.25 115.419 287.25 115.75V119.5C287.25 119.831 287.382 120.149 287.617 120.383C287.851 120.618 288.169 120.75 288.5 120.75H303.5C303.831 120.75 304.149 120.618 304.383 120.383C304.618 120.149 304.75 119.831 304.75 119.5V115.75C304.75 115.419 304.618 115.101 304.383 114.867C304.149 114.632 303.831 114.5 303.5 114.5Z" fill="black"/>
<path d="M290.375 118.25C290.72 118.25 291 117.97 291 117.625C291 117.28 290.72 117 290.375 117C290.03 117 289.75 117.28 289.75 117.625C289.75 117.97 290.03 118.25 290.375 118.25Z" fill="black"/>
<rect x="272.5" y="88.5" width="47" height="47" stroke="#A56EFF"/>
<path d="M273.697 158V154.276H276.245C278.051 154.276 279.143 153.072 279.143 151.252C279.143 149.446 278.051 148.228 276.245 148.228H271.849V158H273.697ZM273.697 149.838H276.077C276.791 149.838 277.225 150.216 277.225 150.93V151.574C277.225 152.288 276.791 152.68 276.077 152.68H273.697V149.838ZM282.521 158V153.52C282.521 152.722 283.151 152.386 284.355 152.386H284.915V150.692H284.523C283.361 150.692 282.773 151.434 282.591 152.204H282.521V150.692H280.729V158H282.521ZM287.281 149.628C288.009 149.628 288.331 149.25 288.331 148.732V148.452C288.331 147.934 288.009 147.556 287.281 147.556C286.539 147.556 286.231 147.934 286.231 148.452V148.732C286.231 149.25 286.539 149.628 287.281 149.628ZM286.385 158H288.177V150.692H286.385V158ZM294.11 158L296.56 150.692H294.852L293.858 153.842L293.144 156.446H293.046L292.332 153.842L291.31 150.692H289.546L291.982 158H294.11ZM299.599 158.168C300.691 158.168 301.489 157.678 301.727 156.74H301.811C301.923 157.496 302.399 158 303.169 158H304.163V156.572H303.435V153.128C303.435 151.462 302.385 150.524 300.411 150.524C298.941 150.524 298.087 151.084 297.555 151.924L298.619 152.876C298.969 152.372 299.445 151.952 300.285 151.952C301.237 151.952 301.643 152.428 301.643 153.24V153.772H300.397C298.409 153.772 297.275 154.514 297.275 156.012C297.275 157.314 298.115 158.168 299.599 158.168ZM300.201 156.866C299.501 156.866 299.095 156.572 299.095 155.984V155.746C299.095 155.172 299.557 154.85 300.495 154.85H301.643V155.816C301.643 156.502 300.999 156.866 300.201 156.866ZM308 158H309.288V156.572H307.902V152.12H309.4V150.692H307.902V148.69H306.292V149.936C306.292 150.44 306.124 150.692 305.592 150.692H305.032V152.12H306.11V156.138C306.11 157.328 306.768 158 308 158ZM314.014 158.168C315.372 158.168 316.436 157.65 317.038 156.824L316.072 155.746C315.624 156.32 315.092 156.74 314.21 156.74C313.034 156.74 312.432 156.026 312.432 154.976V154.794H317.29V154.206C317.29 152.204 316.24 150.524 313.958 150.524C311.816 150.524 310.57 152.022 310.57 154.332C310.57 156.67 311.858 158.168 314.014 158.168ZM313.986 151.868C314.91 151.868 315.428 152.554 315.428 153.562V153.688H312.432V153.576C312.432 152.568 313.048 151.868 313.986 151.868ZM239.493 176V174.516H238.191V167.712H239.493V166.228H235.055V167.712H236.343V174.516H235.055V176H239.493ZM241.541 176H246.497C247.939 176 249.017 174.768 249.017 173.2C249.017 171.534 247.757 170.932 246.903 170.918V170.834C247.799 170.778 248.653 170.218 248.653 168.734C248.653 167.222 247.673 166.228 246.063 166.228H241.541V176ZM243.389 171.814H245.965C246.665 171.814 247.085 172.206 247.085 172.892V173.368C247.085 174.054 246.665 174.432 245.965 174.432H243.389V171.814ZM243.389 167.796H245.671C246.343 167.796 246.735 168.174 246.735 168.832V169.266C246.735 169.91 246.343 170.302 245.671 170.302H243.389V167.796ZM250.984 176H252.734V168.986H252.79L253.546 170.54L255.548 174.236L257.55 170.54L258.306 168.986H258.362V176H260.112V166.228H258.11L255.632 171.002H255.576L253.07 166.228H250.984V176ZM269.836 176.168C271.586 176.168 272.748 175.314 273.448 173.858L271.95 172.976C271.628 173.858 270.942 174.53 269.836 174.53C268.464 174.53 267.582 173.578 267.582 171.898V170.358C267.582 168.692 268.464 167.698 269.836 167.698C270.928 167.698 271.544 168.286 271.824 169.154L273.406 168.314C272.72 166.802 271.586 166.06 269.836 166.06C267.26 166.06 265.622 167.894 265.622 171.184C265.622 174.474 267.26 176.168 269.836 176.168ZM277.831 176V174.572H276.865V165.64H275.073V174.236C275.073 175.356 275.647 176 276.865 176H277.831ZM282.246 176.168C284.346 176.168 285.648 174.684 285.648 172.332C285.648 169.994 284.346 168.524 282.246 168.524C280.16 168.524 278.858 169.994 278.858 172.332C278.858 174.684 280.16 176.168 282.246 176.168ZM282.246 174.726C281.322 174.726 280.734 174.124 280.734 173.018V171.66C280.734 170.568 281.322 169.966 282.246 169.966C283.184 169.966 283.772 170.568 283.772 171.66V173.018C283.772 174.124 283.184 174.726 282.246 174.726ZM291.765 176H293.557V168.692H291.765V173.522C291.765 174.306 291.051 174.684 290.337 174.684C289.483 174.684 289.105 174.138 289.105 173.13V168.692H287.313V173.312C287.313 175.132 288.153 176.168 289.651 176.168C290.855 176.168 291.443 175.51 291.695 174.782H291.765V176ZM300.323 176H302.115V165.64H300.323V169.896H300.253C300.001 169.056 299.203 168.524 298.237 168.524C296.403 168.524 295.381 169.896 295.381 172.332C295.381 174.782 296.403 176.168 298.237 176.168C299.203 176.168 299.987 175.608 300.253 174.782H300.323V176ZM298.811 174.684C297.887 174.684 297.257 174.012 297.257 172.976V171.716C297.257 170.68 297.887 169.994 298.811 169.994C299.665 169.994 300.323 170.456 300.323 171.17V173.494C300.323 174.25 299.665 174.684 298.811 174.684ZM309.602 176V171.52C309.602 170.722 310.232 170.386 311.436 170.386H311.996V168.692H311.604C310.442 168.692 309.854 169.434 309.672 170.204H309.602V168.692H307.81V176H309.602ZM316.352 176.168C317.71 176.168 318.774 175.65 319.376 174.824L318.41 173.746C317.962 174.32 317.43 174.74 316.548 174.74C315.372 174.74 314.77 174.026 314.77 172.976V172.794H319.628V172.206C319.628 170.204 318.578 168.524 316.296 168.524C314.154 168.524 312.908 170.022 312.908 172.332C312.908 174.67 314.196 176.168 316.352 176.168ZM316.324 169.868C317.248 169.868 317.766 170.554 317.766 171.562V171.688H314.77V171.576C314.77 170.568 315.386 169.868 316.324 169.868ZM327.959 176.616C327.959 175.3 327.189 174.53 325.397 174.53H323.437C322.793 174.53 322.485 174.348 322.485 173.984C322.485 173.662 322.723 173.452 323.003 173.326C323.325 173.41 323.703 173.452 324.123 173.452C326.111 173.452 327.147 172.472 327.147 171.002C327.147 170.106 326.769 169.392 326.013 168.972V168.776H327.567V167.404H326.433C325.761 167.404 325.397 167.754 325.397 168.468V168.706C325.033 168.58 324.571 168.524 324.123 168.524C322.149 168.524 321.099 169.518 321.099 171.002C321.099 171.968 321.547 172.724 322.429 173.13V173.186C321.729 173.34 321.085 173.718 321.085 174.474C321.085 175.062 321.421 175.538 322.023 175.692V175.846C321.211 175.972 320.721 176.434 320.721 177.246C320.721 178.324 321.659 178.968 324.123 178.968C326.923 178.968 327.959 178.142 327.959 176.616ZM326.279 176.826C326.279 177.442 325.761 177.736 324.599 177.736H323.703C322.583 177.736 322.163 177.4 322.163 176.84C322.163 176.546 322.275 176.28 322.541 176.084H325.033C325.943 176.084 326.279 176.364 326.279 176.826ZM324.123 172.234C323.269 172.234 322.807 171.842 322.807 171.114V170.876C322.807 170.134 323.269 169.756 324.123 169.756C324.977 169.756 325.439 170.134 325.439 170.876V171.114C325.439 171.842 324.977 172.234 324.123 172.234ZM330.049 167.628C330.777 167.628 331.099 167.25 331.099 166.732V166.452C331.099 165.934 330.777 165.556 330.049 165.556C329.307 165.556 328.999 165.934 328.999 166.452V166.732C328.999 167.25 329.307 167.628 330.049 167.628ZM329.153 176H330.945V168.692H329.153V176ZM335.577 176.168C337.397 176.168 338.587 175.188 338.587 173.774C338.587 172.556 337.817 171.842 336.221 171.618L335.479 171.52C334.793 171.408 334.527 171.184 334.527 170.694C334.527 170.246 334.863 169.938 335.633 169.938C336.347 169.938 336.963 170.274 337.383 170.722L338.433 169.672C337.733 168.944 337.005 168.524 335.577 168.524C333.911 168.524 332.805 169.42 332.805 170.834C332.805 172.164 333.673 172.85 335.241 173.046L335.969 173.144C336.613 173.228 336.865 173.494 336.865 173.914C336.865 174.432 336.501 174.754 335.647 174.754C334.821 174.754 334.177 174.376 333.645 173.76L332.553 174.824C333.281 175.664 334.191 176.168 335.577 176.168ZM342.502 176H343.79V174.572H342.404V170.12H343.902V168.692H342.404V166.69H340.794V167.936C340.794 168.44 340.626 168.692 340.094 168.692H339.534V170.12H340.612V174.138C340.612 175.328 341.27 176 342.502 176ZM347.408 176V171.52C347.408 170.722 348.038 170.386 349.242 170.386H349.802V168.692H349.41C348.248 168.692 347.66 169.434 347.478 170.204H347.408V168.692H345.616V176H347.408ZM354.587 172.556L354.083 174.404H353.999L353.523 172.556L352.249 168.692H350.471L353.089 176.35L352.753 177.372H351.437V178.8H352.515C353.719 178.8 354.237 178.352 354.601 177.302L357.541 168.692H355.861L354.587 172.556Z" fill="black"/>
<rect width="70" height="92" transform="translate(489 88)" fill="white" style="mix-blend-mode:multiply"/>
<rect width="48" height="48" transform="translate(500 88)" fill="black"/>
<rect width="20" height="20" transform="translate(514 102)" fill="white" style="mix-blend-mode:multiply"/>
<path d="M530.25 117.003H517.75C517.419 117.003 517.101 116.871 516.867 116.637C516.632 116.402 516.5 116.084 516.5 115.753V107.003C516.5 106.672 516.632 106.354 516.866 106.12C517.101 105.885 517.419 105.753 517.75 105.753H530.25C530.581 105.753 530.899 105.885 531.133 106.12C531.368 106.354 531.5 106.672 531.5 107.003V115.753C531.5 116.084 531.368 116.402 531.133 116.636C530.899 116.871 530.581 117.003 530.25 117.003ZM517.75 107.003V115.753H530.25V107.003H517.75Z" fill="white"/>
<path d="M532.75 118.253H515.25V119.503H532.75V118.253Z" fill="white"/>
<path d="M494.847 158V154.15L498.207 148.228H496.191L493.993 152.358H493.965L491.711 148.228H489.639L492.985 154.164V158H494.847ZM501.646 158.168C503.746 158.168 505.048 156.684 505.048 154.332C505.048 151.994 503.746 150.524 501.646 150.524C499.56 150.524 498.258 151.994 498.258 154.332C498.258 156.684 499.56 158.168 501.646 158.168ZM501.646 156.726C500.722 156.726 500.134 156.124 500.134 155.018V153.66C500.134 152.568 500.722 151.966 501.646 151.966C502.584 151.966 503.172 152.568 503.172 153.66V155.018C503.172 156.124 502.584 156.726 501.646 156.726ZM511.164 158H512.956V150.692H511.164V155.522C511.164 156.306 510.45 156.684 509.736 156.684C508.882 156.684 508.504 156.138 508.504 155.13V150.692H506.712V155.312C506.712 157.132 507.552 158.168 509.05 158.168C510.254 158.168 510.842 157.51 511.094 156.782H511.164V158ZM516.979 158V153.52C516.979 152.722 517.609 152.386 518.813 152.386H519.373V150.692H518.981C517.819 150.692 517.231 151.434 517.049 152.204H516.979V150.692H515.187V158H516.979ZM527.069 158V156.572H526.103V147.64H524.311V156.236C524.311 157.356 524.885 158 526.103 158H527.069ZM531.485 158.168C533.585 158.168 534.887 156.684 534.887 154.332C534.887 151.994 533.585 150.524 531.485 150.524C529.399 150.524 528.097 151.994 528.097 154.332C528.097 156.684 529.399 158.168 531.485 158.168ZM531.485 156.726C530.561 156.726 529.973 156.124 529.973 155.018V153.66C529.973 152.568 530.561 151.966 531.485 151.966C532.423 151.966 533.011 152.568 533.011 153.66V155.018C533.011 156.124 532.423 156.726 531.485 156.726ZM539.519 158.168C540.933 158.168 541.955 157.524 542.431 156.236L541.059 155.578C540.793 156.236 540.373 156.726 539.519 156.726C538.525 156.726 538.021 156.04 538.021 155.018V153.688C538.021 152.666 538.525 151.966 539.519 151.966C540.289 151.966 540.751 152.414 540.919 153.03L542.389 152.372C541.955 151.224 540.989 150.524 539.519 150.524C537.363 150.524 536.145 151.994 536.145 154.332C536.145 156.684 537.363 158.168 539.519 158.168ZM545.779 158.168C546.871 158.168 547.669 157.678 547.907 156.74H547.991C548.103 157.496 548.579 158 549.349 158H550.343V156.572H549.615V153.128C549.615 151.462 548.565 150.524 546.591 150.524C545.121 150.524 544.267 151.084 543.735 151.924L544.799 152.876C545.149 152.372 545.625 151.952 546.465 151.952C547.417 151.952 547.823 152.428 547.823 153.24V153.772H546.577C544.589 153.772 543.455 154.514 543.455 156.012C543.455 157.314 544.295 158.168 545.779 158.168ZM546.381 156.866C545.681 156.866 545.275 156.572 545.275 155.984V155.746C545.275 155.172 545.737 154.85 546.675 154.85H547.823V155.816C547.823 156.502 547.179 156.866 546.381 156.866ZM554.711 158V156.572H553.745V147.64H551.953V156.236C551.953 157.356 552.527 158 553.745 158H554.711ZM496.092 176.168C497.506 176.168 498.528 175.524 499.004 174.236L497.632 173.578C497.366 174.236 496.946 174.726 496.092 174.726C495.098 174.726 494.594 174.04 494.594 173.018V171.688C494.594 170.666 495.098 169.966 496.092 169.966C496.862 169.966 497.324 170.414 497.492 171.03L498.962 170.372C498.528 169.224 497.562 168.524 496.092 168.524C493.936 168.524 492.718 169.994 492.718 172.332C492.718 174.684 493.936 176.168 496.092 176.168ZM503.376 176.168C505.476 176.168 506.778 174.684 506.778 172.332C506.778 169.994 505.476 168.524 503.376 168.524C501.29 168.524 499.988 169.994 499.988 172.332C499.988 174.684 501.29 176.168 503.376 176.168ZM503.376 174.726C502.452 174.726 501.864 174.124 501.864 173.018V171.66C501.864 170.568 502.452 169.966 503.376 169.966C504.314 169.966 504.902 170.568 504.902 171.66V173.018C504.902 174.124 504.314 174.726 503.376 174.726ZM510.318 176V171.17C510.318 170.386 510.99 169.994 511.676 169.994C512.474 169.994 512.852 170.512 512.852 171.562V176H514.644V171.17C514.644 170.386 515.302 169.994 516.002 169.994C516.8 169.994 517.178 170.512 517.178 171.562V176H518.97V171.38C518.97 169.56 518.158 168.524 516.73 168.524C515.568 168.524 514.756 169.182 514.49 169.994H514.462C514.112 169.014 513.342 168.524 512.348 168.524C511.256 168.524 510.668 169.14 510.388 169.91H510.318V168.692H508.526V176H510.318ZM521.114 178.8H522.906V174.782H522.962C523.242 175.608 524.012 176.168 524.978 176.168C526.826 176.168 527.848 174.782 527.848 172.332C527.848 169.896 526.826 168.524 524.978 168.524C524.012 168.524 523.228 169.056 522.962 169.896H522.906V168.692H521.114V178.8ZM524.404 174.684C523.55 174.684 522.906 174.25 522.906 173.494V171.17C522.906 170.456 523.55 169.994 524.404 169.994C525.328 169.994 525.972 170.68 525.972 171.716V172.976C525.972 174.012 525.328 174.684 524.404 174.684ZM534.037 176H535.829V168.692H534.037V173.522C534.037 174.306 533.323 174.684 532.609 174.684C531.755 174.684 531.377 174.138 531.377 173.13V168.692H529.585V173.312C529.585 175.132 530.425 176.168 531.923 176.168C533.127 176.168 533.715 175.51 533.967 174.782H534.037V176ZM540.341 176H541.629V174.572H540.243V170.12H541.741V168.692H540.243V166.69H538.633V167.936C538.633 168.44 538.465 168.692 537.933 168.692H537.373V170.12H538.451V174.138C538.451 175.328 539.109 176 540.341 176ZM546.355 176.168C547.713 176.168 548.777 175.65 549.379 174.824L548.413 173.746C547.965 174.32 547.433 174.74 546.551 174.74C545.375 174.74 544.773 174.026 544.773 172.976V172.794H549.631V172.206C549.631 170.204 548.581 168.524 546.299 168.524C544.157 168.524 542.911 170.022 542.911 172.332C542.911 174.67 544.199 176.168 546.355 176.168ZM546.327 169.868C547.251 169.868 547.769 170.554 547.769 171.562V171.688H544.773V171.576C544.773 170.568 545.389 169.868 546.327 169.868ZM553.159 176V171.52C553.159 170.722 553.789 170.386 554.993 170.386H555.553V168.692H555.161C553.999 168.692 553.411 169.434 553.229 170.204H553.159V168.692H551.367V176H553.159Z" fill="black"/>
<rect width="130" height="92" transform="translate(687 88)" fill="white" style="mix-blend-mode:multiply"/>
<rect width="48" height="48" transform="translate(728 88)" fill="#8D8D8D"/>
<rect width="20" height="20" transform="translate(742 102)" fill="white" style="mix-blend-mode:multiply"/>
<path d="M757 103.875H747C746.668 103.875 746.351 104.007 746.116 104.241C745.882 104.476 745.75 104.793 745.75 105.125V118.875C745.75 119.207 745.882 119.524 746.116 119.759C746.351 119.993 746.668 120.125 747 120.125H757C757.332 120.125 757.649 119.993 757.884 119.759C758.118 119.524 758.25 119.207 758.25 118.875V105.125C758.25 104.793 758.118 104.476 757.884 104.241C757.649 104.007 757.332 103.875 757 103.875ZM757 105.125V108.875H747V105.125H757ZM747 113.875V110.125H757V113.875H747ZM747 118.875V115.125H757V118.875H747Z" fill="white"/>
<path d="M748.875 107.625C749.22 107.625 749.5 107.345 749.5 107C749.5 106.655 749.22 106.375 748.875 106.375C748.53 106.375 748.25 106.655 748.25 107C748.25 107.345 748.53 107.625 748.875 107.625Z" fill="white"/>
<path d="M748.875 112.625C749.22 112.625 749.5 112.345 749.5 112C749.5 111.655 749.22 111.375 748.875 111.375C748.53 111.375 748.25 111.655 748.25 112C748.25 112.345 748.53 112.625 748.875 112.625Z" fill="white"/>
<path d="M748.875 117.625C749.22 117.625 749.5 117.345 749.5 117C749.5 116.655 749.22 116.375 748.875 116.375C748.53 116.375 748.25 116.655 748.25 117C748.25 117.345 748.53 117.625 748.875 117.625Z" fill="white"/>
<path d="M703.923 158L700.675 148.228H698.379L695.103 158H696.979L697.749 155.508H701.221L702.005 158H703.923ZM700.773 153.926H698.197L699.443 149.908H699.513L700.773 153.926ZM707.203 158V153.17C707.203 152.386 707.917 151.994 708.659 151.994C709.513 151.994 709.863 152.526 709.863 153.562V158H711.655V153.38C711.655 151.56 710.815 150.524 709.317 150.524C708.183 150.524 707.567 151.126 707.273 151.91H707.203V150.692H705.411V158H707.203ZM716.898 154.556L716.394 156.404H716.31L715.834 154.556L714.56 150.692H712.782L715.4 158.35L715.064 159.372H713.748V160.8H714.826C716.03 160.8 716.548 160.352 716.912 159.302L719.852 150.692H718.172L716.898 154.556ZM727.561 158.168C729.661 158.168 730.963 156.684 730.963 154.332C730.963 151.994 729.661 150.524 727.561 150.524C725.475 150.524 724.173 151.994 724.173 154.332C724.173 156.684 725.475 158.168 727.561 158.168ZM727.561 156.726C726.637 156.726 726.049 156.124 726.049 155.018V153.66C726.049 152.568 726.637 151.966 727.561 151.966C728.499 151.966 729.087 152.568 729.087 153.66V155.018C729.087 156.124 728.499 156.726 727.561 156.726ZM734.939 158H736.227V156.572H734.841V152.12H736.339V150.692H734.841V148.69H733.231V149.936C733.231 150.44 733.063 150.692 732.531 150.692H731.971V152.12H733.049V156.138C733.049 157.328 733.707 158 734.939 158ZM738.053 158H739.845V153.17C739.845 152.386 740.559 151.994 741.301 151.994C742.155 151.994 742.505 152.526 742.505 153.562V158H744.297V153.38C744.297 151.56 743.457 150.524 741.959 150.524C740.825 150.524 740.209 151.126 739.915 151.91H739.845V147.64H738.053V158ZM749.397 158.168C750.755 158.168 751.819 157.65 752.421 156.824L751.455 155.746C751.007 156.32 750.475 156.74 749.593 156.74C748.417 156.74 747.815 156.026 747.815 154.976V154.794H752.673V154.206C752.673 152.204 751.623 150.524 749.341 150.524C747.199 150.524 745.953 152.022 745.953 154.332C745.953 156.67 747.241 158.168 749.397 158.168ZM749.369 151.868C750.293 151.868 750.811 152.554 750.811 153.562V153.688H747.815V153.576C747.815 152.568 748.431 151.868 749.369 151.868ZM756.202 158V153.52C756.202 152.722 756.832 152.386 758.036 152.386H758.596V150.692H758.204C757.042 150.692 756.454 151.434 756.272 152.204H756.202V150.692H754.41V158H756.202ZM763.535 160.8H765.327V156.782H765.383C765.663 157.608 766.433 158.168 767.399 158.168C769.247 158.168 770.269 156.782 770.269 154.332C770.269 151.896 769.247 150.524 767.399 150.524C766.433 150.524 765.649 151.056 765.383 151.896H765.327V150.692H763.535V160.8ZM766.825 156.684C765.971 156.684 765.327 156.25 765.327 155.494V153.17C765.327 152.456 765.971 151.994 766.825 151.994C767.749 151.994 768.393 152.68 768.393 153.716V154.976C768.393 156.012 767.749 156.684 766.825 156.684ZM773.881 158V153.52C773.881 152.722 774.511 152.386 775.715 152.386H776.275V150.692H775.883C774.721 150.692 774.133 151.434 773.951 152.204H773.881V150.692H772.089V158H773.881ZM778.641 149.628C779.369 149.628 779.691 149.25 779.691 148.732V148.452C779.691 147.934 779.369 147.556 778.641 147.556C777.899 147.556 777.591 147.934 777.591 148.452V148.732C777.591 149.25 777.899 149.628 778.641 149.628ZM777.745 158H779.537V150.692H777.745V158ZM785.47 158L787.92 150.692H786.212L785.218 153.842L784.504 156.446H784.406L783.692 153.842L782.67 150.692H780.906L783.342 158H785.47ZM790.959 158.168C792.051 158.168 792.849 157.678 793.087 156.74H793.171C793.283 157.496 793.759 158 794.529 158H795.523V156.572H794.795V153.128C794.795 151.462 793.745 150.524 791.771 150.524C790.301 150.524 789.447 151.084 788.915 151.924L789.979 152.876C790.329 152.372 790.805 151.952 791.645 151.952C792.597 151.952 793.003 152.428 793.003 153.24V153.772H791.757C789.769 153.772 788.635 154.514 788.635 156.012C788.635 157.314 789.475 158.168 790.959 158.168ZM791.561 156.866C790.861 156.866 790.455 156.572 790.455 155.984V155.746C790.455 155.172 790.917 154.85 791.855 154.85H793.003V155.816C793.003 156.502 792.359 156.866 791.561 156.866ZM799.361 158H800.649V156.572H799.263V152.12H800.761V150.692H799.263V148.69H797.653V149.936C797.653 150.44 797.485 150.692 796.953 150.692H796.393V152.12H797.471V156.138C797.471 157.328 798.129 158 799.361 158ZM805.374 158.168C806.732 158.168 807.796 157.65 808.398 156.824L807.432 155.746C806.984 156.32 806.452 156.74 805.57 156.74C804.394 156.74 803.792 156.026 803.792 154.976V154.794H808.65V154.206C808.65 152.204 807.6 150.524 805.318 150.524C803.176 150.524 801.93 152.022 801.93 154.332C801.93 156.67 803.218 158.168 805.374 158.168ZM805.346 151.868C806.27 151.868 806.788 152.554 806.788 153.562V153.688H803.792V153.576C803.792 152.568 804.408 151.868 805.346 151.868ZM691.127 176.168C693.227 176.168 694.529 174.684 694.529 172.332C694.529 169.994 693.227 168.524 691.127 168.524C689.041 168.524 687.739 169.994 687.739 172.332C687.739 174.684 689.041 176.168 691.127 176.168ZM691.127 174.726C690.203 174.726 689.615 174.124 689.615 173.018V171.66C689.615 170.568 690.203 169.966 691.127 169.966C692.065 169.966 692.653 170.568 692.653 171.66V173.018C692.653 174.124 692.065 174.726 691.127 174.726ZM698.07 176V171.52C698.07 170.722 698.7 170.386 699.904 170.386H700.464V168.692H700.072C698.91 168.692 698.322 169.434 698.14 170.204H698.07V168.692H696.278V176H698.07ZM705.402 178.8H707.194V174.782H707.25C707.53 175.608 708.3 176.168 709.266 176.168C711.114 176.168 712.136 174.782 712.136 172.332C712.136 169.896 711.114 168.524 709.266 168.524C708.3 168.524 707.516 169.056 707.25 169.896H707.194V168.692H705.402V178.8ZM708.692 174.684C707.838 174.684 707.194 174.25 707.194 173.494V171.17C707.194 170.456 707.838 169.994 708.692 169.994C709.616 169.994 710.26 170.68 710.26 171.716V172.976C710.26 174.012 709.616 174.684 708.692 174.684ZM718.325 176H720.117V168.692H718.325V173.522C718.325 174.306 717.611 174.684 716.897 174.684C716.043 174.684 715.665 174.138 715.665 173.13V168.692H713.873V173.312C713.873 175.132 714.713 176.168 716.211 176.168C717.415 176.168 718.003 175.51 718.255 174.782H718.325V176ZM722.347 176H724.139V174.782H724.195C724.475 175.608 725.245 176.168 726.211 176.168C728.059 176.168 729.081 174.782 729.081 172.332C729.081 169.896 728.059 168.524 726.211 168.524C725.245 168.524 724.461 169.056 724.195 169.896H724.139V165.64H722.347V176ZM725.637 174.684C724.783 174.684 724.139 174.25 724.139 173.494V171.17C724.139 170.456 724.783 169.994 725.637 169.994C726.561 169.994 727.205 170.68 727.205 171.716V172.976C727.205 174.012 726.561 174.684 725.637 174.684ZM733.66 176V174.572H732.694V165.64H730.902V174.236C730.902 175.356 731.476 176 732.694 176H733.66ZM736.073 167.628C736.801 167.628 737.123 167.25 737.123 166.732V166.452C737.123 165.934 736.801 165.556 736.073 165.556C735.331 165.556 735.023 165.934 735.023 166.452V166.732C735.023 167.25 735.331 167.628 736.073 167.628ZM735.177 176H736.969V168.692H735.177V176ZM742.09 176.168C743.504 176.168 744.526 175.524 745.002 174.236L743.63 173.578C743.364 174.236 742.944 174.726 742.09 174.726C741.096 174.726 740.592 174.04 740.592 173.018V171.688C740.592 170.666 741.096 169.966 742.09 169.966C742.86 169.966 743.322 170.414 743.49 171.03L744.96 170.372C744.526 169.224 743.56 168.524 742.09 168.524C739.934 168.524 738.716 169.994 738.716 172.332C738.716 174.684 739.934 176.168 742.09 176.168ZM751.804 176V171.52C751.804 170.722 752.434 170.386 753.638 170.386H754.198V168.692H753.806C752.644 168.692 752.056 169.434 751.874 170.204H751.804V168.692H750.012V176H751.804ZM758.554 176.168C759.912 176.168 760.976 175.65 761.578 174.824L760.612 173.746C760.164 174.32 759.632 174.74 758.75 174.74C757.574 174.74 756.972 174.026 756.972 172.976V172.794H761.83V172.206C761.83 170.204 760.78 168.524 758.498 168.524C756.356 168.524 755.11 170.022 755.11 172.332C755.11 174.67 756.398 176.168 758.554 176.168ZM758.526 169.868C759.45 169.868 759.968 170.554 759.968 171.562V171.688H756.972V171.576C756.972 170.568 757.588 169.868 758.526 169.868ZM763.567 178.8H765.359V174.782H765.415C765.695 175.608 766.465 176.168 767.431 176.168C769.279 176.168 770.301 174.782 770.301 172.332C770.301 169.896 769.279 168.524 767.431 168.524C766.465 168.524 765.681 169.056 765.415 169.896H765.359V168.692H763.567V178.8ZM766.857 174.684C766.003 174.684 765.359 174.25 765.359 173.494V171.17C765.359 170.456 766.003 169.994 766.857 169.994C767.781 169.994 768.425 170.68 768.425 171.716V172.976C768.425 174.012 767.781 174.684 766.857 174.684ZM775.019 176.168C777.119 176.168 778.421 174.684 778.421 172.332C778.421 169.994 777.119 168.524 775.019 168.524C772.933 168.524 771.631 169.994 771.631 172.332C771.631 174.684 772.933 176.168 775.019 176.168ZM775.019 174.726C774.095 174.726 773.507 174.124 773.507 173.018V171.66C773.507 170.568 774.095 169.966 775.019 169.966C775.957 169.966 776.545 170.568 776.545 171.66V173.018C776.545 174.124 775.957 174.726 775.019 174.726ZM782.564 176.168C784.384 176.168 785.574 175.188 785.574 173.774C785.574 172.556 784.804 171.842 783.208 171.618L782.466 171.52C781.78 171.408 781.514 171.184 781.514 170.694C781.514 170.246 781.85 169.938 782.62 169.938C783.334 169.938 783.95 170.274 784.37 170.722L785.42 169.672C784.72 168.944 783.992 168.524 782.564 168.524C780.898 168.524 779.792 169.42 779.792 170.834C779.792 172.164 780.66 172.85 782.228 173.046L782.956 173.144C783.6 173.228 783.852 173.494 783.852 173.914C783.852 174.432 783.488 174.754 782.634 174.754C781.808 174.754 781.164 174.376 780.632 173.76L779.54 174.824C780.268 175.664 781.178 176.168 782.564 176.168ZM788.212 167.628C788.94 167.628 789.262 167.25 789.262 166.732V166.452C789.262 165.934 788.94 165.556 788.212 165.556C787.47 165.556 787.162 165.934 787.162 166.452V166.732C787.162 167.25 787.47 167.628 788.212 167.628ZM787.316 176H789.108V168.692H787.316V176ZM793.628 176H794.916V174.572H793.53V170.12H795.028V168.692H793.53V166.69H791.92V167.936C791.92 168.44 791.752 168.692 791.22 168.692H790.66V170.12H791.738V174.138C791.738 175.328 792.396 176 793.628 176ZM799.585 176.168C801.685 176.168 802.987 174.684 802.987 172.332C802.987 169.994 801.685 168.524 799.585 168.524C797.499 168.524 796.197 169.994 796.197 172.332C796.197 174.684 797.499 176.168 799.585 176.168ZM799.585 174.726C798.661 174.726 798.073 174.124 798.073 173.018V171.66C798.073 170.568 798.661 169.966 799.585 169.966C800.523 169.966 801.111 170.568 801.111 171.66V173.018C801.111 174.124 800.523 174.726 799.585 174.726ZM806.528 176V171.52C806.528 170.722 807.158 170.386 808.362 170.386H808.922V168.692H808.53C807.368 168.692 806.78 169.434 806.598 170.204H806.528V168.692H804.736V176H806.528ZM813.707 172.556L813.203 174.404H813.119L812.643 172.556L811.369 168.692H809.591L812.209 176.35L811.873 177.372H810.557V178.8H811.635C812.839 178.8 813.357 178.352 813.721 177.302L816.661 168.692H814.981L813.707 172.556Z" fill="black"/>
<path d="M320 112L325 114.887L325 109.113L320 112ZM389.643 111.5L324.5 111.5L324.5 112.5L389.643 112.5L389.643 111.5ZM389.643 112.5L500 112.5L500 111.5L389.643 111.5L389.643 112.5Z" fill="#6F6F6F"/>
<rect x="387.5" y="104.5" width="43" height="15" rx="7.5" fill="white"/>
<path d="M397.124 116V112.424H399.452C400.952 112.424 401.792 111.5 401.792 110.024C401.792 108.548 400.952 107.624 399.452 107.624H396.116V116H397.124ZM397.124 108.512H399.452C400.244 108.512 400.712 108.944 400.712 109.712V110.336C400.712 111.104 400.244 111.536 399.452 111.536H397.124V108.512ZM407.433 116H408.393V109.808H407.433V114.092C407.433 114.908 406.689 115.28 405.933 115.28C405.009 115.28 404.517 114.716 404.517 113.612V109.808H403.557V113.78C403.557 115.28 404.373 116.144 405.645 116.144C406.677 116.144 407.145 115.58 407.385 114.992H407.433V116ZM412.618 116.144C414.034 116.144 414.91 115.412 414.91 114.212C414.91 113.276 414.382 112.676 413.014 112.472L412.534 112.4C411.766 112.28 411.346 112.04 411.346 111.44C411.346 110.852 411.766 110.48 412.558 110.48C413.35 110.48 413.878 110.852 414.154 111.236L414.79 110.66C414.286 110.036 413.626 109.664 412.63 109.664C411.37 109.664 410.422 110.264 410.422 111.488C410.422 112.64 411.274 113.108 412.414 113.276L412.906 113.348C413.722 113.468 413.986 113.84 413.986 114.32C413.986 114.956 413.506 115.328 412.69 115.328C411.91 115.328 411.334 114.98 410.854 114.38L410.17 114.932C410.722 115.664 411.478 116.144 412.618 116.144ZM416.925 116H417.885V111.704C417.885 110.912 418.629 110.528 419.397 110.528C420.321 110.528 420.801 111.092 420.801 112.196V116H421.761V112.028C421.761 110.528 420.957 109.664 419.685 109.664C418.761 109.664 418.233 110.12 417.933 110.816H417.885V107.12H416.925V116Z" fill="black"/>
<rect x="387.5" y="104.5" width="43" height="15" rx="7.5" stroke="black"/>
<path d="M548 112L553 114.887L553 109.113L548 112ZM617.643 111.5L552.5 111.5L552.5 112.5L617.643 112.5L617.643 111.5ZM617.643 112.5L728 112.5L728 111.5L617.643 111.5L617.643 112.5Z" fill="#6F6F6F"/>
<rect x="591.5" y="104.5" width="104" height="15" rx="7.5" fill="white"/>
<path d="M601.124 116V112.424H603.452C604.952 112.424 605.792 111.5 605.792 110.024C605.792 108.548 604.952 107.624 603.452 107.624H600.116V116H601.124ZM601.124 108.512H603.452C604.244 108.512 604.712 108.944 604.712 109.712V110.336C604.712 111.104 604.244 111.536 603.452 111.536H601.124V108.512ZM611.433 116H612.393V109.808H611.433V114.092C611.433 114.908 610.689 115.28 609.933 115.28C609.009 115.28 608.517 114.716 608.517 113.612V109.808H607.557V113.78C607.557 115.28 608.373 116.144 609.645 116.144C610.677 116.144 611.145 115.58 611.385 114.992H611.433V116ZM616.63 116V115.16H615.718V107.12H614.758V115.004C614.758 115.58 615.118 116 615.778 116H616.63ZM620.161 116V115.16H619.249V107.12H618.289V115.004C618.289 115.58 618.649 116 619.309 116H620.161ZM624.986 117.812L628.118 107.12H627.254L624.122 117.812H624.986ZM637.064 116H638.024V107.12H637.064V110.816H637.016C636.692 110.036 636.056 109.664 635.204 109.664C633.656 109.664 632.684 110.924 632.684 112.904C632.684 114.884 633.656 116.144 635.204 116.144C636.056 116.144 636.644 115.76 637.016 114.992H637.064V116ZM635.468 115.28C634.388 115.28 633.716 114.536 633.716 113.432V112.376C633.716 111.272 634.388 110.528 635.468 110.528C636.344 110.528 637.064 111.032 637.064 111.716V114.02C637.064 114.824 636.344 115.28 635.468 115.28ZM642.725 116.144C644.381 116.144 645.521 114.872 645.521 112.904C645.521 110.936 644.381 109.664 642.725 109.664C641.069 109.664 639.929 110.936 639.929 112.904C639.929 114.872 641.069 116.144 642.725 116.144ZM642.725 115.292C641.693 115.292 640.961 114.656 640.961 113.348V112.46C640.961 111.152 641.693 110.516 642.725 110.516C643.757 110.516 644.489 111.152 644.489 112.46V113.348C644.489 114.656 643.757 115.292 642.725 115.292ZM648.369 116H649.533L650.397 113.024L650.925 111.14H650.949L651.489 113.024L652.353 116H653.541L655.185 109.808H654.285L653.613 112.484L652.977 115.196H652.953L652.185 112.484L651.381 109.808H650.529L649.749 112.484L648.993 115.196H648.969L648.309 112.484L647.649 109.808H646.713L648.369 116ZM657.852 116V111.704C657.852 110.912 658.596 110.528 659.364 110.528C660.288 110.528 660.768 111.092 660.768 112.196V116H661.728V112.028C661.728 110.528 660.924 109.664 659.652 109.664C658.728 109.664 658.2 110.12 657.9 110.816H657.852V109.808H656.892V116H657.852ZM665.904 116V115.16H664.992V107.12H664.032V115.004C664.032 115.58 664.392 116 665.052 116H665.904ZM669.962 116.144C671.618 116.144 672.758 114.872 672.758 112.904C672.758 110.936 671.618 109.664 669.962 109.664C668.306 109.664 667.166 110.936 667.166 112.904C667.166 114.872 668.306 116.144 669.962 116.144ZM669.962 115.292C668.93 115.292 668.198 114.656 668.198 113.348V112.46C668.198 111.152 668.93 110.516 669.962 110.516C670.994 110.516 671.726 111.152 671.726 112.46V113.348C671.726 114.656 670.994 115.292 669.962 115.292ZM679.697 116V115.16H678.989V111.752C678.989 110.444 678.101 109.664 676.613 109.664C675.497 109.664 674.753 110.216 674.417 110.876L674.993 111.416C675.329 110.852 675.821 110.492 676.565 110.492C677.549 110.492 678.029 110.972 678.029 111.848V112.46H676.805C675.005 112.46 674.165 113.108 674.165 114.272C674.165 115.424 674.933 116.144 676.241 116.144C677.105 116.144 677.765 115.748 678.029 114.992H678.089C678.161 115.568 678.449 116 679.157 116H679.697ZM676.397 115.328C675.653 115.328 675.173 114.98 675.173 114.368V114.116C675.173 113.516 675.665 113.18 676.757 113.18H678.029V114.2C678.029 114.836 677.345 115.328 676.397 115.328ZM685.347 116H686.307V107.12H685.347V110.816H685.299C684.975 110.036 684.339 109.664 683.487 109.664C681.939 109.664 680.967 110.924 680.967 112.904C680.967 114.884 681.939 116.144 683.487 116.144C684.339 116.144 684.927 115.76 685.299 114.992H685.347V116ZM683.751 115.28C682.671 115.28 681.999 114.536 681.999 113.432V112.376C681.999 111.272 682.671 110.528 683.751 110.528C684.627 110.528 685.347 111.032 685.347 111.716V114.02C685.347 114.824 684.627 115.28 683.751 115.28Z" fill="black"/>
<rect x="591.5" y="104.5" width="104" height="15" rx="7.5" stroke="black"/>
</svg>
