<?xml version="1.0" encoding="utf-8"?>

<svg id="Layer_1" data-name="Layer 1" xmlns="http://www.w3.org/2000/svg" viewBox="0 0 831 257">
    <defs>
        <style>.cls-1{fill:#6aa4d9;}.cls-2,.cls-8{fill:#87c3eb;}.cls-3{fill:#394b54;}.cls-4{fill:#4278bd;}.cls-13,.cls-14,.cls-15,.cls-5,.cls-7,.cls-9{fill:none;}.cls-5{stroke:#394b54;}.cls-13,.cls-14,.cls-15,.cls-5,.cls-8,.cls-9{stroke-miterlimit:10;}.cls-6{isolation:isolate;font-size:14px;font-family:IBMPlexSans, IBM Plex Sans;}.cls-13,.cls-14,.cls-15,.cls-8,.cls-9{stroke:#152935;}.cls-8,.cls-9{stroke-width:11px;}.cls-10{fill:#060707;}.cls-11{fill:#fff;}.cls-12{fill:#8c9ba5;}.cls-13{stroke-width:3px;}.cls-14{stroke-width:6px;}.cls-15{stroke-width:2px;}.cls-16{fill:#152935;}</style>
    </defs>
    <title>Artboard 1</title>
    <path id="_Path_" data-name="&lt;Path&gt;" class="cls-1" d="M257,0H574V23.3H257Z" />
    <path id="_Path_2" data-name="&lt;Path&gt;" class="cls-2" d="M574,0H831V23.3H574Z" />
    <g id="_Group_" data-name="&lt;Group&gt;">
        <path id="_Path_3" data-name="&lt;Path&gt;" class="cls-3" d="M127.94,106.2,132,113l4.06-6.8Z" />
    </g>
    <path id="_Path_4" data-name="&lt;Path&gt;" class="cls-4" d="M0,0H258V23.3H0Z" />
    <path id="_Path_5" data-name="&lt;Path&gt;" class="cls-5" d="M132,82H399.5" />
    <text class="cls-6" transform="translate(47.13 43.93)">Private IBM Cloud registry</text>
    <text class="cls-6" transform="translate(352.77 43.93)">Your local computer</text>
    <path id="_Path_6" data-name="&lt;Path&gt;" class="cls-5" d="M701.75,82v23" />
    <path id="_Path_7" data-name="&lt;Path&gt;" class="cls-5" d="M132,82.25v23" />
    <g id="_Group_2" data-name="&lt;Group&gt;">
        <path id="_Path_8" data-name="&lt;Path&gt;" class="cls-3" d="M426.94,105.7l4.06,6.8,4.06-6.8Z" />
    </g>
    <path id="_Path_9" data-name="&lt;Path&gt;" class="cls-5" d="M431,81.75v23" />
    <path id="_Path_10" data-name="&lt;Path&gt;" class="cls-5" d="M399.25,81.5v23" />
    <path id="_Path_11" data-name="&lt;Path&gt;" class="cls-5" d="M431,82H702.25" />
    <rect class="cls-7" x="399.5" y="71.5" width="15.5" height="19.5" />
    <path id="_Path_12" data-name="&lt;Path&gt;" class="cls-8" d="M181.82,145.08a36.89,36.89,0,0,0-7.09.68,50.09,50.09,0,0,0-82.8,6.12,37.83,37.83,0,0,0-7.34-.72c-21.52,0-38.95,17.93-38.95,40.05,0,21,15.77,38.28,35.83,39.91l100.13.13h.22c22,0,39.74-19.29,39.74-43.09S203.77,145.08,181.82,145.08Z" />
    <path id="_Path_13" data-name="&lt;Path&gt;" class="cls-9" d="M750.47,145.08a36.89,36.89,0,0,0-7.09.68,50.09,50.09,0,0,0-82.8,6.12,37.83,37.83,0,0,0-7.34-.72c-21.52,0-39,17.93-39,40.05,0,21,15.77,38.28,35.83,39.91l100.13.13h.22c21.95,0,39.74-19.29,39.74-43.09S772.42,145.08,750.47,145.08Z" />
    <rect id="_Rectangle_" data-name="&lt;Rectangle&gt;" class="cls-10" x="352.77" y="126" width="124.47" height="90.67" />
    <g id="_Group_3" data-name="&lt;Group&gt;">
        <rect id="_Rectangle_2" data-name="&lt;Rectangle&gt;" class="cls-11" x="361.89" y="137.31" width="106.23" height="77.38" />
        <path id="_Compound_Path_" data-name="&lt;Compound Path&gt;" class="cls-11" d="M470.3,216.88H359.7V135.12H470.3ZM364.08,212.5H465.92v-73H364.08Z" />
    </g>
    <rect id="_Rectangle_3" data-name="&lt;Rectangle&gt;" class="cls-10" x="342.62" y="216.34" width="144.76" height="22.89" />
    <rect id="_Rectangle_4" data-name="&lt;Rectangle&gt;" class="cls-12" x="385.72" y="221.01" width="58.56" height="9.66" rx="4.18" ry="4.18" />
    <rect class="cls-13" x="672.66" y="173.26" width="63.48" height="33.86" />
    <line class="cls-14" x1="676.32" y1="170.09" x2="732.49" y2="170.09" />
    <rect class="cls-15" x="682.05" y="165.05" width="44.71" height="5.03" />
    <path class="cls-16" d="M711.7,190.19H699v-2.12h-2.12v4.24h16.93v-4.24H711.7Z" />
    <rect class="cls-13" x="101.86" y="173.26" width="63.48" height="33.86" />
    <line class="cls-14" x1="105.51" y1="170.09" x2="161.69" y2="170.09" />
    <rect class="cls-15" x="111.25" y="165.05" width="44.71" height="5.03" />
    <path class="cls-16" d="M140.89,190.19H128.2v-2.12h-2.12v4.24H143v-4.24h-2.12Z" />
    <text class="cls-6" transform="translate(581.28 43.93)">Any other private or public repository</text>
</svg>
