<svg width="1080" height="270" viewBox="0 0 1080 270" fill="none" xmlns="http://www.w3.org/2000/svg">
<rect width="1080" height="270" fill="#F4F4F4"/>
<path d="M56 205.5H72C76.1421 205.5 79.5 208.858 79.5 213C79.5 217.142 76.1421 220.5 72 220.5H56C51.8579 220.5 48.5 217.142 48.5 213C48.5 208.858 51.8579 205.5 56 205.5Z" fill="white" stroke="#697077"/>
<text fill="#697077" xml:space="preserve" style="white-space: pre" font-family="IBM Plex Sans" font-size="14" letter-spacing="0.0016em"><tspan x="88" y="218.25">Flow direction</tspan></text>
<rect width="124" height="92" transform="translate(235 89)" fill="white" style="mix-blend-mode:multiply"/>
<rect x="273.5" y="89.5" width="47" height="47" fill="#F6F2FF"/>
<path d="M274 90H320V136H274V90Z" fill="white"/>
<path d="M274 90H320V136H274V90Z" fill="#F6F2FF"/>
<rect width="20" height="20" transform="translate(287 103)" fill="white" style="mix-blend-mode:multiply"/>
<path d="M297.625 111.125V106.75H292V116.75H302V111.125H297.625ZM293.25 108H296.375V111.125H293.25V108ZM293.25 112.375H296.375V115.5H293.25V112.375ZM300.75 115.5H297.625V112.375H300.75V115.5Z" fill="black"/>
<path d="M304.5 109.875H298.875V104.25H304.5V109.875ZM300.125 108.625H303.25V105.5H300.125V108.625Z" fill="black"/>
<path d="M304.5 115.5H303.25V116.75H304.5V120.5H289.5V116.75H290.75V115.5H289.5C289.169 115.5 288.851 115.632 288.617 115.867C288.382 116.101 288.25 116.419 288.25 116.75V120.5C288.25 120.831 288.382 121.149 288.617 121.383C288.851 121.618 289.169 121.75 289.5 121.75H304.5C304.831 121.75 305.149 121.618 305.383 121.383C305.618 121.149 305.75 120.831 305.75 120.5V116.75C305.75 116.419 305.618 116.101 305.383 115.867C305.149 115.632 304.831 115.5 304.5 115.5Z" fill="black"/>
<path d="M291.375 119.25C291.72 119.25 292 118.97 292 118.625C292 118.28 291.72 118 291.375 118C291.03 118 290.75 118.28 290.75 118.625C290.75 118.97 291.03 119.25 291.375 119.25Z" fill="black"/>
<rect x="273.5" y="89.5" width="47" height="47" stroke="#A56EFF"/>
<text fill="black" xml:space="preserve" style="white-space: pre" font-family="IBM Plex Sans" font-size="14" font-weight="600" letter-spacing="0.16px"><tspan x="271.701" y="159.25">Private &#10;</tspan><tspan x="235.313" y="177.25">IBM Cloud registry</tspan></text>
<rect width="70" height="92" transform="translate(490 89)" fill="white" style="mix-blend-mode:multiply"/>
<rect width="48" height="48" transform="translate(501 89)" fill="black"/>
<rect width="20" height="20" transform="translate(515 103)" fill="white" style="mix-blend-mode:multiply"/>
<path d="M531.25 118.003H518.75C518.419 118.003 518.101 117.871 517.867 117.637C517.632 117.402 517.5 117.084 517.5 116.753V108.003C517.5 107.672 517.632 107.354 517.866 107.12C518.101 106.885 518.419 106.753 518.75 106.753H531.25C531.581 106.753 531.899 106.885 532.133 107.12C532.368 107.354 532.5 107.672 532.5 108.003V116.753C532.5 117.084 532.368 117.402 532.133 117.636C531.899 117.871 531.581 118.003 531.25 118.003ZM518.75 108.003V116.753H531.25V108.003H518.75Z" fill="white"/>
<path d="M533.75 119.253H516.25V120.503H533.75V119.253Z" fill="white"/>
<text fill="black" xml:space="preserve" style="white-space: pre" font-family="IBM Plex Sans" font-size="14" font-weight="600" letter-spacing="0.16px"><tspan x="490.499" y="159.25">Your local &#10;</tspan><tspan x="493.172" y="177.25">computer</tspan></text>
<rect width="130" height="92" transform="translate(688 89)" fill="white" style="mix-blend-mode:multiply"/>
<rect width="48" height="48" transform="translate(729 89)" fill="#8D8D8D"/>
<rect width="20" height="20" transform="translate(743 103)" fill="white" style="mix-blend-mode:multiply"/>
<path d="M758 104.875H748C747.668 104.875 747.351 105.007 747.116 105.241C746.882 105.476 746.75 105.793 746.75 106.125V119.875C746.75 120.207 746.882 120.524 747.116 120.759C747.351 120.993 747.668 121.125 748 121.125H758C758.332 121.125 758.649 120.993 758.884 120.759C759.118 120.524 759.25 120.207 759.25 119.875V106.125C759.25 105.793 759.118 105.476 758.884 105.241C758.649 105.007 758.332 104.875 758 104.875ZM758 106.125V109.875H748V106.125H758ZM748 114.875V111.125H758V114.875H748ZM748 119.875V116.125H758V119.875H748Z" fill="white"/>
<path d="M749.875 108.625C750.22 108.625 750.5 108.345 750.5 108C750.5 107.655 750.22 107.375 749.875 107.375C749.53 107.375 749.25 107.655 749.25 108C749.25 108.345 749.53 108.625 749.875 108.625Z" fill="white"/>
<path d="M749.875 113.625C750.22 113.625 750.5 113.345 750.5 113C750.5 112.655 750.22 112.375 749.875 112.375C749.53 112.375 749.25 112.655 749.25 113C749.25 113.345 749.53 113.625 749.875 113.625Z" fill="white"/>
<path d="M749.875 118.625C750.22 118.625 750.5 118.345 750.5 118C750.5 117.655 750.22 117.375 749.875 117.375C749.53 117.375 749.25 117.655 749.25 118C749.25 118.345 749.53 118.625 749.875 118.625Z" fill="white"/>
<text fill="black" xml:space="preserve" style="white-space: pre" font-family="IBM Plex Sans" font-size="14" font-weight="600" letter-spacing="0.16px"><tspan x="695.809" y="159.25">Any other private&#10;</tspan><tspan x="688.193" y="177.25">or public repository</tspan></text>
<path d="M501 113L496 110.113L496 115.887L501 113ZM431.357 113.5L496.5 113.5L496.5 112.5L431.357 112.5L431.357 113.5ZM431.357 112.5L321 112.5L321 113.5L431.357 113.5L431.357 112.5Z" fill="#6F6F6F"/>
<rect x="396.5" y="105.5" width="37" height="15" rx="7.5" fill="white"/>
<text fill="black" xml:space="preserve" style="white-space: pre" font-family="IBM Plex Sans" font-size="12" letter-spacing="0.32px"><tspan x="404" y="116.5">Pull</tspan></text>
<rect x="396.5" y="105.5" width="37" height="15" rx="7.5" stroke="black"/>
<path d="M549 113L554 115.887L554 110.113L549 113ZM618.643 112.5L553.5 112.5L553.5 113.5L618.643 113.5L618.643 112.5ZM618.643 113.5L729 113.5L729 112.5L618.643 112.5L618.643 113.5Z" fill="#6F6F6F"/>
<rect x="624.5" y="105.5" width="37" height="15" rx="7.5" fill="white"/>
<text fill="black" xml:space="preserve" style="white-space: pre" font-family="IBM Plex Sans" font-size="12" letter-spacing="0.32px"><tspan x="632" y="116.5">Pull</tspan></text>
<rect x="624.5" y="105.5" width="37" height="15" rx="7.5" stroke="black"/>
</svg>
