<svg width="1080" height="270" viewBox="0 0 1080 270" fill="none" xmlns="http://www.w3.org/2000/svg">
<rect width="1080" height="270" fill="#F4F4F4"/>
<path d="M56 205.5H72C76.1421 205.5 79.5 208.858 79.5 213C79.5 217.142 76.1421 220.5 72 220.5H56C51.8579 220.5 48.5 217.142 48.5 213C48.5 208.858 51.8579 205.5 56 205.5Z" fill="white" stroke="#697077"/>
<path d="M90.478 218V213.576H94.72V212.54H90.478V209.264H95.126V208.228H89.302V218H90.478ZM99.2167 218V217.02H98.1527V207.64H97.0327V216.838C97.0327 217.51 97.4527 218 98.2227 218H99.2167ZM103.6 218.168C105.532 218.168 106.862 216.684 106.862 214.388C106.862 212.092 105.532 210.608 103.6 210.608C101.668 210.608 100.338 212.092 100.338 214.388C100.338 216.684 101.668 218.168 103.6 218.168ZM103.6 217.174C102.396 217.174 101.542 216.432 101.542 214.906V213.87C101.542 212.344 102.396 211.602 103.6 211.602C104.804 211.602 105.658 212.344 105.658 213.87V214.906C105.658 216.432 104.804 217.174 103.6 217.174ZM109.834 218H111.192L112.2 214.528L112.816 212.33H112.844L113.474 214.528L114.482 218H115.868L117.786 210.776H116.736L115.952 213.898L115.21 217.062H115.182L114.286 213.898L113.348 210.776H112.354L111.444 213.898L110.562 217.062H110.534L109.764 213.898L108.994 210.776H107.902L109.834 218ZM127.377 218H128.497V207.64H127.377V211.952H127.321C126.943 211.042 126.201 210.608 125.207 210.608C123.401 210.608 122.267 212.078 122.267 214.388C122.267 216.698 123.401 218.168 125.207 218.168C126.201 218.168 126.887 217.72 127.321 216.824H127.377V218ZM125.515 217.16C124.255 217.16 123.471 216.292 123.471 215.004V213.772C123.471 212.484 124.255 211.616 125.515 211.616C126.537 211.616 127.377 212.204 127.377 213.002V215.69C127.377 216.628 126.537 217.16 125.515 217.16ZM131.461 209.082C131.937 209.082 132.147 208.83 132.147 208.452V208.27C132.147 207.892 131.937 207.64 131.461 207.64C130.985 207.64 130.775 207.892 130.775 208.27V208.452C130.775 208.83 130.985 209.082 131.461 209.082ZM130.901 218H132.021V210.776H130.901V218ZM135.543 218V213.1C135.543 212.414 136.271 211.896 137.475 211.896H138.133V210.776H137.699C136.523 210.776 135.865 211.42 135.613 212.106H135.543V210.776H134.423V218H135.543ZM142.234 218.168C143.592 218.168 144.628 217.496 145.09 216.516L144.292 215.942C143.914 216.74 143.214 217.188 142.304 217.188C140.96 217.188 140.162 216.25 140.162 215.004V214.668H145.356V214.136C145.356 212.092 144.166 210.608 142.234 210.608C140.274 210.608 138.986 212.092 138.986 214.388C138.986 216.684 140.274 218.168 142.234 218.168ZM142.234 211.546C143.382 211.546 144.152 212.4 144.152 213.674V213.828H140.162V213.73C140.162 212.47 141.016 211.546 142.234 211.546ZM149.912 218.168C151.284 218.168 152.222 217.496 152.684 216.46L151.872 215.914C151.48 216.74 150.822 217.174 149.912 217.174C148.582 217.174 147.896 216.264 147.896 215.004V213.772C147.896 212.512 148.582 211.602 149.912 211.602C150.794 211.602 151.41 212.036 151.676 212.778L152.614 212.302C152.194 211.308 151.34 210.608 149.912 210.608C147.882 210.608 146.692 212.078 146.692 214.388C146.692 216.698 147.882 218.168 149.912 218.168ZM157.283 218V217.02H155.813V211.756H157.395V210.776H155.813V208.774H154.805V210.118C154.805 210.608 154.651 210.776 154.175 210.776H153.503V211.756H154.693V216.81C154.693 217.51 155.113 218 155.883 218H157.283ZM159.778 209.082C160.254 209.082 160.464 208.83 160.464 208.452V208.27C160.464 207.892 160.254 207.64 159.778 207.64C159.302 207.64 159.092 207.892 159.092 208.27V208.452C159.092 208.83 159.302 209.082 159.778 209.082ZM159.218 218H160.338V210.776H159.218V218ZM165.47 218.168C167.402 218.168 168.732 216.684 168.732 214.388C168.732 212.092 167.402 210.608 165.47 210.608C163.538 210.608 162.208 212.092 162.208 214.388C162.208 216.684 163.538 218.168 165.47 218.168ZM165.47 217.174C164.266 217.174 163.412 216.432 163.412 214.906V213.87C163.412 212.344 164.266 211.602 165.47 211.602C166.674 211.602 167.528 212.344 167.528 213.87V214.906C167.528 216.432 166.674 217.174 165.47 217.174ZM171.716 218V212.988C171.716 212.064 172.584 211.616 173.48 211.616C174.558 211.616 175.118 212.274 175.118 213.562V218H176.238V213.366C176.238 211.616 175.3 210.608 173.816 210.608C172.738 210.608 172.122 211.14 171.772 211.952H171.716V210.776H170.596V218H171.716Z" fill="#697077"/>
<rect width="124" height="92" transform="translate(235 89)" fill="white" style="mix-blend-mode:multiply"/>
<rect x="273.5" y="89.5" width="47" height="47" fill="#F6F2FF"/>
<path d="M274 90H320V136H274V90Z" fill="white"/>
<path d="M274 90H320V136H274V90Z" fill="#F6F2FF"/>
<rect width="20" height="20" transform="translate(287 103)" fill="white" style="mix-blend-mode:multiply"/>
<path d="M297.625 111.125V106.75H292V116.75H302V111.125H297.625ZM293.25 108H296.375V111.125H293.25V108ZM293.25 112.375H296.375V115.5H293.25V112.375ZM300.75 115.5H297.625V112.375H300.75V115.5Z" fill="black"/>
<path d="M304.5 109.875H298.875V104.25H304.5V109.875ZM300.125 108.625H303.25V105.5H300.125V108.625Z" fill="black"/>
<path d="M304.5 115.5H303.25V116.75H304.5V120.5H289.5V116.75H290.75V115.5H289.5C289.169 115.5 288.851 115.632 288.617 115.867C288.382 116.101 288.25 116.419 288.25 116.75V120.5C288.25 120.831 288.382 121.149 288.617 121.383C288.851 121.618 289.169 121.75 289.5 121.75H304.5C304.831 121.75 305.149 121.618 305.383 121.383C305.618 121.149 305.75 120.831 305.75 120.5V116.75C305.75 116.419 305.618 116.101 305.383 115.867C305.149 115.632 304.831 115.5 304.5 115.5Z" fill="black"/>
<path d="M291.375 119.25C291.72 119.25 292 118.97 292 118.625C292 118.28 291.72 118 291.375 118C291.03 118 290.75 118.28 290.75 118.625C290.75 118.97 291.03 119.25 291.375 119.25Z" fill="black"/>
<rect x="273.5" y="89.5" width="47" height="47" stroke="#A56EFF"/>
<path d="M274.697 159V155.276H277.245C279.051 155.276 280.143 154.072 280.143 152.252C280.143 150.446 279.051 149.228 277.245 149.228H272.849V159H274.697ZM274.697 150.838H277.077C277.791 150.838 278.225 151.216 278.225 151.93V152.574C278.225 153.288 277.791 153.68 277.077 153.68H274.697V150.838ZM283.521 159V154.52C283.521 153.722 284.151 153.386 285.355 153.386H285.915V151.692H285.523C284.361 151.692 283.773 152.434 283.591 153.204H283.521V151.692H281.729V159H283.521ZM288.281 150.628C289.009 150.628 289.331 150.25 289.331 149.732V149.452C289.331 148.934 289.009 148.556 288.281 148.556C287.539 148.556 287.231 148.934 287.231 149.452V149.732C287.231 150.25 287.539 150.628 288.281 150.628ZM287.385 159H289.177V151.692H287.385V159ZM295.11 159L297.56 151.692H295.852L294.858 154.842L294.144 157.446H294.046L293.332 154.842L292.31 151.692H290.546L292.982 159H295.11ZM300.599 159.168C301.691 159.168 302.489 158.678 302.727 157.74H302.811C302.923 158.496 303.399 159 304.169 159H305.163V157.572H304.435V154.128C304.435 152.462 303.385 151.524 301.411 151.524C299.941 151.524 299.087 152.084 298.555 152.924L299.619 153.876C299.969 153.372 300.445 152.952 301.285 152.952C302.237 152.952 302.643 153.428 302.643 154.24V154.772H301.397C299.409 154.772 298.275 155.514 298.275 157.012C298.275 158.314 299.115 159.168 300.599 159.168ZM301.201 157.866C300.501 157.866 300.095 157.572 300.095 156.984V156.746C300.095 156.172 300.557 155.85 301.495 155.85H302.643V156.816C302.643 157.502 301.999 157.866 301.201 157.866ZM309 159H310.288V157.572H308.902V153.12H310.4V151.692H308.902V149.69H307.292V150.936C307.292 151.44 307.124 151.692 306.592 151.692H306.032V153.12H307.11V157.138C307.11 158.328 307.768 159 309 159ZM315.014 159.168C316.372 159.168 317.436 158.65 318.038 157.824L317.072 156.746C316.624 157.32 316.092 157.74 315.21 157.74C314.034 157.74 313.432 157.026 313.432 155.976V155.794H318.29V155.206C318.29 153.204 317.24 151.524 314.958 151.524C312.816 151.524 311.57 153.022 311.57 155.332C311.57 157.67 312.858 159.168 315.014 159.168ZM314.986 152.868C315.91 152.868 316.428 153.554 316.428 154.562V154.688H313.432V154.576C313.432 153.568 314.048 152.868 314.986 152.868ZM240.493 177V175.516H239.191V168.712H240.493V167.228H236.055V168.712H237.343V175.516H236.055V177H240.493ZM242.541 177H247.497C248.939 177 250.017 175.768 250.017 174.2C250.017 172.534 248.757 171.932 247.903 171.918V171.834C248.799 171.778 249.653 171.218 249.653 169.734C249.653 168.222 248.673 167.228 247.063 167.228H242.541V177ZM244.389 172.814H246.965C247.665 172.814 248.085 173.206 248.085 173.892V174.368C248.085 175.054 247.665 175.432 246.965 175.432H244.389V172.814ZM244.389 168.796H246.671C247.343 168.796 247.735 169.174 247.735 169.832V170.266C247.735 170.91 247.343 171.302 246.671 171.302H244.389V168.796ZM251.984 177H253.734V169.986H253.79L254.546 171.54L256.548 175.236L258.55 171.54L259.306 169.986H259.362V177H261.112V167.228H259.11L256.632 172.002H256.576L254.07 167.228H251.984V177ZM270.836 177.168C272.586 177.168 273.748 176.314 274.448 174.858L272.95 173.976C272.628 174.858 271.942 175.53 270.836 175.53C269.464 175.53 268.582 174.578 268.582 172.898V171.358C268.582 169.692 269.464 168.698 270.836 168.698C271.928 168.698 272.544 169.286 272.824 170.154L274.406 169.314C273.72 167.802 272.586 167.06 270.836 167.06C268.26 167.06 266.622 168.894 266.622 172.184C266.622 175.474 268.26 177.168 270.836 177.168ZM278.831 177V175.572H277.865V166.64H276.073V175.236C276.073 176.356 276.647 177 277.865 177H278.831ZM283.246 177.168C285.346 177.168 286.648 175.684 286.648 173.332C286.648 170.994 285.346 169.524 283.246 169.524C281.16 169.524 279.858 170.994 279.858 173.332C279.858 175.684 281.16 177.168 283.246 177.168ZM283.246 175.726C282.322 175.726 281.734 175.124 281.734 174.018V172.66C281.734 171.568 282.322 170.966 283.246 170.966C284.184 170.966 284.772 171.568 284.772 172.66V174.018C284.772 175.124 284.184 175.726 283.246 175.726ZM292.765 177H294.557V169.692H292.765V174.522C292.765 175.306 292.051 175.684 291.337 175.684C290.483 175.684 290.105 175.138 290.105 174.13V169.692H288.313V174.312C288.313 176.132 289.153 177.168 290.651 177.168C291.855 177.168 292.443 176.51 292.695 175.782H292.765V177ZM301.323 177H303.115V166.64H301.323V170.896H301.253C301.001 170.056 300.203 169.524 299.237 169.524C297.403 169.524 296.381 170.896 296.381 173.332C296.381 175.782 297.403 177.168 299.237 177.168C300.203 177.168 300.987 176.608 301.253 175.782H301.323V177ZM299.811 175.684C298.887 175.684 298.257 175.012 298.257 173.976V172.716C298.257 171.68 298.887 170.994 299.811 170.994C300.665 170.994 301.323 171.456 301.323 172.17V174.494C301.323 175.25 300.665 175.684 299.811 175.684ZM310.602 177V172.52C310.602 171.722 311.232 171.386 312.436 171.386H312.996V169.692H312.604C311.442 169.692 310.854 170.434 310.672 171.204H310.602V169.692H308.81V177H310.602ZM317.352 177.168C318.71 177.168 319.774 176.65 320.376 175.824L319.41 174.746C318.962 175.32 318.43 175.74 317.548 175.74C316.372 175.74 315.77 175.026 315.77 173.976V173.794H320.628V173.206C320.628 171.204 319.578 169.524 317.296 169.524C315.154 169.524 313.908 171.022 313.908 173.332C313.908 175.67 315.196 177.168 317.352 177.168ZM317.324 170.868C318.248 170.868 318.766 171.554 318.766 172.562V172.688H315.77V172.576C315.77 171.568 316.386 170.868 317.324 170.868ZM328.959 177.616C328.959 176.3 328.189 175.53 326.397 175.53H324.437C323.793 175.53 323.485 175.348 323.485 174.984C323.485 174.662 323.723 174.452 324.003 174.326C324.325 174.41 324.703 174.452 325.123 174.452C327.111 174.452 328.147 173.472 328.147 172.002C328.147 171.106 327.769 170.392 327.013 169.972V169.776H328.567V168.404H327.433C326.761 168.404 326.397 168.754 326.397 169.468V169.706C326.033 169.58 325.571 169.524 325.123 169.524C323.149 169.524 322.099 170.518 322.099 172.002C322.099 172.968 322.547 173.724 323.429 174.13V174.186C322.729 174.34 322.085 174.718 322.085 175.474C322.085 176.062 322.421 176.538 323.023 176.692V176.846C322.211 176.972 321.721 177.434 321.721 178.246C321.721 179.324 322.659 179.968 325.123 179.968C327.923 179.968 328.959 179.142 328.959 177.616ZM327.279 177.826C327.279 178.442 326.761 178.736 325.599 178.736H324.703C323.583 178.736 323.163 178.4 323.163 177.84C323.163 177.546 323.275 177.28 323.541 177.084H326.033C326.943 177.084 327.279 177.364 327.279 177.826ZM325.123 173.234C324.269 173.234 323.807 172.842 323.807 172.114V171.876C323.807 171.134 324.269 170.756 325.123 170.756C325.977 170.756 326.439 171.134 326.439 171.876V172.114C326.439 172.842 325.977 173.234 325.123 173.234ZM331.049 168.628C331.777 168.628 332.099 168.25 332.099 167.732V167.452C332.099 166.934 331.777 166.556 331.049 166.556C330.307 166.556 329.999 166.934 329.999 167.452V167.732C329.999 168.25 330.307 168.628 331.049 168.628ZM330.153 177H331.945V169.692H330.153V177ZM336.577 177.168C338.397 177.168 339.587 176.188 339.587 174.774C339.587 173.556 338.817 172.842 337.221 172.618L336.479 172.52C335.793 172.408 335.527 172.184 335.527 171.694C335.527 171.246 335.863 170.938 336.633 170.938C337.347 170.938 337.963 171.274 338.383 171.722L339.433 170.672C338.733 169.944 338.005 169.524 336.577 169.524C334.911 169.524 333.805 170.42 333.805 171.834C333.805 173.164 334.673 173.85 336.241 174.046L336.969 174.144C337.613 174.228 337.865 174.494 337.865 174.914C337.865 175.432 337.501 175.754 336.647 175.754C335.821 175.754 335.177 175.376 334.645 174.76L333.553 175.824C334.281 176.664 335.191 177.168 336.577 177.168ZM343.502 177H344.79V175.572H343.404V171.12H344.902V169.692H343.404V167.69H341.794V168.936C341.794 169.44 341.626 169.692 341.094 169.692H340.534V171.12H341.612V175.138C341.612 176.328 342.27 177 343.502 177ZM348.408 177V172.52C348.408 171.722 349.038 171.386 350.242 171.386H350.802V169.692H350.41C349.248 169.692 348.66 170.434 348.478 171.204H348.408V169.692H346.616V177H348.408ZM355.587 173.556L355.083 175.404H354.999L354.523 173.556L353.249 169.692H351.471L354.089 177.35L353.753 178.372H352.437V179.8H353.515C354.719 179.8 355.237 179.352 355.601 178.302L358.541 169.692H356.861L355.587 173.556Z" fill="black"/>
<rect width="70" height="92" transform="translate(490 89)" fill="white" style="mix-blend-mode:multiply"/>
<rect width="48" height="48" transform="translate(501 89)" fill="black"/>
<rect width="20" height="20" transform="translate(515 103)" fill="white" style="mix-blend-mode:multiply"/>
<path d="M531.25 118.003H518.75C518.419 118.003 518.101 117.871 517.867 117.637C517.632 117.402 517.5 117.084 517.5 116.753V108.003C517.5 107.672 517.632 107.354 517.866 107.12C518.101 106.885 518.419 106.753 518.75 106.753H531.25C531.581 106.753 531.899 106.885 532.133 107.12C532.368 107.354 532.5 107.672 532.5 108.003V116.753C532.5 117.084 532.368 117.402 532.133 117.636C531.899 117.871 531.581 118.003 531.25 118.003ZM518.75 108.003V116.753H531.25V108.003H518.75Z" fill="white"/>
<path d="M533.75 119.253H516.25V120.503H533.75V119.253Z" fill="white"/>
<path d="M495.847 159V155.15L499.207 149.228H497.191L494.993 153.358H494.965L492.711 149.228H490.639L493.985 155.164V159H495.847ZM502.646 159.168C504.746 159.168 506.048 157.684 506.048 155.332C506.048 152.994 504.746 151.524 502.646 151.524C500.56 151.524 499.258 152.994 499.258 155.332C499.258 157.684 500.56 159.168 502.646 159.168ZM502.646 157.726C501.722 157.726 501.134 157.124 501.134 156.018V154.66C501.134 153.568 501.722 152.966 502.646 152.966C503.584 152.966 504.172 153.568 504.172 154.66V156.018C504.172 157.124 503.584 157.726 502.646 157.726ZM512.164 159H513.956V151.692H512.164V156.522C512.164 157.306 511.45 157.684 510.736 157.684C509.882 157.684 509.504 157.138 509.504 156.13V151.692H507.712V156.312C507.712 158.132 508.552 159.168 510.05 159.168C511.254 159.168 511.842 158.51 512.094 157.782H512.164V159ZM517.979 159V154.52C517.979 153.722 518.609 153.386 519.813 153.386H520.373V151.692H519.981C518.819 151.692 518.231 152.434 518.049 153.204H517.979V151.692H516.187V159H517.979ZM528.069 159V157.572H527.103V148.64H525.311V157.236C525.311 158.356 525.885 159 527.103 159H528.069ZM532.485 159.168C534.585 159.168 535.887 157.684 535.887 155.332C535.887 152.994 534.585 151.524 532.485 151.524C530.399 151.524 529.097 152.994 529.097 155.332C529.097 157.684 530.399 159.168 532.485 159.168ZM532.485 157.726C531.561 157.726 530.973 157.124 530.973 156.018V154.66C530.973 153.568 531.561 152.966 532.485 152.966C533.423 152.966 534.011 153.568 534.011 154.66V156.018C534.011 157.124 533.423 157.726 532.485 157.726ZM540.519 159.168C541.933 159.168 542.955 158.524 543.431 157.236L542.059 156.578C541.793 157.236 541.373 157.726 540.519 157.726C539.525 157.726 539.021 157.04 539.021 156.018V154.688C539.021 153.666 539.525 152.966 540.519 152.966C541.289 152.966 541.751 153.414 541.919 154.03L543.389 153.372C542.955 152.224 541.989 151.524 540.519 151.524C538.363 151.524 537.145 152.994 537.145 155.332C537.145 157.684 538.363 159.168 540.519 159.168ZM546.779 159.168C547.871 159.168 548.669 158.678 548.907 157.74H548.991C549.103 158.496 549.579 159 550.349 159H551.343V157.572H550.615V154.128C550.615 152.462 549.565 151.524 547.591 151.524C546.121 151.524 545.267 152.084 544.735 152.924L545.799 153.876C546.149 153.372 546.625 152.952 547.465 152.952C548.417 152.952 548.823 153.428 548.823 154.24V154.772H547.577C545.589 154.772 544.455 155.514 544.455 157.012C544.455 158.314 545.295 159.168 546.779 159.168ZM547.381 157.866C546.681 157.866 546.275 157.572 546.275 156.984V156.746C546.275 156.172 546.737 155.85 547.675 155.85H548.823V156.816C548.823 157.502 548.179 157.866 547.381 157.866ZM555.711 159V157.572H554.745V148.64H552.953V157.236C552.953 158.356 553.527 159 554.745 159H555.711ZM497.092 177.168C498.506 177.168 499.528 176.524 500.004 175.236L498.632 174.578C498.366 175.236 497.946 175.726 497.092 175.726C496.098 175.726 495.594 175.04 495.594 174.018V172.688C495.594 171.666 496.098 170.966 497.092 170.966C497.862 170.966 498.324 171.414 498.492 172.03L499.962 171.372C499.528 170.224 498.562 169.524 497.092 169.524C494.936 169.524 493.718 170.994 493.718 173.332C493.718 175.684 494.936 177.168 497.092 177.168ZM504.376 177.168C506.476 177.168 507.778 175.684 507.778 173.332C507.778 170.994 506.476 169.524 504.376 169.524C502.29 169.524 500.988 170.994 500.988 173.332C500.988 175.684 502.29 177.168 504.376 177.168ZM504.376 175.726C503.452 175.726 502.864 175.124 502.864 174.018V172.66C502.864 171.568 503.452 170.966 504.376 170.966C505.314 170.966 505.902 171.568 505.902 172.66V174.018C505.902 175.124 505.314 175.726 504.376 175.726ZM511.318 177V172.17C511.318 171.386 511.99 170.994 512.676 170.994C513.474 170.994 513.852 171.512 513.852 172.562V177H515.644V172.17C515.644 171.386 516.302 170.994 517.002 170.994C517.8 170.994 518.178 171.512 518.178 172.562V177H519.97V172.38C519.97 170.56 519.158 169.524 517.73 169.524C516.568 169.524 515.756 170.182 515.49 170.994H515.462C515.112 170.014 514.342 169.524 513.348 169.524C512.256 169.524 511.668 170.14 511.388 170.91H511.318V169.692H509.526V177H511.318ZM522.114 179.8H523.906V175.782H523.962C524.242 176.608 525.012 177.168 525.978 177.168C527.826 177.168 528.848 175.782 528.848 173.332C528.848 170.896 527.826 169.524 525.978 169.524C525.012 169.524 524.228 170.056 523.962 170.896H523.906V169.692H522.114V179.8ZM525.404 175.684C524.55 175.684 523.906 175.25 523.906 174.494V172.17C523.906 171.456 524.55 170.994 525.404 170.994C526.328 170.994 526.972 171.68 526.972 172.716V173.976C526.972 175.012 526.328 175.684 525.404 175.684ZM535.037 177H536.829V169.692H535.037V174.522C535.037 175.306 534.323 175.684 533.609 175.684C532.755 175.684 532.377 175.138 532.377 174.13V169.692H530.585V174.312C530.585 176.132 531.425 177.168 532.923 177.168C534.127 177.168 534.715 176.51 534.967 175.782H535.037V177ZM541.341 177H542.629V175.572H541.243V171.12H542.741V169.692H541.243V167.69H539.633V168.936C539.633 169.44 539.465 169.692 538.933 169.692H538.373V171.12H539.451V175.138C539.451 176.328 540.109 177 541.341 177ZM547.355 177.168C548.713 177.168 549.777 176.65 550.379 175.824L549.413 174.746C548.965 175.32 548.433 175.74 547.551 175.74C546.375 175.74 545.773 175.026 545.773 173.976V173.794H550.631V173.206C550.631 171.204 549.581 169.524 547.299 169.524C545.157 169.524 543.911 171.022 543.911 173.332C543.911 175.67 545.199 177.168 547.355 177.168ZM547.327 170.868C548.251 170.868 548.769 171.554 548.769 172.562V172.688H545.773V172.576C545.773 171.568 546.389 170.868 547.327 170.868ZM554.159 177V172.52C554.159 171.722 554.789 171.386 555.993 171.386H556.553V169.692H556.161C554.999 169.692 554.411 170.434 554.229 171.204H554.159V169.692H552.367V177H554.159Z" fill="black"/>
<rect width="130" height="92" transform="translate(688 89)" fill="white" style="mix-blend-mode:multiply"/>
<rect width="48" height="48" transform="translate(729 89)" fill="#8D8D8D"/>
<rect width="20" height="20" transform="translate(743 103)" fill="white" style="mix-blend-mode:multiply"/>
<path d="M758 104.875H748C747.668 104.875 747.351 105.007 747.116 105.241C746.882 105.476 746.75 105.793 746.75 106.125V119.875C746.75 120.207 746.882 120.524 747.116 120.759C747.351 120.993 747.668 121.125 748 121.125H758C758.332 121.125 758.649 120.993 758.884 120.759C759.118 120.524 759.25 120.207 759.25 119.875V106.125C759.25 105.793 759.118 105.476 758.884 105.241C758.649 105.007 758.332 104.875 758 104.875ZM758 106.125V109.875H748V106.125H758ZM748 114.875V111.125H758V114.875H748ZM748 119.875V116.125H758V119.875H748Z" fill="white"/>
<path d="M749.875 108.625C750.22 108.625 750.5 108.345 750.5 108C750.5 107.655 750.22 107.375 749.875 107.375C749.53 107.375 749.25 107.655 749.25 108C749.25 108.345 749.53 108.625 749.875 108.625Z" fill="white"/>
<path d="M749.875 113.625C750.22 113.625 750.5 113.345 750.5 113C750.5 112.655 750.22 112.375 749.875 112.375C749.53 112.375 749.25 112.655 749.25 113C749.25 113.345 749.53 113.625 749.875 113.625Z" fill="white"/>
<path d="M749.875 118.625C750.22 118.625 750.5 118.345 750.5 118C750.5 117.655 750.22 117.375 749.875 117.375C749.53 117.375 749.25 117.655 749.25 118C749.25 118.345 749.53 118.625 749.875 118.625Z" fill="white"/>
<path d="M704.923 159L701.675 149.228H699.379L696.103 159H697.979L698.749 156.508H702.221L703.005 159H704.923ZM701.773 154.926H699.197L700.443 150.908H700.513L701.773 154.926ZM708.203 159V154.17C708.203 153.386 708.917 152.994 709.659 152.994C710.513 152.994 710.863 153.526 710.863 154.562V159H712.655V154.38C712.655 152.56 711.815 151.524 710.317 151.524C709.183 151.524 708.567 152.126 708.273 152.91H708.203V151.692H706.411V159H708.203ZM717.898 155.556L717.394 157.404H717.31L716.834 155.556L715.56 151.692H713.782L716.4 159.35L716.064 160.372H714.748V161.8H715.826C717.03 161.8 717.548 161.352 717.912 160.302L720.852 151.692H719.172L717.898 155.556ZM728.561 159.168C730.661 159.168 731.963 157.684 731.963 155.332C731.963 152.994 730.661 151.524 728.561 151.524C726.475 151.524 725.173 152.994 725.173 155.332C725.173 157.684 726.475 159.168 728.561 159.168ZM728.561 157.726C727.637 157.726 727.049 157.124 727.049 156.018V154.66C727.049 153.568 727.637 152.966 728.561 152.966C729.499 152.966 730.087 153.568 730.087 154.66V156.018C730.087 157.124 729.499 157.726 728.561 157.726ZM735.939 159H737.227V157.572H735.841V153.12H737.339V151.692H735.841V149.69H734.231V150.936C734.231 151.44 734.063 151.692 733.531 151.692H732.971V153.12H734.049V157.138C734.049 158.328 734.707 159 735.939 159ZM739.053 159H740.845V154.17C740.845 153.386 741.559 152.994 742.301 152.994C743.155 152.994 743.505 153.526 743.505 154.562V159H745.297V154.38C745.297 152.56 744.457 151.524 742.959 151.524C741.825 151.524 741.209 152.126 740.915 152.91H740.845V148.64H739.053V159ZM750.397 159.168C751.755 159.168 752.819 158.65 753.421 157.824L752.455 156.746C752.007 157.32 751.475 157.74 750.593 157.74C749.417 157.74 748.815 157.026 748.815 155.976V155.794H753.673V155.206C753.673 153.204 752.623 151.524 750.341 151.524C748.199 151.524 746.953 153.022 746.953 155.332C746.953 157.67 748.241 159.168 750.397 159.168ZM750.369 152.868C751.293 152.868 751.811 153.554 751.811 154.562V154.688H748.815V154.576C748.815 153.568 749.431 152.868 750.369 152.868ZM757.202 159V154.52C757.202 153.722 757.832 153.386 759.036 153.386H759.596V151.692H759.204C758.042 151.692 757.454 152.434 757.272 153.204H757.202V151.692H755.41V159H757.202ZM764.535 161.8H766.327V157.782H766.383C766.663 158.608 767.433 159.168 768.399 159.168C770.247 159.168 771.269 157.782 771.269 155.332C771.269 152.896 770.247 151.524 768.399 151.524C767.433 151.524 766.649 152.056 766.383 152.896H766.327V151.692H764.535V161.8ZM767.825 157.684C766.971 157.684 766.327 157.25 766.327 156.494V154.17C766.327 153.456 766.971 152.994 767.825 152.994C768.749 152.994 769.393 153.68 769.393 154.716V155.976C769.393 157.012 768.749 157.684 767.825 157.684ZM774.881 159V154.52C774.881 153.722 775.511 153.386 776.715 153.386H777.275V151.692H776.883C775.721 151.692 775.133 152.434 774.951 153.204H774.881V151.692H773.089V159H774.881ZM779.641 150.628C780.369 150.628 780.691 150.25 780.691 149.732V149.452C780.691 148.934 780.369 148.556 779.641 148.556C778.899 148.556 778.591 148.934 778.591 149.452V149.732C778.591 150.25 778.899 150.628 779.641 150.628ZM778.745 159H780.537V151.692H778.745V159ZM786.47 159L788.92 151.692H787.212L786.218 154.842L785.504 157.446H785.406L784.692 154.842L783.67 151.692H781.906L784.342 159H786.47ZM791.959 159.168C793.051 159.168 793.849 158.678 794.087 157.74H794.171C794.283 158.496 794.759 159 795.529 159H796.523V157.572H795.795V154.128C795.795 152.462 794.745 151.524 792.771 151.524C791.301 151.524 790.447 152.084 789.915 152.924L790.979 153.876C791.329 153.372 791.805 152.952 792.645 152.952C793.597 152.952 794.003 153.428 794.003 154.24V154.772H792.757C790.769 154.772 789.635 155.514 789.635 157.012C789.635 158.314 790.475 159.168 791.959 159.168ZM792.561 157.866C791.861 157.866 791.455 157.572 791.455 156.984V156.746C791.455 156.172 791.917 155.85 792.855 155.85H794.003V156.816C794.003 157.502 793.359 157.866 792.561 157.866ZM800.361 159H801.649V157.572H800.263V153.12H801.761V151.692H800.263V149.69H798.653V150.936C798.653 151.44 798.485 151.692 797.953 151.692H797.393V153.12H798.471V157.138C798.471 158.328 799.129 159 800.361 159ZM806.374 159.168C807.732 159.168 808.796 158.65 809.398 157.824L808.432 156.746C807.984 157.32 807.452 157.74 806.57 157.74C805.394 157.74 804.792 157.026 804.792 155.976V155.794H809.65V155.206C809.65 153.204 808.6 151.524 806.318 151.524C804.176 151.524 802.93 153.022 802.93 155.332C802.93 157.67 804.218 159.168 806.374 159.168ZM806.346 152.868C807.27 152.868 807.788 153.554 807.788 154.562V154.688H804.792V154.576C804.792 153.568 805.408 152.868 806.346 152.868ZM692.127 177.168C694.227 177.168 695.529 175.684 695.529 173.332C695.529 170.994 694.227 169.524 692.127 169.524C690.041 169.524 688.739 170.994 688.739 173.332C688.739 175.684 690.041 177.168 692.127 177.168ZM692.127 175.726C691.203 175.726 690.615 175.124 690.615 174.018V172.66C690.615 171.568 691.203 170.966 692.127 170.966C693.065 170.966 693.653 171.568 693.653 172.66V174.018C693.653 175.124 693.065 175.726 692.127 175.726ZM699.07 177V172.52C699.07 171.722 699.7 171.386 700.904 171.386H701.464V169.692H701.072C699.91 169.692 699.322 170.434 699.14 171.204H699.07V169.692H697.278V177H699.07ZM706.402 179.8H708.194V175.782H708.25C708.53 176.608 709.3 177.168 710.266 177.168C712.114 177.168 713.136 175.782 713.136 173.332C713.136 170.896 712.114 169.524 710.266 169.524C709.3 169.524 708.516 170.056 708.25 170.896H708.194V169.692H706.402V179.8ZM709.692 175.684C708.838 175.684 708.194 175.25 708.194 174.494V172.17C708.194 171.456 708.838 170.994 709.692 170.994C710.616 170.994 711.26 171.68 711.26 172.716V173.976C711.26 175.012 710.616 175.684 709.692 175.684ZM719.325 177H721.117V169.692H719.325V174.522C719.325 175.306 718.611 175.684 717.897 175.684C717.043 175.684 716.665 175.138 716.665 174.13V169.692H714.873V174.312C714.873 176.132 715.713 177.168 717.211 177.168C718.415 177.168 719.003 176.51 719.255 175.782H719.325V177ZM723.347 177H725.139V175.782H725.195C725.475 176.608 726.245 177.168 727.211 177.168C729.059 177.168 730.081 175.782 730.081 173.332C730.081 170.896 729.059 169.524 727.211 169.524C726.245 169.524 725.461 170.056 725.195 170.896H725.139V166.64H723.347V177ZM726.637 175.684C725.783 175.684 725.139 175.25 725.139 174.494V172.17C725.139 171.456 725.783 170.994 726.637 170.994C727.561 170.994 728.205 171.68 728.205 172.716V173.976C728.205 175.012 727.561 175.684 726.637 175.684ZM734.66 177V175.572H733.694V166.64H731.902V175.236C731.902 176.356 732.476 177 733.694 177H734.66ZM737.073 168.628C737.801 168.628 738.123 168.25 738.123 167.732V167.452C738.123 166.934 737.801 166.556 737.073 166.556C736.331 166.556 736.023 166.934 736.023 167.452V167.732C736.023 168.25 736.331 168.628 737.073 168.628ZM736.177 177H737.969V169.692H736.177V177ZM743.09 177.168C744.504 177.168 745.526 176.524 746.002 175.236L744.63 174.578C744.364 175.236 743.944 175.726 743.09 175.726C742.096 175.726 741.592 175.04 741.592 174.018V172.688C741.592 171.666 742.096 170.966 743.09 170.966C743.86 170.966 744.322 171.414 744.49 172.03L745.96 171.372C745.526 170.224 744.56 169.524 743.09 169.524C740.934 169.524 739.716 170.994 739.716 173.332C739.716 175.684 740.934 177.168 743.09 177.168ZM752.804 177V172.52C752.804 171.722 753.434 171.386 754.638 171.386H755.198V169.692H754.806C753.644 169.692 753.056 170.434 752.874 171.204H752.804V169.692H751.012V177H752.804ZM759.554 177.168C760.912 177.168 761.976 176.65 762.578 175.824L761.612 174.746C761.164 175.32 760.632 175.74 759.75 175.74C758.574 175.74 757.972 175.026 757.972 173.976V173.794H762.83V173.206C762.83 171.204 761.78 169.524 759.498 169.524C757.356 169.524 756.11 171.022 756.11 173.332C756.11 175.67 757.398 177.168 759.554 177.168ZM759.526 170.868C760.45 170.868 760.968 171.554 760.968 172.562V172.688H757.972V172.576C757.972 171.568 758.588 170.868 759.526 170.868ZM764.567 179.8H766.359V175.782H766.415C766.695 176.608 767.465 177.168 768.431 177.168C770.279 177.168 771.301 175.782 771.301 173.332C771.301 170.896 770.279 169.524 768.431 169.524C767.465 169.524 766.681 170.056 766.415 170.896H766.359V169.692H764.567V179.8ZM767.857 175.684C767.003 175.684 766.359 175.25 766.359 174.494V172.17C766.359 171.456 767.003 170.994 767.857 170.994C768.781 170.994 769.425 171.68 769.425 172.716V173.976C769.425 175.012 768.781 175.684 767.857 175.684ZM776.019 177.168C778.119 177.168 779.421 175.684 779.421 173.332C779.421 170.994 778.119 169.524 776.019 169.524C773.933 169.524 772.631 170.994 772.631 173.332C772.631 175.684 773.933 177.168 776.019 177.168ZM776.019 175.726C775.095 175.726 774.507 175.124 774.507 174.018V172.66C774.507 171.568 775.095 170.966 776.019 170.966C776.957 170.966 777.545 171.568 777.545 172.66V174.018C777.545 175.124 776.957 175.726 776.019 175.726ZM783.564 177.168C785.384 177.168 786.574 176.188 786.574 174.774C786.574 173.556 785.804 172.842 784.208 172.618L783.466 172.52C782.78 172.408 782.514 172.184 782.514 171.694C782.514 171.246 782.85 170.938 783.62 170.938C784.334 170.938 784.95 171.274 785.37 171.722L786.42 170.672C785.72 169.944 784.992 169.524 783.564 169.524C781.898 169.524 780.792 170.42 780.792 171.834C780.792 173.164 781.66 173.85 783.228 174.046L783.956 174.144C784.6 174.228 784.852 174.494 784.852 174.914C784.852 175.432 784.488 175.754 783.634 175.754C782.808 175.754 782.164 175.376 781.632 174.76L780.54 175.824C781.268 176.664 782.178 177.168 783.564 177.168ZM789.212 168.628C789.94 168.628 790.262 168.25 790.262 167.732V167.452C790.262 166.934 789.94 166.556 789.212 166.556C788.47 166.556 788.162 166.934 788.162 167.452V167.732C788.162 168.25 788.47 168.628 789.212 168.628ZM788.316 177H790.108V169.692H788.316V177ZM794.628 177H795.916V175.572H794.53V171.12H796.028V169.692H794.53V167.69H792.92V168.936C792.92 169.44 792.752 169.692 792.22 169.692H791.66V171.12H792.738V175.138C792.738 176.328 793.396 177 794.628 177ZM800.585 177.168C802.685 177.168 803.987 175.684 803.987 173.332C803.987 170.994 802.685 169.524 800.585 169.524C798.499 169.524 797.197 170.994 797.197 173.332C797.197 175.684 798.499 177.168 800.585 177.168ZM800.585 175.726C799.661 175.726 799.073 175.124 799.073 174.018V172.66C799.073 171.568 799.661 170.966 800.585 170.966C801.523 170.966 802.111 171.568 802.111 172.66V174.018C802.111 175.124 801.523 175.726 800.585 175.726ZM807.528 177V172.52C807.528 171.722 808.158 171.386 809.362 171.386H809.922V169.692H809.53C808.368 169.692 807.78 170.434 807.598 171.204H807.528V169.692H805.736V177H807.528ZM814.707 173.556L814.203 175.404H814.119L813.643 173.556L812.369 169.692H810.591L813.209 177.35L812.873 178.372H811.557V179.8H812.635C813.839 179.8 814.357 179.352 814.721 178.302L817.661 169.692H815.981L814.707 173.556Z" fill="black"/>
<path d="M501 113L496 110.113L496 115.887L501 113ZM431.357 113.5L496.5 113.5L496.5 112.5L431.357 112.5L431.357 113.5ZM431.357 112.5L321 112.5L321 113.5L431.357 113.5L431.357 112.5Z" fill="#6F6F6F"/>
<rect x="396.5" y="105.5" width="37" height="15" rx="7.5" fill="white"/>
<path d="M406.124 117V113.424H408.452C409.952 113.424 410.792 112.5 410.792 111.024C410.792 109.548 409.952 108.624 408.452 108.624H405.116V117H406.124ZM406.124 109.512H408.452C409.244 109.512 409.712 109.944 409.712 110.712V111.336C409.712 112.104 409.244 112.536 408.452 112.536H406.124V109.512ZM416.433 117H417.393V110.808H416.433V115.092C416.433 115.908 415.689 116.28 414.933 116.28C414.009 116.28 413.517 115.716 413.517 114.612V110.808H412.557V114.78C412.557 116.28 413.373 117.144 414.645 117.144C415.677 117.144 416.145 116.58 416.385 115.992H416.433V117ZM421.63 117V116.16H420.718V108.12H419.758V116.004C419.758 116.58 420.118 117 420.778 117H421.63ZM425.161 117V116.16H424.249V108.12H423.289V116.004C423.289 116.58 423.649 117 424.309 117H425.161Z" fill="black"/>
<rect x="396.5" y="105.5" width="37" height="15" rx="7.5" stroke="black"/>
<path d="M549 113L554 115.887L554 110.113L549 113ZM618.643 112.5L553.5 112.5L553.5 113.5L618.643 113.5L618.643 112.5ZM618.643 113.5L729 113.5L729 112.5L618.643 112.5L618.643 113.5Z" fill="#6F6F6F"/>
<rect x="624.5" y="105.5" width="37" height="15" rx="7.5" fill="white"/>
<path d="M634.124 117V113.424H636.452C637.952 113.424 638.792 112.5 638.792 111.024C638.792 109.548 637.952 108.624 636.452 108.624H633.116V117H634.124ZM634.124 109.512H636.452C637.244 109.512 637.712 109.944 637.712 110.712V111.336C637.712 112.104 637.244 112.536 636.452 112.536H634.124V109.512ZM644.433 117H645.393V110.808H644.433V115.092C644.433 115.908 643.689 116.28 642.933 116.28C642.009 116.28 641.517 115.716 641.517 114.612V110.808H640.557V114.78C640.557 116.28 641.373 117.144 642.645 117.144C643.677 117.144 644.145 116.58 644.385 115.992H644.433V117ZM649.63 117V116.16H648.718V108.12H647.758V116.004C647.758 116.58 648.118 117 648.778 117H649.63ZM653.161 117V116.16H652.249V108.12H651.289V116.004C651.289 116.58 651.649 117 652.309 117H653.161Z" fill="black"/>
<rect x="624.5" y="105.5" width="37" height="15" rx="7.5" stroke="black"/>
</svg>
