<svg width="1080" height="270" viewBox="0 0 1080 270" fill="none" xmlns="http://www.w3.org/2000/svg">
<rect width="1080" height="270" fill="#F4F4F4"/>
<path d="M56 207.5H72C76.1421 207.5 79.5 210.858 79.5 215C79.5 219.142 76.1421 222.5 72 222.5H56C51.8579 222.5 48.5 219.142 48.5 215C48.5 210.858 51.8579 207.5 56 207.5Z" fill="white" stroke="#697077"/>
<path d="M90.478 220V215.576H94.72V214.54H90.478V211.264H95.126V210.228H89.302V220H90.478ZM99.2167 220V219.02H98.1527V209.64H97.0327V218.838C97.0327 219.51 97.4527 220 98.2227 220H99.2167ZM103.6 220.168C105.532 220.168 106.862 218.684 106.862 216.388C106.862 214.092 105.532 212.608 103.6 212.608C101.668 212.608 100.338 214.092 100.338 216.388C100.338 218.684 101.668 220.168 103.6 220.168ZM103.6 219.174C102.396 219.174 101.542 218.432 101.542 216.906V215.87C101.542 214.344 102.396 213.602 103.6 213.602C104.804 213.602 105.658 214.344 105.658 215.87V216.906C105.658 218.432 104.804 219.174 103.6 219.174ZM109.834 220H111.192L112.2 216.528L112.816 214.33H112.844L113.474 216.528L114.482 220H115.868L117.786 212.776H116.736L115.952 215.898L115.21 219.062H115.182L114.286 215.898L113.348 212.776H112.354L111.444 215.898L110.562 219.062H110.534L109.764 215.898L108.994 212.776H107.902L109.834 220ZM127.377 220H128.497V209.64H127.377V213.952H127.321C126.943 213.042 126.201 212.608 125.207 212.608C123.401 212.608 122.267 214.078 122.267 216.388C122.267 218.698 123.401 220.168 125.207 220.168C126.201 220.168 126.887 219.72 127.321 218.824H127.377V220ZM125.515 219.16C124.255 219.16 123.471 218.292 123.471 217.004V215.772C123.471 214.484 124.255 213.616 125.515 213.616C126.537 213.616 127.377 214.204 127.377 215.002V217.69C127.377 218.628 126.537 219.16 125.515 219.16ZM131.461 211.082C131.937 211.082 132.147 210.83 132.147 210.452V210.27C132.147 209.892 131.937 209.64 131.461 209.64C130.985 209.64 130.775 209.892 130.775 210.27V210.452C130.775 210.83 130.985 211.082 131.461 211.082ZM130.901 220H132.021V212.776H130.901V220ZM135.543 220V215.1C135.543 214.414 136.271 213.896 137.475 213.896H138.133V212.776H137.699C136.523 212.776 135.865 213.42 135.613 214.106H135.543V212.776H134.423V220H135.543ZM142.234 220.168C143.592 220.168 144.628 219.496 145.09 218.516L144.292 217.942C143.914 218.74 143.214 219.188 142.304 219.188C140.96 219.188 140.162 218.25 140.162 217.004V216.668H145.356V216.136C145.356 214.092 144.166 212.608 142.234 212.608C140.274 212.608 138.986 214.092 138.986 216.388C138.986 218.684 140.274 220.168 142.234 220.168ZM142.234 213.546C143.382 213.546 144.152 214.4 144.152 215.674V215.828H140.162V215.73C140.162 214.47 141.016 213.546 142.234 213.546ZM149.912 220.168C151.284 220.168 152.222 219.496 152.684 218.46L151.872 217.914C151.48 218.74 150.822 219.174 149.912 219.174C148.582 219.174 147.896 218.264 147.896 217.004V215.772C147.896 214.512 148.582 213.602 149.912 213.602C150.794 213.602 151.41 214.036 151.676 214.778L152.614 214.302C152.194 213.308 151.34 212.608 149.912 212.608C147.882 212.608 146.692 214.078 146.692 216.388C146.692 218.698 147.882 220.168 149.912 220.168ZM157.283 220V219.02H155.813V213.756H157.395V212.776H155.813V210.774H154.805V212.118C154.805 212.608 154.651 212.776 154.175 212.776H153.503V213.756H154.693V218.81C154.693 219.51 155.113 220 155.883 220H157.283ZM159.778 211.082C160.254 211.082 160.464 210.83 160.464 210.452V210.27C160.464 209.892 160.254 209.64 159.778 209.64C159.302 209.64 159.092 209.892 159.092 210.27V210.452C159.092 210.83 159.302 211.082 159.778 211.082ZM159.218 220H160.338V212.776H159.218V220ZM165.47 220.168C167.402 220.168 168.732 218.684 168.732 216.388C168.732 214.092 167.402 212.608 165.47 212.608C163.538 212.608 162.208 214.092 162.208 216.388C162.208 218.684 163.538 220.168 165.47 220.168ZM165.47 219.174C164.266 219.174 163.412 218.432 163.412 216.906V215.87C163.412 214.344 164.266 213.602 165.47 213.602C166.674 213.602 167.528 214.344 167.528 215.87V216.906C167.528 218.432 166.674 219.174 165.47 219.174ZM171.716 220V214.988C171.716 214.064 172.584 213.616 173.48 213.616C174.558 213.616 175.118 214.274 175.118 215.562V220H176.238V215.366C176.238 213.616 175.3 212.608 173.816 212.608C172.738 212.608 172.122 213.14 171.772 213.952H171.716V212.776H170.596V220H171.716Z" fill="#697077"/>
<rect width="124" height="92" transform="translate(234 80)" fill="white" style="mix-blend-mode:multiply"/>
<rect x="272.5" y="80.5" width="47" height="47" fill="#F6F2FF"/>
<path d="M273 81H319V127H273V81Z" fill="white"/>
<path d="M273 81H319V127H273V81Z" fill="#F6F2FF"/>
<rect width="20" height="20" transform="translate(286 94)" fill="white" style="mix-blend-mode:multiply"/>
<path d="M296.625 102.125V97.75H291V107.75H301V102.125H296.625ZM292.25 99H295.375V102.125H292.25V99ZM292.25 103.375H295.375V106.5H292.25V103.375ZM299.75 106.5H296.625V103.375H299.75V106.5Z" fill="black"/>
<path d="M303.5 100.875H297.875V95.25H303.5V100.875ZM299.125 99.625H302.25V96.5H299.125V99.625Z" fill="black"/>
<path d="M303.5 106.5H302.25V107.75H303.5V111.5H288.5V107.75H289.75V106.5H288.5C288.169 106.5 287.851 106.632 287.617 106.867C287.382 107.101 287.25 107.419 287.25 107.75V111.5C287.25 111.831 287.382 112.149 287.617 112.383C287.851 112.618 288.169 112.75 288.5 112.75H303.5C303.831 112.75 304.149 112.618 304.383 112.383C304.618 112.149 304.75 111.831 304.75 111.5V107.75C304.75 107.419 304.618 107.101 304.383 106.867C304.149 106.632 303.831 106.5 303.5 106.5Z" fill="black"/>
<path d="M290.375 110.25C290.72 110.25 291 109.97 291 109.625C291 109.28 290.72 109 290.375 109C290.03 109 289.75 109.28 289.75 109.625C289.75 109.97 290.03 110.25 290.375 110.25Z" fill="black"/>
<rect x="272.5" y="80.5" width="47" height="47" stroke="#A56EFF"/>
<path d="M273.697 150V146.276H276.245C278.051 146.276 279.143 145.072 279.143 143.252C279.143 141.446 278.051 140.228 276.245 140.228H271.849V150H273.697ZM273.697 141.838H276.077C276.791 141.838 277.225 142.216 277.225 142.93V143.574C277.225 144.288 276.791 144.68 276.077 144.68H273.697V141.838ZM282.521 150V145.52C282.521 144.722 283.151 144.386 284.355 144.386H284.915V142.692H284.523C283.361 142.692 282.773 143.434 282.591 144.204H282.521V142.692H280.729V150H282.521ZM287.281 141.628C288.009 141.628 288.331 141.25 288.331 140.732V140.452C288.331 139.934 288.009 139.556 287.281 139.556C286.539 139.556 286.231 139.934 286.231 140.452V140.732C286.231 141.25 286.539 141.628 287.281 141.628ZM286.385 150H288.177V142.692H286.385V150ZM294.11 150L296.56 142.692H294.852L293.858 145.842L293.144 148.446H293.046L292.332 145.842L291.31 142.692H289.546L291.982 150H294.11ZM299.599 150.168C300.691 150.168 301.489 149.678 301.727 148.74H301.811C301.923 149.496 302.399 150 303.169 150H304.163V148.572H303.435V145.128C303.435 143.462 302.385 142.524 300.411 142.524C298.941 142.524 298.087 143.084 297.555 143.924L298.619 144.876C298.969 144.372 299.445 143.952 300.285 143.952C301.237 143.952 301.643 144.428 301.643 145.24V145.772H300.397C298.409 145.772 297.275 146.514 297.275 148.012C297.275 149.314 298.115 150.168 299.599 150.168ZM300.201 148.866C299.501 148.866 299.095 148.572 299.095 147.984V147.746C299.095 147.172 299.557 146.85 300.495 146.85H301.643V147.816C301.643 148.502 300.999 148.866 300.201 148.866ZM308 150H309.288V148.572H307.902V144.12H309.4V142.692H307.902V140.69H306.292V141.936C306.292 142.44 306.124 142.692 305.592 142.692H305.032V144.12H306.11V148.138C306.11 149.328 306.768 150 308 150ZM314.014 150.168C315.372 150.168 316.436 149.65 317.038 148.824L316.072 147.746C315.624 148.32 315.092 148.74 314.21 148.74C313.034 148.74 312.432 148.026 312.432 146.976V146.794H317.29V146.206C317.29 144.204 316.24 142.524 313.958 142.524C311.816 142.524 310.57 144.022 310.57 146.332C310.57 148.67 311.858 150.168 314.014 150.168ZM313.986 143.868C314.91 143.868 315.428 144.554 315.428 145.562V145.688H312.432V145.576C312.432 144.568 313.048 143.868 313.986 143.868ZM239.493 168V166.516H238.191V159.712H239.493V158.228H235.055V159.712H236.343V166.516H235.055V168H239.493ZM241.541 168H246.497C247.939 168 249.017 166.768 249.017 165.2C249.017 163.534 247.757 162.932 246.903 162.918V162.834C247.799 162.778 248.653 162.218 248.653 160.734C248.653 159.222 247.673 158.228 246.063 158.228H241.541V168ZM243.389 163.814H245.965C246.665 163.814 247.085 164.206 247.085 164.892V165.368C247.085 166.054 246.665 166.432 245.965 166.432H243.389V163.814ZM243.389 159.796H245.671C246.343 159.796 246.735 160.174 246.735 160.832V161.266C246.735 161.91 246.343 162.302 245.671 162.302H243.389V159.796ZM250.984 168H252.734V160.986H252.79L253.546 162.54L255.548 166.236L257.55 162.54L258.306 160.986H258.362V168H260.112V158.228H258.11L255.632 163.002H255.576L253.07 158.228H250.984V168ZM269.836 168.168C271.586 168.168 272.748 167.314 273.448 165.858L271.95 164.976C271.628 165.858 270.942 166.53 269.836 166.53C268.464 166.53 267.582 165.578 267.582 163.898V162.358C267.582 160.692 268.464 159.698 269.836 159.698C270.928 159.698 271.544 160.286 271.824 161.154L273.406 160.314C272.72 158.802 271.586 158.06 269.836 158.06C267.26 158.06 265.622 159.894 265.622 163.184C265.622 166.474 267.26 168.168 269.836 168.168ZM277.831 168V166.572H276.865V157.64H275.073V166.236C275.073 167.356 275.647 168 276.865 168H277.831ZM282.246 168.168C284.346 168.168 285.648 166.684 285.648 164.332C285.648 161.994 284.346 160.524 282.246 160.524C280.16 160.524 278.858 161.994 278.858 164.332C278.858 166.684 280.16 168.168 282.246 168.168ZM282.246 166.726C281.322 166.726 280.734 166.124 280.734 165.018V163.66C280.734 162.568 281.322 161.966 282.246 161.966C283.184 161.966 283.772 162.568 283.772 163.66V165.018C283.772 166.124 283.184 166.726 282.246 166.726ZM291.765 168H293.557V160.692H291.765V165.522C291.765 166.306 291.051 166.684 290.337 166.684C289.483 166.684 289.105 166.138 289.105 165.13V160.692H287.313V165.312C287.313 167.132 288.153 168.168 289.651 168.168C290.855 168.168 291.443 167.51 291.695 166.782H291.765V168ZM300.323 168H302.115V157.64H300.323V161.896H300.253C300.001 161.056 299.203 160.524 298.237 160.524C296.403 160.524 295.381 161.896 295.381 164.332C295.381 166.782 296.403 168.168 298.237 168.168C299.203 168.168 299.987 167.608 300.253 166.782H300.323V168ZM298.811 166.684C297.887 166.684 297.257 166.012 297.257 164.976V163.716C297.257 162.68 297.887 161.994 298.811 161.994C299.665 161.994 300.323 162.456 300.323 163.17V165.494C300.323 166.25 299.665 166.684 298.811 166.684ZM309.602 168V163.52C309.602 162.722 310.232 162.386 311.436 162.386H311.996V160.692H311.604C310.442 160.692 309.854 161.434 309.672 162.204H309.602V160.692H307.81V168H309.602ZM316.352 168.168C317.71 168.168 318.774 167.65 319.376 166.824L318.41 165.746C317.962 166.32 317.43 166.74 316.548 166.74C315.372 166.74 314.77 166.026 314.77 164.976V164.794H319.628V164.206C319.628 162.204 318.578 160.524 316.296 160.524C314.154 160.524 312.908 162.022 312.908 164.332C312.908 166.67 314.196 168.168 316.352 168.168ZM316.324 161.868C317.248 161.868 317.766 162.554 317.766 163.562V163.688H314.77V163.576C314.77 162.568 315.386 161.868 316.324 161.868ZM327.959 168.616C327.959 167.3 327.189 166.53 325.397 166.53H323.437C322.793 166.53 322.485 166.348 322.485 165.984C322.485 165.662 322.723 165.452 323.003 165.326C323.325 165.41 323.703 165.452 324.123 165.452C326.111 165.452 327.147 164.472 327.147 163.002C327.147 162.106 326.769 161.392 326.013 160.972V160.776H327.567V159.404H326.433C325.761 159.404 325.397 159.754 325.397 160.468V160.706C325.033 160.58 324.571 160.524 324.123 160.524C322.149 160.524 321.099 161.518 321.099 163.002C321.099 163.968 321.547 164.724 322.429 165.13V165.186C321.729 165.34 321.085 165.718 321.085 166.474C321.085 167.062 321.421 167.538 322.023 167.692V167.846C321.211 167.972 320.721 168.434 320.721 169.246C320.721 170.324 321.659 170.968 324.123 170.968C326.923 170.968 327.959 170.142 327.959 168.616ZM326.279 168.826C326.279 169.442 325.761 169.736 324.599 169.736H323.703C322.583 169.736 322.163 169.4 322.163 168.84C322.163 168.546 322.275 168.28 322.541 168.084H325.033C325.943 168.084 326.279 168.364 326.279 168.826ZM324.123 164.234C323.269 164.234 322.807 163.842 322.807 163.114V162.876C322.807 162.134 323.269 161.756 324.123 161.756C324.977 161.756 325.439 162.134 325.439 162.876V163.114C325.439 163.842 324.977 164.234 324.123 164.234ZM330.049 159.628C330.777 159.628 331.099 159.25 331.099 158.732V158.452C331.099 157.934 330.777 157.556 330.049 157.556C329.307 157.556 328.999 157.934 328.999 158.452V158.732C328.999 159.25 329.307 159.628 330.049 159.628ZM329.153 168H330.945V160.692H329.153V168ZM335.577 168.168C337.397 168.168 338.587 167.188 338.587 165.774C338.587 164.556 337.817 163.842 336.221 163.618L335.479 163.52C334.793 163.408 334.527 163.184 334.527 162.694C334.527 162.246 334.863 161.938 335.633 161.938C336.347 161.938 336.963 162.274 337.383 162.722L338.433 161.672C337.733 160.944 337.005 160.524 335.577 160.524C333.911 160.524 332.805 161.42 332.805 162.834C332.805 164.164 333.673 164.85 335.241 165.046L335.969 165.144C336.613 165.228 336.865 165.494 336.865 165.914C336.865 166.432 336.501 166.754 335.647 166.754C334.821 166.754 334.177 166.376 333.645 165.76L332.553 166.824C333.281 167.664 334.191 168.168 335.577 168.168ZM342.502 168H343.79V166.572H342.404V162.12H343.902V160.692H342.404V158.69H340.794V159.936C340.794 160.44 340.626 160.692 340.094 160.692H339.534V162.12H340.612V166.138C340.612 167.328 341.27 168 342.502 168ZM347.408 168V163.52C347.408 162.722 348.038 162.386 349.242 162.386H349.802V160.692H349.41C348.248 160.692 347.66 161.434 347.478 162.204H347.408V160.692H345.616V168H347.408ZM354.587 164.556L354.083 166.404H353.999L353.523 164.556L352.249 160.692H350.471L353.089 168.35L352.753 169.372H351.437V170.8H352.515C353.719 170.8 354.237 170.352 354.601 169.302L357.541 160.692H355.861L354.587 164.556Z" fill="black"/>
<rect width="70" height="92" transform="translate(489 80)" fill="white" style="mix-blend-mode:multiply"/>
<rect width="48" height="48" transform="translate(500 80)" fill="black"/>
<rect width="20" height="20" transform="translate(514 94)" fill="white" style="mix-blend-mode:multiply"/>
<path d="M530.25 109.003H517.75C517.419 109.003 517.101 108.871 516.867 108.637C516.632 108.402 516.5 108.084 516.5 107.753V99.0031C516.5 98.6716 516.632 98.3539 516.866 98.1195C517.101 97.8852 517.419 97.7534 517.75 97.7531H530.25C530.581 97.7534 530.899 97.8853 531.133 98.1196C531.368 98.3539 531.5 98.6716 531.5 99.0031V107.753C531.5 108.084 531.368 108.402 531.133 108.636C530.899 108.871 530.581 109.003 530.25 109.003ZM517.75 99.0031V107.753H530.25V99.0031H517.75Z" fill="white"/>
<path d="M532.75 110.253H515.25V111.503H532.75V110.253Z" fill="white"/>
<path d="M494.847 150V146.15L498.207 140.228H496.191L493.993 144.358H493.965L491.711 140.228H489.639L492.985 146.164V150H494.847ZM501.646 150.168C503.746 150.168 505.048 148.684 505.048 146.332C505.048 143.994 503.746 142.524 501.646 142.524C499.56 142.524 498.258 143.994 498.258 146.332C498.258 148.684 499.56 150.168 501.646 150.168ZM501.646 148.726C500.722 148.726 500.134 148.124 500.134 147.018V145.66C500.134 144.568 500.722 143.966 501.646 143.966C502.584 143.966 503.172 144.568 503.172 145.66V147.018C503.172 148.124 502.584 148.726 501.646 148.726ZM511.164 150H512.956V142.692H511.164V147.522C511.164 148.306 510.45 148.684 509.736 148.684C508.882 148.684 508.504 148.138 508.504 147.13V142.692H506.712V147.312C506.712 149.132 507.552 150.168 509.05 150.168C510.254 150.168 510.842 149.51 511.094 148.782H511.164V150ZM516.979 150V145.52C516.979 144.722 517.609 144.386 518.813 144.386H519.373V142.692H518.981C517.819 142.692 517.231 143.434 517.049 144.204H516.979V142.692H515.187V150H516.979ZM527.069 150V148.572H526.103V139.64H524.311V148.236C524.311 149.356 524.885 150 526.103 150H527.069ZM531.485 150.168C533.585 150.168 534.887 148.684 534.887 146.332C534.887 143.994 533.585 142.524 531.485 142.524C529.399 142.524 528.097 143.994 528.097 146.332C528.097 148.684 529.399 150.168 531.485 150.168ZM531.485 148.726C530.561 148.726 529.973 148.124 529.973 147.018V145.66C529.973 144.568 530.561 143.966 531.485 143.966C532.423 143.966 533.011 144.568 533.011 145.66V147.018C533.011 148.124 532.423 148.726 531.485 148.726ZM539.519 150.168C540.933 150.168 541.955 149.524 542.431 148.236L541.059 147.578C540.793 148.236 540.373 148.726 539.519 148.726C538.525 148.726 538.021 148.04 538.021 147.018V145.688C538.021 144.666 538.525 143.966 539.519 143.966C540.289 143.966 540.751 144.414 540.919 145.03L542.389 144.372C541.955 143.224 540.989 142.524 539.519 142.524C537.363 142.524 536.145 143.994 536.145 146.332C536.145 148.684 537.363 150.168 539.519 150.168ZM545.779 150.168C546.871 150.168 547.669 149.678 547.907 148.74H547.991C548.103 149.496 548.579 150 549.349 150H550.343V148.572H549.615V145.128C549.615 143.462 548.565 142.524 546.591 142.524C545.121 142.524 544.267 143.084 543.735 143.924L544.799 144.876C545.149 144.372 545.625 143.952 546.465 143.952C547.417 143.952 547.823 144.428 547.823 145.24V145.772H546.577C544.589 145.772 543.455 146.514 543.455 148.012C543.455 149.314 544.295 150.168 545.779 150.168ZM546.381 148.866C545.681 148.866 545.275 148.572 545.275 147.984V147.746C545.275 147.172 545.737 146.85 546.675 146.85H547.823V147.816C547.823 148.502 547.179 148.866 546.381 148.866ZM554.711 150V148.572H553.745V139.64H551.953V148.236C551.953 149.356 552.527 150 553.745 150H554.711ZM496.092 168.168C497.506 168.168 498.528 167.524 499.004 166.236L497.632 165.578C497.366 166.236 496.946 166.726 496.092 166.726C495.098 166.726 494.594 166.04 494.594 165.018V163.688C494.594 162.666 495.098 161.966 496.092 161.966C496.862 161.966 497.324 162.414 497.492 163.03L498.962 162.372C498.528 161.224 497.562 160.524 496.092 160.524C493.936 160.524 492.718 161.994 492.718 164.332C492.718 166.684 493.936 168.168 496.092 168.168ZM503.376 168.168C505.476 168.168 506.778 166.684 506.778 164.332C506.778 161.994 505.476 160.524 503.376 160.524C501.29 160.524 499.988 161.994 499.988 164.332C499.988 166.684 501.29 168.168 503.376 168.168ZM503.376 166.726C502.452 166.726 501.864 166.124 501.864 165.018V163.66C501.864 162.568 502.452 161.966 503.376 161.966C504.314 161.966 504.902 162.568 504.902 163.66V165.018C504.902 166.124 504.314 166.726 503.376 166.726ZM510.318 168V163.17C510.318 162.386 510.99 161.994 511.676 161.994C512.474 161.994 512.852 162.512 512.852 163.562V168H514.644V163.17C514.644 162.386 515.302 161.994 516.002 161.994C516.8 161.994 517.178 162.512 517.178 163.562V168H518.97V163.38C518.97 161.56 518.158 160.524 516.73 160.524C515.568 160.524 514.756 161.182 514.49 161.994H514.462C514.112 161.014 513.342 160.524 512.348 160.524C511.256 160.524 510.668 161.14 510.388 161.91H510.318V160.692H508.526V168H510.318ZM521.114 170.8H522.906V166.782H522.962C523.242 167.608 524.012 168.168 524.978 168.168C526.826 168.168 527.848 166.782 527.848 164.332C527.848 161.896 526.826 160.524 524.978 160.524C524.012 160.524 523.228 161.056 522.962 161.896H522.906V160.692H521.114V170.8ZM524.404 166.684C523.55 166.684 522.906 166.25 522.906 165.494V163.17C522.906 162.456 523.55 161.994 524.404 161.994C525.328 161.994 525.972 162.68 525.972 163.716V164.976C525.972 166.012 525.328 166.684 524.404 166.684ZM534.037 168H535.829V160.692H534.037V165.522C534.037 166.306 533.323 166.684 532.609 166.684C531.755 166.684 531.377 166.138 531.377 165.13V160.692H529.585V165.312C529.585 167.132 530.425 168.168 531.923 168.168C533.127 168.168 533.715 167.51 533.967 166.782H534.037V168ZM540.341 168H541.629V166.572H540.243V162.12H541.741V160.692H540.243V158.69H538.633V159.936C538.633 160.44 538.465 160.692 537.933 160.692H537.373V162.12H538.451V166.138C538.451 167.328 539.109 168 540.341 168ZM546.355 168.168C547.713 168.168 548.777 167.65 549.379 166.824L548.413 165.746C547.965 166.32 547.433 166.74 546.551 166.74C545.375 166.74 544.773 166.026 544.773 164.976V164.794H549.631V164.206C549.631 162.204 548.581 160.524 546.299 160.524C544.157 160.524 542.911 162.022 542.911 164.332C542.911 166.67 544.199 168.168 546.355 168.168ZM546.327 161.868C547.251 161.868 547.769 162.554 547.769 163.562V163.688H544.773V163.576C544.773 162.568 545.389 161.868 546.327 161.868ZM553.159 168V163.52C553.159 162.722 553.789 162.386 554.993 162.386H555.553V160.692H555.161C553.999 160.692 553.411 161.434 553.229 162.204H553.159V160.692H551.367V168H553.159Z" fill="black"/>
<rect width="130" height="92" transform="translate(687 80)" fill="white" style="mix-blend-mode:multiply"/>
<rect width="48" height="48" transform="translate(728 80)" fill="#8D8D8D"/>
<rect width="20" height="20" transform="translate(742 94)" fill="white" style="mix-blend-mode:multiply"/>
<path d="M757 95.875H747C746.668 95.875 746.351 96.0067 746.116 96.2411C745.882 96.4755 745.75 96.7935 745.75 97.125V110.875C745.75 111.207 745.882 111.524 746.116 111.759C746.351 111.993 746.668 112.125 747 112.125H757C757.332 112.125 757.649 111.993 757.884 111.759C758.118 111.524 758.25 111.207 758.25 110.875V97.125C758.25 96.7935 758.118 96.4755 757.884 96.2411C757.649 96.0067 757.332 95.875 757 95.875ZM757 97.125V100.875H747V97.125H757ZM747 105.875V102.125H757V105.875H747ZM747 110.875V107.125H757V110.875H747Z" fill="white"/>
<path d="M748.875 99.625C749.22 99.625 749.5 99.3452 749.5 99C749.5 98.6548 749.22 98.375 748.875 98.375C748.53 98.375 748.25 98.6548 748.25 99C748.25 99.3452 748.53 99.625 748.875 99.625Z" fill="white"/>
<path d="M748.875 104.625C749.22 104.625 749.5 104.345 749.5 104C749.5 103.655 749.22 103.375 748.875 103.375C748.53 103.375 748.25 103.655 748.25 104C748.25 104.345 748.53 104.625 748.875 104.625Z" fill="white"/>
<path d="M748.875 109.625C749.22 109.625 749.5 109.345 749.5 109C749.5 108.655 749.22 108.375 748.875 108.375C748.53 108.375 748.25 108.655 748.25 109C748.25 109.345 748.53 109.625 748.875 109.625Z" fill="white"/>
<path d="M703.923 150L700.675 140.228H698.379L695.103 150H696.979L697.749 147.508H701.221L702.005 150H703.923ZM700.773 145.926H698.197L699.443 141.908H699.513L700.773 145.926ZM707.203 150V145.17C707.203 144.386 707.917 143.994 708.659 143.994C709.513 143.994 709.863 144.526 709.863 145.562V150H711.655V145.38C711.655 143.56 710.815 142.524 709.317 142.524C708.183 142.524 707.567 143.126 707.273 143.91H707.203V142.692H705.411V150H707.203ZM716.898 146.556L716.394 148.404H716.31L715.834 146.556L714.56 142.692H712.782L715.4 150.35L715.064 151.372H713.748V152.8H714.826C716.03 152.8 716.548 152.352 716.912 151.302L719.852 142.692H718.172L716.898 146.556ZM727.561 150.168C729.661 150.168 730.963 148.684 730.963 146.332C730.963 143.994 729.661 142.524 727.561 142.524C725.475 142.524 724.173 143.994 724.173 146.332C724.173 148.684 725.475 150.168 727.561 150.168ZM727.561 148.726C726.637 148.726 726.049 148.124 726.049 147.018V145.66C726.049 144.568 726.637 143.966 727.561 143.966C728.499 143.966 729.087 144.568 729.087 145.66V147.018C729.087 148.124 728.499 148.726 727.561 148.726ZM734.939 150H736.227V148.572H734.841V144.12H736.339V142.692H734.841V140.69H733.231V141.936C733.231 142.44 733.063 142.692 732.531 142.692H731.971V144.12H733.049V148.138C733.049 149.328 733.707 150 734.939 150ZM738.053 150H739.845V145.17C739.845 144.386 740.559 143.994 741.301 143.994C742.155 143.994 742.505 144.526 742.505 145.562V150H744.297V145.38C744.297 143.56 743.457 142.524 741.959 142.524C740.825 142.524 740.209 143.126 739.915 143.91H739.845V139.64H738.053V150ZM749.397 150.168C750.755 150.168 751.819 149.65 752.421 148.824L751.455 147.746C751.007 148.32 750.475 148.74 749.593 148.74C748.417 148.74 747.815 148.026 747.815 146.976V146.794H752.673V146.206C752.673 144.204 751.623 142.524 749.341 142.524C747.199 142.524 745.953 144.022 745.953 146.332C745.953 148.67 747.241 150.168 749.397 150.168ZM749.369 143.868C750.293 143.868 750.811 144.554 750.811 145.562V145.688H747.815V145.576C747.815 144.568 748.431 143.868 749.369 143.868ZM756.202 150V145.52C756.202 144.722 756.832 144.386 758.036 144.386H758.596V142.692H758.204C757.042 142.692 756.454 143.434 756.272 144.204H756.202V142.692H754.41V150H756.202ZM763.535 152.8H765.327V148.782H765.383C765.663 149.608 766.433 150.168 767.399 150.168C769.247 150.168 770.269 148.782 770.269 146.332C770.269 143.896 769.247 142.524 767.399 142.524C766.433 142.524 765.649 143.056 765.383 143.896H765.327V142.692H763.535V152.8ZM766.825 148.684C765.971 148.684 765.327 148.25 765.327 147.494V145.17C765.327 144.456 765.971 143.994 766.825 143.994C767.749 143.994 768.393 144.68 768.393 145.716V146.976C768.393 148.012 767.749 148.684 766.825 148.684ZM773.881 150V145.52C773.881 144.722 774.511 144.386 775.715 144.386H776.275V142.692H775.883C774.721 142.692 774.133 143.434 773.951 144.204H773.881V142.692H772.089V150H773.881ZM778.641 141.628C779.369 141.628 779.691 141.25 779.691 140.732V140.452C779.691 139.934 779.369 139.556 778.641 139.556C777.899 139.556 777.591 139.934 777.591 140.452V140.732C777.591 141.25 777.899 141.628 778.641 141.628ZM777.745 150H779.537V142.692H777.745V150ZM785.47 150L787.92 142.692H786.212L785.218 145.842L784.504 148.446H784.406L783.692 145.842L782.67 142.692H780.906L783.342 150H785.47ZM790.959 150.168C792.051 150.168 792.849 149.678 793.087 148.74H793.171C793.283 149.496 793.759 150 794.529 150H795.523V148.572H794.795V145.128C794.795 143.462 793.745 142.524 791.771 142.524C790.301 142.524 789.447 143.084 788.915 143.924L789.979 144.876C790.329 144.372 790.805 143.952 791.645 143.952C792.597 143.952 793.003 144.428 793.003 145.24V145.772H791.757C789.769 145.772 788.635 146.514 788.635 148.012C788.635 149.314 789.475 150.168 790.959 150.168ZM791.561 148.866C790.861 148.866 790.455 148.572 790.455 147.984V147.746C790.455 147.172 790.917 146.85 791.855 146.85H793.003V147.816C793.003 148.502 792.359 148.866 791.561 148.866ZM799.361 150H800.649V148.572H799.263V144.12H800.761V142.692H799.263V140.69H797.653V141.936C797.653 142.44 797.485 142.692 796.953 142.692H796.393V144.12H797.471V148.138C797.471 149.328 798.129 150 799.361 150ZM805.374 150.168C806.732 150.168 807.796 149.65 808.398 148.824L807.432 147.746C806.984 148.32 806.452 148.74 805.57 148.74C804.394 148.74 803.792 148.026 803.792 146.976V146.794H808.65V146.206C808.65 144.204 807.6 142.524 805.318 142.524C803.176 142.524 801.93 144.022 801.93 146.332C801.93 148.67 803.218 150.168 805.374 150.168ZM805.346 143.868C806.27 143.868 806.788 144.554 806.788 145.562V145.688H803.792V145.576C803.792 144.568 804.408 143.868 805.346 143.868ZM691.127 168.168C693.227 168.168 694.529 166.684 694.529 164.332C694.529 161.994 693.227 160.524 691.127 160.524C689.041 160.524 687.739 161.994 687.739 164.332C687.739 166.684 689.041 168.168 691.127 168.168ZM691.127 166.726C690.203 166.726 689.615 166.124 689.615 165.018V163.66C689.615 162.568 690.203 161.966 691.127 161.966C692.065 161.966 692.653 162.568 692.653 163.66V165.018C692.653 166.124 692.065 166.726 691.127 166.726ZM698.07 168V163.52C698.07 162.722 698.7 162.386 699.904 162.386H700.464V160.692H700.072C698.91 160.692 698.322 161.434 698.14 162.204H698.07V160.692H696.278V168H698.07ZM705.402 170.8H707.194V166.782H707.25C707.53 167.608 708.3 168.168 709.266 168.168C711.114 168.168 712.136 166.782 712.136 164.332C712.136 161.896 711.114 160.524 709.266 160.524C708.3 160.524 707.516 161.056 707.25 161.896H707.194V160.692H705.402V170.8ZM708.692 166.684C707.838 166.684 707.194 166.25 707.194 165.494V163.17C707.194 162.456 707.838 161.994 708.692 161.994C709.616 161.994 710.26 162.68 710.26 163.716V164.976C710.26 166.012 709.616 166.684 708.692 166.684ZM718.325 168H720.117V160.692H718.325V165.522C718.325 166.306 717.611 166.684 716.897 166.684C716.043 166.684 715.665 166.138 715.665 165.13V160.692H713.873V165.312C713.873 167.132 714.713 168.168 716.211 168.168C717.415 168.168 718.003 167.51 718.255 166.782H718.325V168ZM722.347 168H724.139V166.782H724.195C724.475 167.608 725.245 168.168 726.211 168.168C728.059 168.168 729.081 166.782 729.081 164.332C729.081 161.896 728.059 160.524 726.211 160.524C725.245 160.524 724.461 161.056 724.195 161.896H724.139V157.64H722.347V168ZM725.637 166.684C724.783 166.684 724.139 166.25 724.139 165.494V163.17C724.139 162.456 724.783 161.994 725.637 161.994C726.561 161.994 727.205 162.68 727.205 163.716V164.976C727.205 166.012 726.561 166.684 725.637 166.684ZM733.66 168V166.572H732.694V157.64H730.902V166.236C730.902 167.356 731.476 168 732.694 168H733.66ZM736.073 159.628C736.801 159.628 737.123 159.25 737.123 158.732V158.452C737.123 157.934 736.801 157.556 736.073 157.556C735.331 157.556 735.023 157.934 735.023 158.452V158.732C735.023 159.25 735.331 159.628 736.073 159.628ZM735.177 168H736.969V160.692H735.177V168ZM742.09 168.168C743.504 168.168 744.526 167.524 745.002 166.236L743.63 165.578C743.364 166.236 742.944 166.726 742.09 166.726C741.096 166.726 740.592 166.04 740.592 165.018V163.688C740.592 162.666 741.096 161.966 742.09 161.966C742.86 161.966 743.322 162.414 743.49 163.03L744.96 162.372C744.526 161.224 743.56 160.524 742.09 160.524C739.934 160.524 738.716 161.994 738.716 164.332C738.716 166.684 739.934 168.168 742.09 168.168ZM751.804 168V163.52C751.804 162.722 752.434 162.386 753.638 162.386H754.198V160.692H753.806C752.644 160.692 752.056 161.434 751.874 162.204H751.804V160.692H750.012V168H751.804ZM758.554 168.168C759.912 168.168 760.976 167.65 761.578 166.824L760.612 165.746C760.164 166.32 759.632 166.74 758.75 166.74C757.574 166.74 756.972 166.026 756.972 164.976V164.794H761.83V164.206C761.83 162.204 760.78 160.524 758.498 160.524C756.356 160.524 755.11 162.022 755.11 164.332C755.11 166.67 756.398 168.168 758.554 168.168ZM758.526 161.868C759.45 161.868 759.968 162.554 759.968 163.562V163.688H756.972V163.576C756.972 162.568 757.588 161.868 758.526 161.868ZM763.567 170.8H765.359V166.782H765.415C765.695 167.608 766.465 168.168 767.431 168.168C769.279 168.168 770.301 166.782 770.301 164.332C770.301 161.896 769.279 160.524 767.431 160.524C766.465 160.524 765.681 161.056 765.415 161.896H765.359V160.692H763.567V170.8ZM766.857 166.684C766.003 166.684 765.359 166.25 765.359 165.494V163.17C765.359 162.456 766.003 161.994 766.857 161.994C767.781 161.994 768.425 162.68 768.425 163.716V164.976C768.425 166.012 767.781 166.684 766.857 166.684ZM775.019 168.168C777.119 168.168 778.421 166.684 778.421 164.332C778.421 161.994 777.119 160.524 775.019 160.524C772.933 160.524 771.631 161.994 771.631 164.332C771.631 166.684 772.933 168.168 775.019 168.168ZM775.019 166.726C774.095 166.726 773.507 166.124 773.507 165.018V163.66C773.507 162.568 774.095 161.966 775.019 161.966C775.957 161.966 776.545 162.568 776.545 163.66V165.018C776.545 166.124 775.957 166.726 775.019 166.726ZM782.564 168.168C784.384 168.168 785.574 167.188 785.574 165.774C785.574 164.556 784.804 163.842 783.208 163.618L782.466 163.52C781.78 163.408 781.514 163.184 781.514 162.694C781.514 162.246 781.85 161.938 782.62 161.938C783.334 161.938 783.95 162.274 784.37 162.722L785.42 161.672C784.72 160.944 783.992 160.524 782.564 160.524C780.898 160.524 779.792 161.42 779.792 162.834C779.792 164.164 780.66 164.85 782.228 165.046L782.956 165.144C783.6 165.228 783.852 165.494 783.852 165.914C783.852 166.432 783.488 166.754 782.634 166.754C781.808 166.754 781.164 166.376 780.632 165.76L779.54 166.824C780.268 167.664 781.178 168.168 782.564 168.168ZM788.212 159.628C788.94 159.628 789.262 159.25 789.262 158.732V158.452C789.262 157.934 788.94 157.556 788.212 157.556C787.47 157.556 787.162 157.934 787.162 158.452V158.732C787.162 159.25 787.47 159.628 788.212 159.628ZM787.316 168H789.108V160.692H787.316V168ZM793.628 168H794.916V166.572H793.53V162.12H795.028V160.692H793.53V158.69H791.92V159.936C791.92 160.44 791.752 160.692 791.22 160.692H790.66V162.12H791.738V166.138C791.738 167.328 792.396 168 793.628 168ZM799.585 168.168C801.685 168.168 802.987 166.684 802.987 164.332C802.987 161.994 801.685 160.524 799.585 160.524C797.499 160.524 796.197 161.994 796.197 164.332C796.197 166.684 797.499 168.168 799.585 168.168ZM799.585 166.726C798.661 166.726 798.073 166.124 798.073 165.018V163.66C798.073 162.568 798.661 161.966 799.585 161.966C800.523 161.966 801.111 162.568 801.111 163.66V165.018C801.111 166.124 800.523 166.726 799.585 166.726ZM806.528 168V163.52C806.528 162.722 807.158 162.386 808.362 162.386H808.922V160.692H808.53C807.368 160.692 806.78 161.434 806.598 162.204H806.528V160.692H804.736V168H806.528ZM813.707 164.556L813.203 166.404H813.119L812.643 164.556L811.369 160.692H809.591L812.209 168.35L811.873 169.372H810.557V170.8H811.635C812.839 170.8 813.357 170.352 813.721 169.302L816.661 160.692H814.981L813.707 164.556Z" fill="black"/>
<path d="M320 104L325 106.887L325 101.113L320 104ZM389.643 103.5L324.5 103.5L324.5 104.5L389.643 104.5L389.643 103.5ZM389.643 104.5L500 104.5L500 103.5L389.643 103.5L389.643 104.5Z" fill="#6F6F6F"/>
<rect x="395.5" y="96.5" width="43" height="15" rx="7.5" fill="white"/>
<path d="M405.124 108V104.424H407.452C408.952 104.424 409.792 103.5 409.792 102.024C409.792 100.548 408.952 99.624 407.452 99.624H404.116V108H405.124ZM405.124 100.512H407.452C408.244 100.512 408.712 100.944 408.712 101.712V102.336C408.712 103.104 408.244 103.536 407.452 103.536H405.124V100.512ZM415.433 108H416.393V101.808H415.433V106.092C415.433 106.908 414.689 107.28 413.933 107.28C413.009 107.28 412.517 106.716 412.517 105.612V101.808H411.557V105.78C411.557 107.28 412.373 108.144 413.645 108.144C414.677 108.144 415.145 107.58 415.385 106.992H415.433V108ZM420.618 108.144C422.034 108.144 422.91 107.412 422.91 106.212C422.91 105.276 422.382 104.676 421.014 104.472L420.534 104.4C419.766 104.28 419.346 104.04 419.346 103.44C419.346 102.852 419.766 102.48 420.558 102.48C421.35 102.48 421.878 102.852 422.154 103.236L422.79 102.66C422.286 102.036 421.626 101.664 420.63 101.664C419.37 101.664 418.422 102.264 418.422 103.488C418.422 104.64 419.274 105.108 420.414 105.276L420.906 105.348C421.722 105.468 421.986 105.84 421.986 106.32C421.986 106.956 421.506 107.328 420.69 107.328C419.91 107.328 419.334 106.98 418.854 106.38L418.17 106.932C418.722 107.664 419.478 108.144 420.618 108.144ZM424.925 108H425.885V103.704C425.885 102.912 426.629 102.528 427.397 102.528C428.321 102.528 428.801 103.092 428.801 104.196V108H429.761V104.028C429.761 102.528 428.957 101.664 427.685 101.664C426.761 101.664 426.233 102.12 425.933 102.816H425.885V99.12H424.925V108Z" fill="black"/>
<rect x="395.5" y="96.5" width="43" height="15" rx="7.5" stroke="black"/>
</svg>
