<svg width="1080" height="270" viewBox="0 0 1080 270" fill="none" xmlns="http://www.w3.org/2000/svg">
<rect width="1080" height="270" fill="#F4F4F4"/>
<path d="M56 207.5H72C76.1421 207.5 79.5 210.858 79.5 215C79.5 219.142 76.1421 222.5 72 222.5H56C51.8579 222.5 48.5 219.142 48.5 215C48.5 210.858 51.8579 207.5 56 207.5Z" fill="white" stroke="#697077"/>
<text fill="#697077" xml:space="preserve" style="white-space: pre" font-family="IBM Plex Sans" font-size="14" letter-spacing="0.0016em"><tspan x="88" y="220.25">Flow direction</tspan></text>
<rect width="124" height="92" transform="translate(234 80)" fill="white" style="mix-blend-mode:multiply"/>
<rect x="272.5" y="80.5" width="47" height="47" fill="#F6F2FF"/>
<path d="M273 81H319V127H273V81Z" fill="white"/>
<path d="M273 81H319V127H273V81Z" fill="#F6F2FF"/>
<rect width="20" height="20" transform="translate(286 94)" fill="white" style="mix-blend-mode:multiply"/>
<path d="M296.625 102.125V97.75H291V107.75H301V102.125H296.625ZM292.25 99H295.375V102.125H292.25V99ZM292.25 103.375H295.375V106.5H292.25V103.375ZM299.75 106.5H296.625V103.375H299.75V106.5Z" fill="black"/>
<path d="M303.5 100.875H297.875V95.25H303.5V100.875ZM299.125 99.625H302.25V96.5H299.125V99.625Z" fill="black"/>
<path d="M303.5 106.5H302.25V107.75H303.5V111.5H288.5V107.75H289.75V106.5H288.5C288.169 106.5 287.851 106.632 287.617 106.867C287.382 107.101 287.25 107.419 287.25 107.75V111.5C287.25 111.831 287.382 112.149 287.617 112.383C287.851 112.618 288.169 112.75 288.5 112.75H303.5C303.831 112.75 304.149 112.618 304.383 112.383C304.618 112.149 304.75 111.831 304.75 111.5V107.75C304.75 107.419 304.618 107.101 304.383 106.867C304.149 106.632 303.831 106.5 303.5 106.5Z" fill="black"/>
<path d="M290.375 110.25C290.72 110.25 291 109.97 291 109.625C291 109.28 290.72 109 290.375 109C290.03 109 289.75 109.28 289.75 109.625C289.75 109.97 290.03 110.25 290.375 110.25Z" fill="black"/>
<rect x="272.5" y="80.5" width="47" height="47" stroke="#A56EFF"/>
<text fill="black" xml:space="preserve" style="white-space: pre" font-family="IBM Plex Sans" font-size="14" font-weight="600" letter-spacing="0.16px"><tspan x="270.701" y="150.25">Private &#10;</tspan><tspan x="234.313" y="168.25">IBM Cloud registry</tspan></text>
<rect width="70" height="92" transform="translate(489 80)" fill="white" style="mix-blend-mode:multiply"/>
<rect width="48" height="48" transform="translate(500 80)" fill="black"/>
<rect width="20" height="20" transform="translate(514 94)" fill="white" style="mix-blend-mode:multiply"/>
<path d="M530.25 109.003H517.75C517.419 109.003 517.101 108.871 516.867 108.637C516.632 108.402 516.5 108.084 516.5 107.753V99.0031C516.5 98.6716 516.632 98.3539 516.866 98.1195C517.101 97.8852 517.419 97.7534 517.75 97.7531H530.25C530.581 97.7534 530.899 97.8853 531.133 98.1196C531.368 98.3539 531.5 98.6716 531.5 99.0031V107.753C531.5 108.084 531.368 108.402 531.133 108.636C530.899 108.871 530.581 109.003 530.25 109.003ZM517.75 99.0031V107.753H530.25V99.0031H517.75Z" fill="white"/>
<path d="M532.75 110.253H515.25V111.503H532.75V110.253Z" fill="white"/>
<text fill="black" xml:space="preserve" style="white-space: pre" font-family="IBM Plex Sans" font-size="14" font-weight="600" letter-spacing="0.16px"><tspan x="489.499" y="150.25">Your local &#10;</tspan><tspan x="492.172" y="168.25">computer</tspan></text>
<rect width="130" height="92" transform="translate(687 80)" fill="white" style="mix-blend-mode:multiply"/>
<rect width="48" height="48" transform="translate(728 80)" fill="#8D8D8D"/>
<rect width="20" height="20" transform="translate(742 94)" fill="white" style="mix-blend-mode:multiply"/>
<path d="M757 95.875H747C746.668 95.875 746.351 96.0067 746.116 96.2411C745.882 96.4755 745.75 96.7935 745.75 97.125V110.875C745.75 111.207 745.882 111.524 746.116 111.759C746.351 111.993 746.668 112.125 747 112.125H757C757.332 112.125 757.649 111.993 757.884 111.759C758.118 111.524 758.25 111.207 758.25 110.875V97.125C758.25 96.7935 758.118 96.4755 757.884 96.2411C757.649 96.0067 757.332 95.875 757 95.875ZM757 97.125V100.875H747V97.125H757ZM747 105.875V102.125H757V105.875H747ZM747 110.875V107.125H757V110.875H747Z" fill="white"/>
<path d="M748.875 99.625C749.22 99.625 749.5 99.3452 749.5 99C749.5 98.6548 749.22 98.375 748.875 98.375C748.53 98.375 748.25 98.6548 748.25 99C748.25 99.3452 748.53 99.625 748.875 99.625Z" fill="white"/>
<path d="M748.875 104.625C749.22 104.625 749.5 104.345 749.5 104C749.5 103.655 749.22 103.375 748.875 103.375C748.53 103.375 748.25 103.655 748.25 104C748.25 104.345 748.53 104.625 748.875 104.625Z" fill="white"/>
<path d="M748.875 109.625C749.22 109.625 749.5 109.345 749.5 109C749.5 108.655 749.22 108.375 748.875 108.375C748.53 108.375 748.25 108.655 748.25 109C748.25 109.345 748.53 109.625 748.875 109.625Z" fill="white"/>
<text fill="black" xml:space="preserve" style="white-space: pre" font-family="IBM Plex Sans" font-size="14" font-weight="600" letter-spacing="0.16px"><tspan x="694.809" y="150.25">Any other private&#10;</tspan><tspan x="687.193" y="168.25">or public repository</tspan></text>
<path d="M320 104L325 106.887L325 101.113L320 104ZM389.643 103.5L324.5 103.5L324.5 104.5L389.643 104.5L389.643 103.5ZM389.643 104.5L500 104.5L500 103.5L389.643 103.5L389.643 104.5Z" fill="#6F6F6F"/>
<rect x="395.5" y="96.5" width="43" height="15" rx="7.5" fill="white"/>
<text fill="black" xml:space="preserve" style="white-space: pre" font-family="IBM Plex Sans" font-size="12" letter-spacing="0.32px"><tspan x="403" y="107.5">Push</tspan></text>
<rect x="395.5" y="96.5" width="43" height="15" rx="7.5" stroke="black"/>
</svg>
