<?xml version="1.0" encoding="utf-8"?>
<svg id="4ea608ff-a81e-4c44-a19c-8156005bfbe7" data-name="Layer 1" xmlns="http://www.w3.org/2000/svg" viewBox="0 0 831 257"><title>images_push</title><path id="26b528bb-7ef3-45d5-9b34-acab2ad57c6b" data-name="&lt;Path&gt;" d="M257,0H574V23.3H257Z" fill="#6aa4d9"/><path id="b5f381ea-9425-4c5d-99ab-5e4ba6948abc" data-name="&lt;Path&gt;" d="M574,0H831V23.3H574Z" fill="#87c3eb"/><g id="4f3630c9-a43f-492a-af95-f49f43776668" data-name="&lt;Group&gt;"><path id="3a0e19b8-b317-4449-bc7a-bd10a4d6c484" data-name="&lt;Path&gt;" d="M127.94,106.2,132,113l4.06-6.8Z" fill="#394b54"/></g><path id="db13e8c7-046d-4228-b5ef-dd0b398d32c2" data-name="&lt;Path&gt;" d="M0,0H258V23.3H0Z" fill="#4278bd"/><path id="d60b3026-3d63-4fc3-8569-e37bbb8fd4d2" data-name="&lt;Path&gt;" d="M132,82H399.5" fill="none" stroke="#394b54" stroke-miterlimit="10"/><text transform="translate(586.4 43.93)" font-size="14" font-family="IBMPlexSans, IBM Plex Sans" style="isolation:isolate"><tspan x="80" y="0" letter-spacing="-0.01em">任何其他專用或</tspan><tspan x="80" y="14">公用儲存庫</tspan></text><text transform="translate(47.13 43.93)" font-size="14" font-family="IBMPlexSans, IBM Plex Sans" style="isolation:isolate"><tspan x="10" y="0" letter-spacing="0em">專用 IBM Cloud 登錄</tspan></text><text transform="translate(352.56 43.93)" font-size="14" font-family="IBMPlexSans, IBM Plex Sans" style="isolation:isolate"><tspan x="12" y="0">您的本端電腦</tspan></text><path id="cb85221c-fb2f-4af6-bbbe-ae30b64a41e3" data-name="&lt;Path&gt;" d="M132,82.25v23" fill="none" stroke="#394b54" stroke-miterlimit="10"/><path id="c4e92bb3-20ff-455c-9604-55e38bb9d9c9" data-name="&lt;Path&gt;" d="M399.25,81.5v23" fill="none" stroke="#394b54" stroke-miterlimit="10"/><rect x="399.5" y="71.5" width="15.5" height="19.5" fill="none"/><path id="96fbf55c-fcf4-40ec-873f-f42ea0ef48ff" data-name="&lt;Path&gt;" d="M181.82,145.08a36.89,36.89,0,0,0-7.09.68,50.09,50.09,0,0,0-82.8,6.12,37.83,37.83,0,0,0-7.34-.72c-21.52,0-38.95,17.93-38.95,40.05,0,21,15.77,38.28,35.83,39.91l100.13.13h.22c22,0,39.74-19.29,39.74-43.09S203.77,145.08,181.82,145.08Z" fill="#87c3eb" stroke="#152935" stroke-miterlimit="10" stroke-width="11"/><path id="66b7a578-b043-472e-86c9-97538cab762b" data-name="&lt;Path&gt;" d="M750.47,145.08a36.89,36.89,0,0,0-7.09.68,50.09,50.09,0,0,0-82.8,6.12,37.83,37.83,0,0,0-7.34-.72c-21.52,0-39,17.93-39,40.05,0,21,15.77,38.28,35.83,39.91l100.13.13h.22c21.95,0,39.74-19.29,39.74-43.09S772.42,145.08,750.47,145.08Z" fill="none" stroke="#152935" stroke-miterlimit="10" stroke-width="11"/><rect id="36862df0-c2a3-423f-b600-92166e47195c" data-name="&lt;Rectangle&gt;" x="352.77" y="126" width="124.47" height="90.67" fill="#060707"/><g id="379cd366-c4c1-4a5e-9051-98565c69d453" data-name="&lt;Group&gt;"><rect id="4b499323-e7f4-4b53-8bff-364a33d99c44" data-name="&lt;Rectangle&gt;" x="361.89" y="137.31" width="106.23" height="77.38" fill="#fff"/><path id="27727e4d-3e62-4275-aca3-da0f7abdf801" data-name="&lt;Compound Path&gt;" d="M470.3,216.88H359.7V135.12H470.3ZM364.08,212.5H465.92v-73H364.08Z" fill="#fff"/></g><rect id="f705138f-c6e3-406a-8fbf-ec58cecc4f82" data-name="&lt;Rectangle&gt;" x="342.62" y="216.34" width="144.76" height="22.89" fill="#060707"/><rect id="a28c1fb3-03d8-4cea-aca6-88dcc19edf2c" data-name="&lt;Rectangle&gt;" x="385.72" y="221.01" width="58.56" height="9.66" rx="4.18" ry="4.18" fill="#8c9ba5"/><rect x="672.66" y="173.26" width="63.48" height="33.86" fill="none" stroke="#152935" stroke-miterlimit="10" stroke-width="3"/><line x1="676.32" y1="170.09" x2="732.49" y2="170.09" fill="none" stroke="#152935" stroke-miterlimit="10" stroke-width="6"/><rect x="682.05" y="165.05" width="44.71" height="5.03" fill="none" stroke="#152935" stroke-miterlimit="10" stroke-width="2"/><path d="M711.7,190.19H699v-2.12h-2.12v4.24h16.93v-4.24H711.7Z" fill="#152935"/><rect x="101.86" y="173.26" width="63.48" height="33.86" fill="none" stroke="#152935" stroke-miterlimit="10" stroke-width="3"/><line x1="105.51" y1="170.09" x2="161.69" y2="170.09" fill="none" stroke="#152935" stroke-miterlimit="10" stroke-width="6"/><rect x="111.25" y="165.05" width="44.71" height="5.03" fill="none" stroke="#152935" stroke-miterlimit="10" stroke-width="2"/><path d="M140.89,190.19H128.2v-2.12h-2.12v4.24H143v-4.24h-2.12Z" fill="#152935"/></svg>
